<?xml version="1.0" encoding="utf-8"?>
<!-- Generator: Adobe Illustrator 23.0.3, SVG Export Plug-In . SVG Version: 6.00 Build 0)  -->
<svg version="1.1" id="圖層_1" xmlns="http://www.w3.org/2000/svg" xmlns:xlink="http://www.w3.org/1999/xlink" x="0px" y="0px"
	 viewBox="0 0 512 512" style="enable-background:new 0 0 512 512;" xml:space="preserve">
<style type="text/css">
	.st0{fill:#FCC72F;stroke:#4E4E4D;}
	.st1{fill:#4E4E4D;stroke:#4E4E4D;}
</style>
<g>
	<path class="st0" d="M94.9,185.7c-0.2-0.3-0.1-2.4,0.1-5.7c1.7-19.8,11-83.7,11-83.7l54-51.5l81-33.4L304.1,22l46.2,26.5l35.6,44.7
		l26.5,50v96.3l-30.3,53.1l-24.3,47.7l-9.9,40.9l-8.3,44l-67.5,6.1l-91.2-3.8L160.1,361l-6.8-41.9L126,259.4L106,232L94.9,185.7z"/>
	<polygon class="st0" points="172.2,382 288.2,377.5 338.2,385.8 338.2,431.3 317,450.9 294.2,482 247.2,491.2 198.7,460.1 
		172.2,409.3 	"/>
</g>
<g id="Capa_1">
	<g>
		<g>
			<path class="st1" d="M256,60c-8.3,0-15,6.7-15,15s6.7,15,15,15c49.6,0,90,40.4,90,90c0,8.3,6.7,15,15,15s15-6.7,15-15
				C376,113.8,322.2,60,256,60z"/>
		</g>
	</g>
	<g>
		<g>
			<path class="st1" d="M217.3,4C149.6,18.2,94.6,72.6,80.2,140.8C68,198.4,83,256.2,121.5,299.4c18.8,21.1,29.6,49,29.6,76.6v30
				c0,20,13.1,36.9,31.1,42.8c5.9,35,36.3,63.2,73.9,63.2s68-28.2,73.9-63.2c18-5.9,31.1-22.8,31.1-42.8v-30
				c0-27.6,10.8-55.2,30.4-77.6C420.2,265.6,436,223.6,436,180C436,66.4,332.1-19.9,217.3,4z M256,482c-19.3,0-36.2-13.3-42.4-31.1
				h84.9C292.2,468.7,275.3,482,256,482z M331,406c0,8.3-6.7,15-15,15H196c-8.3,0-15-6.7-15-15v-15h150V406z M368.9,278.6
				c-20.9,23.9-33.8,52.6-37.1,82.3H180.2c-3.3-29.7-16.1-58.8-36.3-81.5c-32-36-44.6-84.3-34.3-132.4
				c11.9-56.2,57.7-101.9,114-113.6C319.5,13.3,406,85.4,406,180C406,216.3,392.8,251.3,368.9,278.6z"/>
		</g>
	</g>
	<g>
		<g>
			<path class="st1" d="M45,180H15c-8.3,0-15,6.7-15,15s6.7,15,15,15h30c8.3,0,15-6.7,15-15S53.3,180,45,180z"/>
		</g>
	</g>
	<g>
		<g>
			<path class="st1" d="M51.2,105L30,83.8c-5.9-5.9-15.4-5.9-21.2,0s-5.9,15.4,0,21.2L30,126.2c5.9,5.9,15.4,5.9,21.2,0
				C57.1,120.3,57.1,110.8,51.2,105z"/>
		</g>
	</g>
	<g>
		<g>
			<path class="st1" d="M51.2,263.8c-5.9-5.9-15.4-5.9-21.2,0L8.8,285c-5.9,5.9-5.9,15.4,0,21.2c5.9,5.9,15.4,5.9,21.2,0L51.2,285
				C57.1,279.1,57.1,269.6,51.2,263.8z"/>
		</g>
	</g>
	<g>
		<g>
			<path class="st1" d="M497,180h-30c-8.3,0-15,6.7-15,15s6.7,15,15,15h30c8.3,0,15-6.7,15-15S505.3,180,497,180z"/>
		</g>
	</g>
	<g>
		<g>
			<path class="st1" d="M503.2,83.8c-5.9-5.9-15.4-5.9-21.2,0L460.8,105c-5.9,5.9-5.9,15.4,0,21.2c5.9,5.9,15.4,5.9,21.2,0
				l21.2-21.2C509.1,99.1,509.1,89.6,503.2,83.8z"/>
		</g>
	</g>
	<g>
		<g>
			<path class="st1" d="M503.2,285L482,263.8c-5.9-5.9-15.4-5.9-21.2,0s-5.9,15.4,0,21.2l21.2,21.2c5.9,5.9,15.4,5.9,21.2,0
				S509.1,290.8,503.2,285z"/>
		</g>
	</g>
</g>
</svg>
