<svg id="分離模式" xmlns="http://www.w3.org/2000/svg" xmlns:xlink="http://www.w3.org/1999/xlink" viewBox="0 0 35.38 35.38"><defs><style>.cls-1{fill:none;}.cls-2{fill:url(#linear-gradient);}.cls-3{clip-path:url(#clip-path);}.cls-4{fill:#fff;}</style><linearGradient id="linear-gradient" x1="1.12" y1="3.69" x2="36.49" y2="33.57" gradientUnits="userSpaceOnUse"><stop offset="0" stop-color="#fbe18a"/><stop offset="0.21" stop-color="#fcbb45"/><stop offset="0.38" stop-color="#f75274"/><stop offset="0.52" stop-color="#d53692"/><stop offset="0.74" stop-color="#8f39ce"/><stop offset="1" stop-color="#5b4fe9"/></linearGradient><clipPath id="clip-path" transform="translate(-361.32 -150.75)"><rect class="cls-1" x="367.26" y="156.68" width="23.5" height="23.5"/></clipPath></defs><circle class="cls-2" cx="17.69" cy="17.69" r="17.69"/><g class="cls-3"><path class="cls-4" d="M390.74,173.27c.05-1.26.06-1.66.06-4.85s0-3.59-.07-4.84a8.7,8.7,0,0,0-.55-2.85,6,6,0,0,0-3.44-3.44,8.65,8.65,0,0,0-2.85-.55c-1.25-.05-1.65-.06-4.84-.06s-3.59,0-4.85.06a8.76,8.76,0,0,0-2.85.55,5.84,5.84,0,0,0-2.08,1.35,6,6,0,0,0-1.36,2.09,8.68,8.68,0,0,0-.54,2.85c-.06,1.25-.07,1.65-.07,4.84s0,3.59.07,4.85a8.7,8.7,0,0,0,.55,2.85,5.75,5.75,0,0,0,1.35,2.08,5.82,5.82,0,0,0,2.09,1.36,8.65,8.65,0,0,0,2.85.55c1.25,0,1.65.07,4.84.07s3.59,0,4.85-.08a8.48,8.48,0,0,0,2.85-.54,5.86,5.86,0,0,0,2.08-1.36,5.69,5.69,0,0,0,1.36-2.08,8.7,8.7,0,0,0,.55-2.85Zm-2.12-9.6c.06,1.24.07,1.61.07,4.74s0,3.51-.07,4.75a6.44,6.44,0,0,1-.4,2.18,3.91,3.91,0,0,1-2.23,2.23,6.44,6.44,0,0,1-2.18.4c-1.24.06-1.61.07-4.75.07s-3.51,0-4.75-.07a6.55,6.55,0,0,1-2.18-.4,3.76,3.76,0,0,1-1.35-.88,3.59,3.59,0,0,1-.88-1.35,6.44,6.44,0,0,1-.4-2.18c-.06-1.23-.07-1.61-.07-4.75s0-3.5.07-4.74a6.44,6.44,0,0,1,.4-2.18,3.91,3.91,0,0,1,2.23-2.23,6.44,6.44,0,0,1,2.18-.4c1.24-.06,1.61-.07,4.75-.07s3.5,0,4.74.07a6.57,6.57,0,0,1,2.19.4,3.92,3.92,0,0,1,2.23,2.23,6.44,6.44,0,0,1,.4,2.18Zm0,0" transform="translate(-361.32 -150.75)"/></g><path class="cls-4" d="M379.05,174.46a6,6,0,1,0-6-6,6,6,0,0,0,6,6Zm0-10a3.92,3.92,0,1,1-3.91,3.91,3.91,3.91,0,0,1,3.91-3.91Zm0,0" transform="translate(-361.32 -150.75)"/><path class="cls-4" d="M386.74,174.7a1.41,1.41,0,1,1-1.41-1.41,1.41,1.41,0,0,1,1.41,1.41Zm0,0" transform="translate(-361.32 -150.75)"/></svg>