<svg id="圖層_1" data-name="圖層 1" xmlns="http://www.w3.org/2000/svg" xmlns:xlink="http://www.w3.org/1999/xlink" viewBox="0 0 32 32"><defs><style>.cls-1{fill:none;}.cls-2{fill:#979ba7;}.cls-3{clip-path:url(#clip-path);}.cls-4{clip-path:url(#clip-path-2);}.cls-5{fill:#fff;}</style><clipPath id="clip-path" transform="translate(-250.92 -63.93)"><circle class="cls-1" cx="266.92" cy="79.93" r="16"/></clipPath><clipPath id="clip-path-2" transform="translate(-250.92 -63.93)"><path class="cls-1" d="M263.14,87.71h0a3.56,3.56,0,0,1-2.74-1.3,3.47,3.47,0,0,1-.77-2.47,3.91,3.91,0,0,1,1.1-2.39l3.4-3.4a3.55,3.55,0,0,1,5,0,.71.71,0,0,1,0,1,.7.7,0,0,1-.5.2.69.69,0,0,1-.5-.2,2.12,2.12,0,0,0-3,0h0l-3.42,3.42a2.21,2.21,0,0,0-.17,3,2.12,2.12,0,0,0,3,.16l.08-.07,1-1a.71.71,0,1,1,1.05,1l-.05,0-1,1A3.56,3.56,0,0,1,263.14,87.71Zm4.5-4.51a3.5,3.5,0,0,1-2.5-1,.71.71,0,1,1,1-1,2.13,2.13,0,0,0,3,0l3.5-3.51a2.12,2.12,0,0,0,0-3,.6.6,0,0,0-.08-.08,2.05,2.05,0,0,0-1.37-.52,2.39,2.39,0,0,0-1.64.68l-.91.92a.71.71,0,0,1-1,0,.7.7,0,0,1,0-1l0,0,.89-.89a3.83,3.83,0,0,1,2.67-1.12,3.38,3.38,0,0,1,2.18.77,3.53,3.53,0,0,1,.26,5.25l-3.5,3.5A3.54,3.54,0,0,1,267.64,83.2Z"/></clipPath></defs><g id="Button_social_link" data-name="Button social link"><g id="Button_social_link-2" data-name="Button social link-2"><circle id="Oval_89_Copy-2" data-name="Oval 89 Copy-2" class="cls-2" cx="16" cy="16" r="16"/><g class="cls-3"><g id="Basic_Elements_Color_grey_979BA7" data-name="Basic Elements Color grey 979BA7"><rect id="color_Grey_979BA7" data-name="color Grey 979BA7" class="cls-2" width="32" height="32"/></g><g id="Group_16" data-name="Group 16"><g class="cls-4"><g id="Mask_Group_17" data-name="Mask Group 17"><g id="Basic_Elements_Color_Grey_979BA7-2" data-name="Basic Elements Color Grey 979BA7-2"><rect id="color_BgWhite_ffffff" data-name="color BgWhite ffffff" class="cls-5" x="8" y="8" width="17" height="17"/></g></g></g></g></g></g></g></svg>