<svg id="_鍣_1" data-name="鍣_1" xmlns="http://www.w3.org/2000/svg" viewBox="0 0 215.66 208.37"><defs><style>.cls-1{fill:#1877f2;}</style></defs><path class="cls-1" d="M1584.32,789.36c-59.56,0-107.84,39.76-107.84,88.8S1524.76,967,1584.32,967v25.95a4.79,4.79,0,0,0,6.47,4.5c18.07-6.79,69.23-30,91.61-82.37a75.56,75.56,0,0,0,9.75-36.89C1692.15,829.12,1643.87,789.36,1584.32,789.36Zm-51.13,111.57A14.93,14.93,0,1,1,1548.12,886,14.93,14.93,0,0,1,1533.19,900.93Zm51.92,0A14.93,14.93,0,1,1,1600,886,14.93,14.93,0,0,1,1585.11,900.93Zm51.93,0A14.93,14.93,0,1,1,1652,886,14.94,14.94,0,0,1,1637,900.93Z" transform="translate(-1476.48 -789.36)"/></svg>