<svg width="120" height="120" viewBox="0 0 120 120" fill="none" xmlns="http://www.w3.org/2000/svg">
<g clip-path="url(#clip0_946_88846)">
<g filter="url(#filter0_iii_946_88846)">
<path d="M0 56.0976C0 25.1157 25.1157 0 56.0976 0H61.9512C94.0107 0 120 25.9893 120 58.0488V61.9512C120 94.0107 94.0107 120 61.9512 120H60C26.8629 120 0 93.1371 0 60V56.0976Z" fill="url(#paint0_radial_946_88846)"/>
</g>
<g filter="url(#filter1_dii_946_88846)">
<path d="M11.7073 35.7777C11.7073 37.5708 13.1672 39.0466 14.9444 38.8086C17.0346 38.5287 19.0843 37.9783 21.0411 37.1678C24.0002 35.9421 26.689 34.1455 28.9538 31.8806C31.2187 29.6158 33.0152 26.927 34.241 23.9679C35.0515 22.0111 35.6019 19.9614 35.8818 17.8712C36.1198 16.094 34.644 14.6341 32.8509 14.6341V14.6341C31.0578 14.6341 29.6341 16.0994 29.3106 17.863C29.0835 19.101 28.7259 20.3146 28.2419 21.483C27.3425 23.6544 26.0242 25.6273 24.3624 27.2892C22.7005 28.9511 20.7275 30.2693 18.5562 31.1687C17.3878 31.6527 16.1742 32.0103 14.9362 32.2374C13.1726 32.5609 11.7073 33.9846 11.7073 35.7777V35.7777Z" fill="url(#paint1_linear_946_88846)"/>
</g>
<g filter="url(#filter2_dii_946_88846)">
<path d="M107.317 35.7777C107.317 37.5708 105.857 39.0466 104.08 38.8086C101.99 38.5287 99.9401 37.9783 97.9834 37.1678C95.0242 35.9421 92.3354 34.1455 90.0706 31.8806C87.8057 29.6158 86.0092 26.927 84.7834 23.9679C83.9729 22.0111 83.4225 19.9614 83.1426 17.8712C82.9046 16.094 84.3804 14.6341 86.1735 14.6341V14.6341C87.9666 14.6341 89.3903 16.0994 89.7138 17.863C89.9409 19.101 90.2985 20.3146 90.7825 21.483C91.6819 23.6544 93.0002 25.6273 94.6621 27.2892C96.3239 28.9511 98.2969 30.2693 100.468 31.1687C101.637 31.6527 102.85 32.0103 104.088 32.2374C105.852 32.5609 107.317 33.9846 107.317 35.7777V35.7777Z" fill="url(#paint2_linear_946_88846)"/>
</g>
<g filter="url(#filter3_diiii_946_88846)">
<mask id="path-4-inside-1_946_88846" fill="white">
<path d="M42.3208 80.971C41.0831 79.0542 41.7069 76.4682 43.8203 75.6083C49.2065 73.4167 55.1682 72.6717 61.0297 73.5002C66.8297 74.32 72.2394 76.6391 76.6719 80.1591C78.5002 81.6111 78.3321 84.3323 76.5395 85.8282V85.8282C74.901 87.1955 72.5008 87.0201 70.794 85.7392C67.6309 83.3655 63.8392 81.7984 59.7885 81.2259C55.7011 80.6482 51.5475 81.1111 47.7514 82.535C45.7798 83.2746 43.4631 82.7399 42.3208 80.971V80.971Z"/>
</mask>
<path d="M42.3208 80.971C41.0831 79.0542 41.7069 76.4682 43.8203 75.6083C49.2065 73.4167 55.1682 72.6717 61.0297 73.5002C66.8297 74.32 72.2394 76.6391 76.6719 80.1591C78.5002 81.6111 78.3321 84.3323 76.5395 85.8282V85.8282C74.901 87.1955 72.5008 87.0201 70.794 85.7392C67.6309 83.3655 63.8392 81.7984 59.7885 81.2259C55.7011 80.6482 51.5475 81.1111 47.7514 82.535C45.7798 83.2746 43.4631 82.7399 42.3208 80.971V80.971Z" stroke="url(#paint3_linear_946_88846)" stroke-width="10.7317" stroke-linejoin="round" mask="url(#path-4-inside-1_946_88846)"/>
</g>
<g filter="url(#filter4_dii_946_88846)">
<path d="M25.8536 54.8781H42.9268C42.9268 54.8781 38.0488 86.0976 42.9268 105.366C44.0267 109.71 48.0268 114.412 50.8194 117.282C51.7651 118.254 51.0803 120 49.7242 120H19.3249C17.9963 120 17.3044 118.325 18.2015 117.345C20.8444 114.458 24.7137 109.678 25.8536 105.366C31.4634 84.1464 25.8536 54.8781 25.8536 54.8781Z" fill="url(#paint4_linear_946_88846)"/>
</g>
<g filter="url(#filter5_dii_946_88846)">
<path d="M75.6097 54.1464H92.6829C92.6829 54.1464 87.8049 86.0976 92.6829 105.366C93.7828 109.71 97.7829 114.412 100.575 117.282C101.521 118.254 100.836 120 99.4803 120H69.081C67.7524 120 67.0605 118.325 67.9576 117.345C70.6005 114.458 74.4699 109.678 75.6097 105.366C81.2195 84.1464 75.6097 54.1464 75.6097 54.1464Z" fill="url(#paint5_linear_946_88846)"/>
</g>
<g filter="url(#filter6_i_946_88846)">
<path d="M50.5073 43.4147C52.5171 43.4147 54.1857 45.0625 53.7545 47.0255C53.07 50.1409 51.5079 53.024 49.2172 55.3147C46.0611 58.4708 41.7805 60.2439 37.3171 60.2439C32.8537 60.2439 28.5731 58.4708 25.417 55.3147C23.2443 53.1421 21.7271 50.4366 20.9925 47.5054C20.4377 45.2918 22.3378 43.4147 24.6198 43.4147V43.4147C26.7592 43.4147 28.421 45.2287 29.3304 47.1653C29.7604 48.0811 30.3488 48.9247 31.0779 49.6538C32.7326 51.3085 34.9769 52.2381 37.3171 52.2381C39.6572 52.2381 41.9015 51.3085 43.5562 49.6538C44.167 49.0431 44.6789 48.352 45.0818 47.6054C46.2272 45.4831 48.0956 43.4147 50.5073 43.4147V43.4147Z" fill="#C4C4C4"/>
<path d="M50.5073 43.4147C52.5171 43.4147 54.1857 45.0625 53.7545 47.0255C53.07 50.1409 51.5079 53.024 49.2172 55.3147C46.0611 58.4708 41.7805 60.2439 37.3171 60.2439C32.8537 60.2439 28.5731 58.4708 25.417 55.3147C23.2443 53.1421 21.7271 50.4366 20.9925 47.5054C20.4377 45.2918 22.3378 43.4147 24.6198 43.4147V43.4147C26.7592 43.4147 28.421 45.2287 29.3304 47.1653C29.7604 48.0811 30.3488 48.9247 31.0779 49.6538C32.7326 51.3085 34.9769 52.2381 37.3171 52.2381C39.6572 52.2381 41.9015 51.3085 43.5562 49.6538C44.167 49.0431 44.6789 48.352 45.0818 47.6054C46.2272 45.4831 48.0956 43.4147 50.5073 43.4147V43.4147Z" fill="#221725"/>
</g>
<g filter="url(#filter7_i_946_88846)">
<path d="M97.8244 43.4147C99.8342 43.4147 101.503 45.0625 101.072 47.0255C100.387 50.1409 98.825 53.024 96.5342 55.3147C93.3781 58.4708 89.0975 60.2439 84.6341 60.2439C80.1707 60.2439 75.8902 58.4708 72.7341 55.3147C70.5614 53.1421 69.0442 50.4366 68.3096 47.5054C67.7548 45.2918 69.6548 43.4147 71.9369 43.4147V43.4147C74.0763 43.4147 75.7381 45.2287 76.6475 47.1653C77.0775 48.0811 77.6659 48.9247 78.395 49.6538C80.0497 51.3085 82.294 52.2381 84.6341 52.2381C86.9743 52.2381 89.2186 51.3085 90.8733 49.6538C91.484 49.0431 91.996 48.352 92.3989 47.6054C93.5443 45.4831 95.4127 43.4147 97.8244 43.4147V43.4147Z" fill="#C4C4C4"/>
<path d="M97.8244 43.4147C99.8342 43.4147 101.503 45.0625 101.072 47.0255C100.387 50.1409 98.825 53.024 96.5342 55.3147C93.3781 58.4708 89.0975 60.2439 84.6341 60.2439C80.1707 60.2439 75.8902 58.4708 72.7341 55.3147C70.5614 53.1421 69.0442 50.4366 68.3096 47.5054C67.7548 45.2918 69.6548 43.4147 71.9369 43.4147V43.4147C74.0763 43.4147 75.7381 45.2287 76.6475 47.1653C77.0775 48.0811 77.6659 48.9247 78.395 49.6538C80.0497 51.3085 82.294 52.2381 84.6341 52.2381C86.9743 52.2381 89.2186 51.3085 90.8733 49.6538C91.484 49.0431 91.996 48.352 92.3989 47.6054C93.5443 45.4831 95.4127 43.4147 97.8244 43.4147V43.4147Z" fill="#221725"/>
</g>
</g>
<defs>
<filter id="filter0_iii_946_88846" x="-5.36585" y="-8.78049" width="135.61" height="136.585" filterUnits="userSpaceOnUse" color-interpolation-filters="sRGB">
<feFlood flood-opacity="0" result="BackgroundImageFix"/>
<feBlend mode="normal" in="SourceGraphic" in2="BackgroundImageFix" result="shape"/>
<feColorMatrix in="SourceAlpha" type="matrix" values="0 0 0 0 0 0 0 0 0 0 0 0 0 0 0 0 0 0 127 0" result="hardAlpha"/>
<feMorphology radius="3.90244" operator="erode" in="SourceAlpha" result="effect1_innerShadow_946_88846"/>
<feOffset dx="10.2439" dy="6.34146"/>
<feGaussianBlur stdDeviation="11.7073"/>
<feComposite in2="hardAlpha" operator="arithmetic" k2="-1" k3="1"/>
<feColorMatrix type="matrix" values="0 0 0 0 0.682806 0 0 0 0 0.0652778 0 0 0 0 0.783333 0 0 0 0.14 0"/>
<feBlend mode="normal" in2="shape" result="effect1_innerShadow_946_88846"/>
<feColorMatrix in="SourceAlpha" type="matrix" values="0 0 0 0 0 0 0 0 0 0 0 0 0 0 0 0 0 0 127 0" result="hardAlpha"/>
<feOffset dy="-8.78049"/>
<feGaussianBlur stdDeviation="7.56098"/>
<feComposite in2="hardAlpha" operator="arithmetic" k2="-1" k3="1"/>
<feColorMatrix type="matrix" values="0 0 0 0 0.943639 0 0 0 0 0.223611 0 0 0 0 0.958333 0 0 0 0.44 0"/>
<feBlend mode="normal" in2="effect1_innerShadow_946_88846" result="effect2_innerShadow_946_88846"/>
<feColorMatrix in="SourceAlpha" type="matrix" values="0 0 0 0 0 0 0 0 0 0 0 0 0 0 0 0 0 0 127 0" result="hardAlpha"/>
<feOffset dx="-5.36585" dy="7.80488"/>
<feGaussianBlur stdDeviation="7.56098"/>
<feComposite in2="hardAlpha" operator="arithmetic" k2="-1" k3="1"/>
<feColorMatrix type="matrix" values="0 0 0 0 1 0 0 0 0 1 0 0 0 0 1 0 0 0 0.59 0"/>
<feBlend mode="normal" in2="effect2_innerShadow_946_88846" result="effect3_innerShadow_946_88846"/>
</filter>
<filter id="filter1_dii_946_88846" x="1.46343" y="8.7805" width="50.5412" height="50.5412" filterUnits="userSpaceOnUse" color-interpolation-filters="sRGB">
<feFlood flood-opacity="0" result="BackgroundImageFix"/>
<feColorMatrix in="SourceAlpha" type="matrix" values="0 0 0 0 0 0 0 0 0 0 0 0 0 0 0 0 0 0 127 0" result="hardAlpha"/>
<feOffset dx="2.92683" dy="7.31707"/>
<feGaussianBlur stdDeviation="6.58537"/>
<feColorMatrix type="matrix" values="0 0 0 0 0.0313726 0 0 0 0 0.02 0 0 0 0 0.0352941 0 0 0 0.25 0"/>
<feBlend mode="normal" in2="BackgroundImageFix" result="effect1_dropShadow_946_88846"/>
<feBlend mode="normal" in="SourceGraphic" in2="effect1_dropShadow_946_88846" result="shape"/>
<feColorMatrix in="SourceAlpha" type="matrix" values="0 0 0 0 0 0 0 0 0 0 0 0 0 0 0 0 0 0 127 0" result="hardAlpha"/>
<feOffset dy="2.16802"/>
<feGaussianBlur stdDeviation="1.08401"/>
<feComposite in2="hardAlpha" operator="arithmetic" k2="-1" k3="1"/>
<feColorMatrix type="matrix" values="0 0 0 0 0.181961 0 0 0 0 0.116 0 0 0 0 0.204706 0 0 0 1 0"/>
<feBlend mode="normal" in2="shape" result="effect2_innerShadow_946_88846"/>
<feColorMatrix in="SourceAlpha" type="matrix" values="0 0 0 0 0 0 0 0 0 0 0 0 0 0 0 0 0 0 127 0" result="hardAlpha"/>
<feOffset dy="-2.16802"/>
<feGaussianBlur stdDeviation="1.08401"/>
<feComposite in2="hardAlpha" operator="arithmetic" k2="-1" k3="1"/>
<feColorMatrix type="matrix" values="0 0 0 0 0.12549 0 0 0 0 0.08 0 0 0 0 0.141176 0 0 0 1 0"/>
<feBlend mode="normal" in2="effect2_innerShadow_946_88846" result="effect3_innerShadow_946_88846"/>
</filter>
<filter id="filter2_dii_946_88846" x="72.8735" y="8.7805" width="50.5412" height="50.5412" filterUnits="userSpaceOnUse" color-interpolation-filters="sRGB">
<feFlood flood-opacity="0" result="BackgroundImageFix"/>
<feColorMatrix in="SourceAlpha" type="matrix" values="0 0 0 0 0 0 0 0 0 0 0 0 0 0 0 0 0 0 127 0" result="hardAlpha"/>
<feOffset dx="2.92683" dy="7.31707"/>
<feGaussianBlur stdDeviation="6.58537"/>
<feColorMatrix type="matrix" values="0 0 0 0 0.0313726 0 0 0 0 0.02 0 0 0 0 0.0352941 0 0 0 0.25 0"/>
<feBlend mode="normal" in2="BackgroundImageFix" result="effect1_dropShadow_946_88846"/>
<feBlend mode="normal" in="SourceGraphic" in2="effect1_dropShadow_946_88846" result="shape"/>
<feColorMatrix in="SourceAlpha" type="matrix" values="0 0 0 0 0 0 0 0 0 0 0 0 0 0 0 0 0 0 127 0" result="hardAlpha"/>
<feOffset dy="2.16802"/>
<feGaussianBlur stdDeviation="1.08401"/>
<feComposite in2="hardAlpha" operator="arithmetic" k2="-1" k3="1"/>
<feColorMatrix type="matrix" values="0 0 0 0 0.181961 0 0 0 0 0.116 0 0 0 0 0.204706 0 0 0 1 0"/>
<feBlend mode="normal" in2="shape" result="effect2_innerShadow_946_88846"/>
<feColorMatrix in="SourceAlpha" type="matrix" values="0 0 0 0 0 0 0 0 0 0 0 0 0 0 0 0 0 0 127 0" result="hardAlpha"/>
<feOffset dy="-2.16802"/>
<feGaussianBlur stdDeviation="1.08401"/>
<feComposite in2="hardAlpha" operator="arithmetic" k2="-1" k3="1"/>
<feColorMatrix type="matrix" values="0 0 0 0 0.12549 0 0 0 0 0.08 0 0 0 0 0.141176 0 0 0 1 0"/>
<feBlend mode="normal" in2="effect2_innerShadow_946_88846" result="effect3_innerShadow_946_88846"/>
</filter>
<filter id="filter3_diiii_946_88846" x="25.429" y="65.0406" width="68.797" height="46.1289" filterUnits="userSpaceOnUse" color-interpolation-filters="sRGB">
<feFlood flood-opacity="0" result="BackgroundImageFix"/>
<feColorMatrix in="SourceAlpha" type="matrix" values="0 0 0 0 0 0 0 0 0 0 0 0 0 0 0 0 0 0 127 0" result="hardAlpha"/>
<feOffset dy="8.13008"/>
<feGaussianBlur stdDeviation="8.13008"/>
<feColorMatrix type="matrix" values="0 0 0 0 0.0298758 0 0 0 0 0.0216858 0 0 0 0 0.0308333 0 0 0 0.24 0"/>
<feBlend mode="normal" in2="BackgroundImageFix" result="effect1_dropShadow_946_88846"/>
<feBlend mode="normal" in="SourceGraphic" in2="effect1_dropShadow_946_88846" result="shape"/>
<feColorMatrix in="SourceAlpha" type="matrix" values="0 0 0 0 0 0 0 0 0 0 0 0 0 0 0 0 0 0 127 0" result="hardAlpha"/>
<feOffset dy="-3.90244"/>
<feGaussianBlur stdDeviation="1.26468"/>
<feComposite in2="hardAlpha" operator="arithmetic" k2="-1" k3="1"/>
<feColorMatrix type="matrix" values="0 0 0 0 0.17328 0 0 0 0 0.125777 0 0 0 0 0.178833 0 0 0 1 0"/>
<feBlend mode="normal" in2="shape" result="effect2_innerShadow_946_88846"/>
<feColorMatrix in="SourceAlpha" type="matrix" values="0 0 0 0 0 0 0 0 0 0 0 0 0 0 0 0 0 0 127 0" result="hardAlpha"/>
<feOffset dy="-4.87805"/>
<feGaussianBlur stdDeviation="0.63234"/>
<feComposite in2="hardAlpha" operator="arithmetic" k2="-1" k3="1"/>
<feColorMatrix type="matrix" values="0 0 0 0 0.119503 0 0 0 0 0.086743 0 0 0 0 0.123333 0 0 0 1 0"/>
<feBlend mode="normal" in2="effect2_innerShadow_946_88846" result="effect3_innerShadow_946_88846"/>
<feColorMatrix in="SourceAlpha" type="matrix" values="0 0 0 0 0 0 0 0 0 0 0 0 0 0 0 0 0 0 127 0" result="hardAlpha"/>
<feMorphology radius="12.9024" operator="dilate" in="SourceAlpha" result="effect4_innerShadow_946_88846"/>
<feOffset dx="4.4878" dy="10.7317"/>
<feGaussianBlur stdDeviation="5.04878"/>
<feComposite in2="hardAlpha" operator="arithmetic" k2="-1" k3="1"/>
<feColorMatrix type="matrix" values="0 0 0 0 0.462111 0 0 0 0 0.203767 0 0 0 0 0.504167 0 0 0 0.35 0"/>
<feBlend mode="normal" in2="effect3_innerShadow_946_88846" result="effect4_innerShadow_946_88846"/>
<feColorMatrix in="SourceAlpha" type="matrix" values="0 0 0 0 0 0 0 0 0 0 0 0 0 0 0 0 0 0 127 0" result="hardAlpha"/>
<feMorphology radius="12.9024" operator="dilate" in="SourceAlpha" result="effect5_innerShadow_946_88846"/>
<feOffset dx="4.4878" dy="7.80488"/>
<feGaussianBlur stdDeviation="5.04878"/>
<feComposite in2="hardAlpha" operator="arithmetic" k2="-1" k3="1"/>
<feColorMatrix type="matrix" values="0 0 0 0 0.462111 0 0 0 0 0.203767 0 0 0 0 0.504167 0 0 0 0.35 0"/>
<feBlend mode="normal" in2="effect4_innerShadow_946_88846" result="effect5_innerShadow_946_88846"/>
</filter>
<filter id="filter4_dii_946_88846" x="9.18167" y="43.8238" width="50.6914" height="82.3525" filterUnits="userSpaceOnUse" color-interpolation-filters="sRGB">
<feFlood flood-opacity="0" result="BackgroundImageFix"/>
<feColorMatrix in="SourceAlpha" type="matrix" values="0 0 0 0 0 0 0 0 0 0 0 0 0 0 0 0 0 0 127 0" result="hardAlpha"/>
<feOffset dy="-2.43902"/>
<feGaussianBlur stdDeviation="4.30763"/>
<feColorMatrix type="matrix" values="0 0 0 0 0 0 0 0 0 0 0 0 0 0 0 0 0 0 0.25 0"/>
<feBlend mode="normal" in2="BackgroundImageFix" result="effect1_dropShadow_946_88846"/>
<feBlend mode="normal" in="SourceGraphic" in2="effect1_dropShadow_946_88846" result="shape"/>
<feColorMatrix in="SourceAlpha" type="matrix" values="0 0 0 0 0 0 0 0 0 0 0 0 0 0 0 0 0 0 127 0" result="hardAlpha"/>
<feOffset dy="-1.46341"/>
<feGaussianBlur stdDeviation="2.43902"/>
<feComposite in2="hardAlpha" operator="arithmetic" k2="-1" k3="1"/>
<feColorMatrix type="matrix" values="0 0 0 0 0.3625 0 0 0 0 0.3625 0 0 0 0 0.3625 0 0 0 0.29 0"/>
<feBlend mode="normal" in2="shape" result="effect2_innerShadow_946_88846"/>
<feColorMatrix in="SourceAlpha" type="matrix" values="0 0 0 0 0 0 0 0 0 0 0 0 0 0 0 0 0 0 127 0" result="hardAlpha"/>
<feOffset dx="0.487805" dy="-5.36585"/>
<feGaussianBlur stdDeviation="2.92683"/>
<feComposite in2="hardAlpha" operator="arithmetic" k2="-1" k3="1"/>
<feColorMatrix type="matrix" values="0 0 0 0 0.8775 0 0 0 0 0.125 0 0 0 0 1 0 0 0 0.28 0"/>
<feBlend mode="normal" in2="effect2_innerShadow_946_88846" result="effect3_innerShadow_946_88846"/>
</filter>
<filter id="filter5_dii_946_88846" x="58.9378" y="43.0921" width="50.6914" height="83.0842" filterUnits="userSpaceOnUse" color-interpolation-filters="sRGB">
<feFlood flood-opacity="0" result="BackgroundImageFix"/>
<feColorMatrix in="SourceAlpha" type="matrix" values="0 0 0 0 0 0 0 0 0 0 0 0 0 0 0 0 0 0 127 0" result="hardAlpha"/>
<feOffset dy="-2.43902"/>
<feGaussianBlur stdDeviation="4.30763"/>
<feColorMatrix type="matrix" values="0 0 0 0 0 0 0 0 0 0 0 0 0 0 0 0 0 0 0.25 0"/>
<feBlend mode="normal" in2="BackgroundImageFix" result="effect1_dropShadow_946_88846"/>
<feBlend mode="normal" in="SourceGraphic" in2="effect1_dropShadow_946_88846" result="shape"/>
<feColorMatrix in="SourceAlpha" type="matrix" values="0 0 0 0 0 0 0 0 0 0 0 0 0 0 0 0 0 0 127 0" result="hardAlpha"/>
<feOffset dy="-1.46341"/>
<feGaussianBlur stdDeviation="2.43902"/>
<feComposite in2="hardAlpha" operator="arithmetic" k2="-1" k3="1"/>
<feColorMatrix type="matrix" values="0 0 0 0 0.3625 0 0 0 0 0.3625 0 0 0 0 0.3625 0 0 0 0.29 0"/>
<feBlend mode="normal" in2="shape" result="effect2_innerShadow_946_88846"/>
<feColorMatrix in="SourceAlpha" type="matrix" values="0 0 0 0 0 0 0 0 0 0 0 0 0 0 0 0 0 0 127 0" result="hardAlpha"/>
<feOffset dx="0.487805" dy="-5.36585"/>
<feGaussianBlur stdDeviation="2.92683"/>
<feComposite in2="hardAlpha" operator="arithmetic" k2="-1" k3="1"/>
<feColorMatrix type="matrix" values="0 0 0 0 0.8775 0 0 0 0 0.125 0 0 0 0 1 0 0 0 0.28 0"/>
<feBlend mode="normal" in2="effect2_innerShadow_946_88846" result="effect3_innerShadow_946_88846"/>
</filter>
<filter id="filter6_i_946_88846" x="20.8952" y="43.4147" width="32.9277" height="16.8293" filterUnits="userSpaceOnUse" color-interpolation-filters="sRGB">
<feFlood flood-opacity="0" result="BackgroundImageFix"/>
<feBlend mode="normal" in="SourceGraphic" in2="BackgroundImageFix" result="shape"/>
<feColorMatrix in="SourceAlpha" type="matrix" values="0 0 0 0 0 0 0 0 0 0 0 0 0 0 0 0 0 0 127 0" result="hardAlpha"/>
<feMorphology radius="12.9024" operator="dilate" in="SourceAlpha" result="effect1_innerShadow_946_88846"/>
<feOffset dx="4.4878" dy="-3.41463"/>
<feGaussianBlur stdDeviation="5.04878"/>
<feComposite in2="hardAlpha" operator="arithmetic" k2="-1" k3="1"/>
<feColorMatrix type="matrix" values="0 0 0 0 0.462111 0 0 0 0 0.203767 0 0 0 0 0.504167 0 0 0 0.35 0"/>
<feBlend mode="normal" in2="shape" result="effect1_innerShadow_946_88846"/>
</filter>
<filter id="filter7_i_946_88846" x="68.2123" y="43.4147" width="32.9277" height="16.8293" filterUnits="userSpaceOnUse" color-interpolation-filters="sRGB">
<feFlood flood-opacity="0" result="BackgroundImageFix"/>
<feBlend mode="normal" in="SourceGraphic" in2="BackgroundImageFix" result="shape"/>
<feColorMatrix in="SourceAlpha" type="matrix" values="0 0 0 0 0 0 0 0 0 0 0 0 0 0 0 0 0 0 127 0" result="hardAlpha"/>
<feMorphology radius="12.9024" operator="dilate" in="SourceAlpha" result="effect1_innerShadow_946_88846"/>
<feOffset dx="4.4878" dy="-4.39024"/>
<feGaussianBlur stdDeviation="5.04878"/>
<feComposite in2="hardAlpha" operator="arithmetic" k2="-1" k3="1"/>
<feColorMatrix type="matrix" values="0 0 0 0 0.462111 0 0 0 0 0.203767 0 0 0 0 0.504167 0 0 0 0.35 0"/>
<feBlend mode="normal" in2="shape" result="effect1_innerShadow_946_88846"/>
</filter>
<radialGradient id="paint0_radial_946_88846" cx="0" cy="0" r="1" gradientUnits="userSpaceOnUse" gradientTransform="translate(53.1707 7.80488) rotate(86.5167) scale(112.403)">
<stop stop-color="#FFBB0C"/>
<stop offset="1" stop-color="#FFC907"/>
</radialGradient>
<linearGradient id="paint1_linear_946_88846" x1="11.7073" y1="-9.7561" x2="11.7073" y2="39.0244" gradientUnits="userSpaceOnUse">
<stop stop-color="#2D1D32"/>
<stop offset="1" stop-color="#221526"/>
</linearGradient>
<linearGradient id="paint2_linear_946_88846" x1="107.317" y1="-9.7561" x2="107.317" y2="39.0244" gradientUnits="userSpaceOnUse">
<stop stop-color="#2D1D32"/>
<stop offset="1" stop-color="#221526"/>
</linearGradient>
<linearGradient id="paint3_linear_946_88846" x1="56.3415" y1="73.1707" x2="56.3415" y2="132.195" gradientUnits="userSpaceOnUse">
<stop stop-color="#201721"/>
<stop offset="1" stop-color="#2B1F2C"/>
</linearGradient>
<linearGradient id="paint4_linear_946_88846" x1="34.6341" y1="54.8781" x2="34.7924" y2="119.952" gradientUnits="userSpaceOnUse">
<stop stop-color="#3FEEC4"/>
<stop offset="1" stop-color="#43BBFF"/>
</linearGradient>
<linearGradient id="paint5_linear_946_88846" x1="84.3902" y1="54.1464" x2="84.5521" y2="119.951" gradientUnits="userSpaceOnUse">
<stop stop-color="#3FEEC4"/>
<stop offset="1" stop-color="#43BBFF"/>
</linearGradient>
<clipPath id="clip0_946_88846">
<rect width="120" height="120" fill="white"/>
</clipPath>
</defs>
</svg>
