<svg width="120" height="120" viewBox="0 0 120 120" fill="none" xmlns="http://www.w3.org/2000/svg">
<g clip-path="url(#clip0_946_88824)">
<g filter="url(#filter0_iii_946_88824)">
<path d="M0 56.0976C0 25.1157 25.1157 0 56.0976 0H61.9512C94.0107 0 120 25.9893 120 58.0488V61.9512C120 94.0107 94.0107 120 61.9512 120H60C26.8629 120 0 93.1371 0 60V56.0976Z" fill="url(#paint0_radial_946_88824)"/>
</g>
<g filter="url(#filter1_f_946_88824)">
<circle cx="29.0244" cy="64.6342" r="17.3171" fill="#FF4242"/>
</g>
<g filter="url(#filter2_f_946_88824)">
<circle cx="91.9512" cy="64.6342" r="17.3171" fill="#FF4242"/>
</g>
<g filter="url(#filter3_ii_946_88824)">
<path d="M116.607 7.09626C116.009 5.70761 115.148 4.44922 114.07 3.39155C112.992 2.33072 111.721 1.48769 110.325 0.908313C108.879 0.305147 107.327 -0.00358743 105.76 3.14492e-05C103.562 3.14492e-05 101.418 0.604061 99.5544 1.74501C99.1086 2.01794 98.6851 2.31772 98.2838 2.64434C97.8826 2.31772 97.4591 2.01794 97.0132 1.74501C95.1497 0.604061 93.0053 3.14492e-05 90.8074 3.14492e-05C89.2248 3.14492e-05 87.6911 0.304284 86.2422 0.908313C84.8423 1.48997 83.5807 2.32666 82.4973 3.39155C81.4184 4.44803 80.5566 5.70671 79.9606 7.09626C79.3409 8.54146 79.0244 10.0761 79.0244 11.6556C79.0244 13.1455 79.3275 14.6981 79.9294 16.2775C80.4332 17.5974 81.1554 18.9666 82.0783 20.3491C83.5405 22.537 85.5512 24.8189 88.0478 27.1322C92.185 30.9666 96.2821 33.6154 96.456 33.7228L97.5126 34.4029C97.9807 34.7027 98.5825 34.7027 99.0506 34.4029L100.107 33.7228C100.281 33.6109 104.374 30.9666 108.515 27.1322C111.012 24.8189 113.023 22.537 114.485 20.3491C115.408 18.9666 116.134 17.5974 116.634 16.2775C117.236 14.6981 117.539 13.1455 117.539 11.6556C117.543 10.0761 117.227 8.54146 116.607 7.09626V7.09626Z" fill="#FA043F"/>
</g>
<g filter="url(#filter4_f_946_88824)">
<ellipse cx="106.808" cy="18.8772" rx="5.12349" ry="12.367" transform="rotate(31.4444 106.808 18.8772)" fill="white" fill-opacity="0.81"/>
</g>
<g filter="url(#filter5_ii_946_88824)">
<path d="M106.098 95.3542C105.628 94.2587 104.952 93.266 104.106 92.4316C103.259 91.5948 102.26 90.9297 101.165 90.4727C100.029 89.9968 98.8102 89.7533 97.58 89.7561C95.8541 89.7561 94.1701 90.2326 92.7068 91.1327C92.3567 91.348 92.0241 91.5845 91.709 91.8422C91.394 91.5845 91.0614 91.348 90.7113 91.1327C89.2479 90.2326 87.564 89.7561 85.8381 89.7561C84.5953 89.7561 83.391 89.9961 82.2532 90.4727C81.154 90.9315 80.1632 91.5916 79.3125 92.4316C78.4653 93.2651 77.7885 94.258 77.3205 95.3542C76.8339 96.4943 76.5854 97.705 76.5854 98.9509C76.5854 100.126 76.8234 101.351 77.296 102.597C77.6916 103.638 78.2588 104.718 78.9834 105.809C80.1317 107.535 81.7106 109.335 83.6711 111.16C86.9199 114.185 90.1372 116.275 90.2737 116.359L91.1034 116.896C91.471 117.132 91.9436 117.132 92.3112 116.896L93.1409 116.359C93.2774 116.271 96.4912 114.185 99.7435 111.16C101.704 109.335 103.283 107.535 104.431 105.809C105.156 104.718 105.726 103.638 106.119 102.597C106.591 101.351 106.829 100.126 106.829 98.9509C106.833 97.705 106.584 96.4943 106.098 95.3542V95.3542Z" fill="#FA043F"/>
</g>
<g filter="url(#filter6_f_946_88824)">
<ellipse rx="4.02833" ry="9.74394" transform="matrix(0.852076 0.523418 -0.519926 0.854211 98.4024 104.648)" fill="white" fill-opacity="0.81"/>
</g>
<g filter="url(#filter7_d_946_88824)">
<g filter="url(#filter8_i_946_88824)">
<circle r="17.3171" transform="matrix(0.965926 -0.258819 -0.258819 -0.965926 39.2685 42.683)" fill="white"/>
</g>
<g filter="url(#filter9_i_946_88824)">
<ellipse rx="14.6341" ry="14.878" transform="matrix(0.965926 -0.258819 -0.258819 -0.965926 38.9094 45.1762)" fill="#141414"/>
</g>
<g filter="url(#filter10_i_946_88824)">
<path fill-rule="evenodd" clip-rule="evenodd" d="M44.5096 50.9983C42.5579 51.5212 40.5518 50.363 40.0288 48.4113C39.86 47.7811 39.8664 47.1452 40.0182 46.5554C39.1202 47.8939 37.7522 48.9256 36.0729 49.3755C32.3894 50.3625 28.6031 48.1765 27.6161 44.493C26.6291 40.8094 28.8151 37.0232 32.4987 36.0362C36.1822 35.0492 39.9685 37.2351 40.9555 40.9187C41.3417 42.36 41.2421 43.8169 40.7571 45.1158C41.2234 44.5579 41.8601 44.133 42.6158 43.9305C44.5675 43.4076 46.5736 44.5658 47.0966 46.5175C47.6195 48.4692 46.4613 50.4753 44.5096 50.9983Z" fill="#ECECEC"/>
</g>
</g>
<g filter="url(#filter11_d_946_88824)">
<g filter="url(#filter12_i_946_88824)">
<circle r="17.3171" transform="matrix(0.965926 -0.258819 -0.258819 -0.965926 81.2091 42.683)" fill="white"/>
</g>
<g filter="url(#filter13_i_946_88824)">
<ellipse rx="14.6341" ry="14.878" transform="matrix(0.965926 -0.258819 -0.258819 -0.965926 80.8499 45.1762)" fill="#141414"/>
</g>
<g filter="url(#filter14_i_946_88824)">
<path fill-rule="evenodd" clip-rule="evenodd" d="M86.4501 50.9983C84.4984 51.5212 82.4923 50.363 81.9694 48.4113C81.8005 47.7811 81.8069 47.1452 81.9588 46.5554C81.0607 47.8939 79.6927 48.9256 78.0135 49.3755C74.3299 50.3625 70.5437 48.1765 69.5567 44.493C68.5696 40.8094 70.7556 37.0232 74.4392 36.0362C78.1228 35.0492 81.909 37.2351 82.896 40.9187C83.2822 42.36 83.1826 43.8169 82.6977 45.1158C83.1639 44.5579 83.8006 44.133 84.5563 43.9305C86.508 43.4076 88.5142 44.5658 89.0371 46.5175C89.5601 48.4692 88.4018 50.4753 86.4501 50.9983Z" fill="#ECECEC"/>
</g>
</g>
<g filter="url(#filter15_diiii_946_88824)">
<mask id="path-14-inside-1_946_88824" fill="white">
<path d="M38.7978 65.1715C36.8144 66.4273 36.2834 69.1161 37.9154 70.8037C40.2878 73.2569 43.0909 75.3256 46.2132 76.9148C50.6581 79.1772 55.6189 80.4013 60.6752 80.4834C65.7316 80.5655 70.7345 79.5031 75.2602 77.3863C78.443 75.8976 81.3238 73.9182 83.7872 71.5398C85.4742 69.9109 85.0371 67.208 83.0993 65.8873V65.8873C81.3214 64.6756 78.9297 65.0906 77.3394 66.5398C75.6361 68.0918 73.6824 69.3939 71.5431 70.3945C68.2156 71.9509 64.5371 72.732 60.8193 72.6716C57.1016 72.6113 53.4541 71.7112 50.186 70.0478C48.0917 68.9818 46.1928 67.6225 44.5514 66.0228C43.0056 64.5163 40.6216 64.0169 38.7978 65.1715V65.1715Z"/>
</mask>
<path d="M38.7978 65.1715C36.8144 66.4273 36.2834 69.1161 37.9154 70.8037C40.2878 73.2569 43.0909 75.3256 46.2132 76.9148C50.6581 79.1772 55.6189 80.4013 60.6752 80.4834C65.7316 80.5655 70.7345 79.5031 75.2602 77.3863C78.443 75.8976 81.3238 73.9182 83.7872 71.5398C85.4742 69.9109 85.0371 67.208 83.0993 65.8873V65.8873C81.3214 64.6756 78.9297 65.0906 77.3394 66.5398C75.6361 68.0918 73.6824 69.3939 71.5431 70.3945C68.2156 71.9509 64.5371 72.732 60.8193 72.6716C57.1016 72.6113 53.4541 71.7112 50.186 70.0478C48.0917 68.9818 46.1928 67.6225 44.5514 66.0228C43.0056 64.5163 40.6216 64.0169 38.7978 65.1715V65.1715Z" stroke="url(#paint1_linear_946_88824)" stroke-width="10.7317" stroke-linejoin="round" mask="url(#path-14-inside-1_946_88824)"/>
</g>
<g filter="url(#filter16_ii_946_88824)">
<path d="M1.15657 85.8702C1.89829 84.1487 2.96779 82.5887 4.30519 81.2776C5.64359 79.9625 7.22161 78.9174 8.95342 78.1992C10.7492 77.4515 12.6753 77.0687 14.6198 77.0732C17.3479 77.0732 20.0096 77.822 22.3226 79.2364C22.876 79.5748 23.4017 79.9464 23.8997 80.3513C24.3977 79.9464 24.9234 79.5748 25.4768 79.2364C27.7898 77.822 30.4515 77.0732 33.1795 77.0732C35.144 77.0732 37.0475 77.4504 38.846 78.1992C40.5835 78.9202 42.1495 79.9575 43.4942 81.2776C44.8333 82.5873 45.9031 84.1476 46.6428 85.8702C47.412 87.6617 47.8049 89.5642 47.8049 91.5222C47.8049 93.3692 47.4286 95.2939 46.6816 97.2519C46.0563 98.8881 45.1598 100.585 44.0144 102.299C42.1993 105.012 39.7037 107.84 36.6049 110.708C31.4697 115.461 26.3843 118.745 26.1685 118.878L24.857 119.721C24.276 120.093 23.5289 120.093 22.9479 119.721L21.6364 118.878C21.4206 118.74 16.3408 115.461 11.2001 110.708C8.10124 107.84 5.60559 105.012 3.79056 102.299C2.64511 100.585 1.74313 98.8881 1.12337 97.2519C0.376331 95.2939 4.28107e-05 93.3692 4.26493e-05 91.5222C-0.00549113 89.5642 0.387396 87.6617 1.15657 85.8702V85.8702Z" fill="#FA043F"/>
</g>
<g filter="url(#filter17_f_946_88824)">
<ellipse rx="6.3572" ry="15.3362" transform="matrix(-0.853437 0.521197 0.522146 0.852856 13.3199 100.475)" fill="white" fill-opacity="0.81"/>
</g>
</g>
<defs>
<filter id="filter0_iii_946_88824" x="-5.36585" y="-8.78049" width="135.61" height="136.585" filterUnits="userSpaceOnUse" color-interpolation-filters="sRGB">
<feFlood flood-opacity="0" result="BackgroundImageFix"/>
<feBlend mode="normal" in="SourceGraphic" in2="BackgroundImageFix" result="shape"/>
<feColorMatrix in="SourceAlpha" type="matrix" values="0 0 0 0 0 0 0 0 0 0 0 0 0 0 0 0 0 0 127 0" result="hardAlpha"/>
<feMorphology radius="3.90244" operator="erode" in="SourceAlpha" result="effect1_innerShadow_946_88824"/>
<feOffset dx="10.2439" dy="6.34146"/>
<feGaussianBlur stdDeviation="11.7073"/>
<feComposite in2="hardAlpha" operator="arithmetic" k2="-1" k3="1"/>
<feColorMatrix type="matrix" values="0 0 0 0 0.682806 0 0 0 0 0.0652778 0 0 0 0 0.783333 0 0 0 0.14 0"/>
<feBlend mode="normal" in2="shape" result="effect1_innerShadow_946_88824"/>
<feColorMatrix in="SourceAlpha" type="matrix" values="0 0 0 0 0 0 0 0 0 0 0 0 0 0 0 0 0 0 127 0" result="hardAlpha"/>
<feOffset dy="-8.78049"/>
<feGaussianBlur stdDeviation="7.56098"/>
<feComposite in2="hardAlpha" operator="arithmetic" k2="-1" k3="1"/>
<feColorMatrix type="matrix" values="0 0 0 0 0.943639 0 0 0 0 0.223611 0 0 0 0 0.958333 0 0 0 0.44 0"/>
<feBlend mode="normal" in2="effect1_innerShadow_946_88824" result="effect2_innerShadow_946_88824"/>
<feColorMatrix in="SourceAlpha" type="matrix" values="0 0 0 0 0 0 0 0 0 0 0 0 0 0 0 0 0 0 127 0" result="hardAlpha"/>
<feOffset dx="-5.36585" dy="7.80488"/>
<feGaussianBlur stdDeviation="7.56098"/>
<feComposite in2="hardAlpha" operator="arithmetic" k2="-1" k3="1"/>
<feColorMatrix type="matrix" values="0 0 0 0 1 0 0 0 0 1 0 0 0 0 1 0 0 0 0.59 0"/>
<feBlend mode="normal" in2="effect2_innerShadow_946_88824" result="effect3_innerShadow_946_88824"/>
</filter>
<filter id="filter1_f_946_88824" x="-12.8588" y="22.751" width="83.7663" height="83.7663" filterUnits="userSpaceOnUse" color-interpolation-filters="sRGB">
<feFlood flood-opacity="0" result="BackgroundImageFix"/>
<feBlend mode="normal" in="SourceGraphic" in2="BackgroundImageFix" result="shape"/>
<feGaussianBlur stdDeviation="12.283" result="effect1_foregroundBlur_946_88824"/>
</filter>
<filter id="filter2_f_946_88824" x="50.0681" y="22.751" width="83.7663" height="83.7663" filterUnits="userSpaceOnUse" color-interpolation-filters="sRGB">
<feFlood flood-opacity="0" result="BackgroundImageFix"/>
<feBlend mode="normal" in="SourceGraphic" in2="BackgroundImageFix" result="shape"/>
<feGaussianBlur stdDeviation="12.283" result="effect1_foregroundBlur_946_88824"/>
</filter>
<filter id="filter3_ii_946_88824" x="77.9644" y="-3.53344" width="40.2812" height="40.9879" filterUnits="userSpaceOnUse" color-interpolation-filters="sRGB">
<feFlood flood-opacity="0" result="BackgroundImageFix"/>
<feBlend mode="normal" in="SourceGraphic" in2="BackgroundImageFix" result="shape"/>
<feColorMatrix in="SourceAlpha" type="matrix" values="0 0 0 0 0 0 0 0 0 0 0 0 0 0 0 0 0 0 127 0" result="hardAlpha"/>
<feOffset dx="0.706688" dy="-3.53344"/>
<feGaussianBlur stdDeviation="4.06346"/>
<feComposite in2="hardAlpha" operator="arithmetic" k2="-1" k3="1"/>
<feColorMatrix type="matrix" values="0 0 0 0 0.796575 0 0 0 0 0.16125 0 0 0 0 0.9 0 0 0 0.6 0"/>
<feBlend mode="normal" in2="shape" result="effect1_innerShadow_946_88824"/>
<feColorMatrix in="SourceAlpha" type="matrix" values="0 0 0 0 0 0 0 0 0 0 0 0 0 0 0 0 0 0 127 0" result="hardAlpha"/>
<feOffset dx="-1.06003" dy="2.82675"/>
<feGaussianBlur stdDeviation="2.12006"/>
<feComposite in2="hardAlpha" operator="arithmetic" k2="-1" k3="1"/>
<feColorMatrix type="matrix" values="0 0 0 0 1 0 0 0 0 1 0 0 0 0 1 0 0 0 0.6 0"/>
<feBlend mode="normal" in2="effect1_innerShadow_946_88824" result="effect2_innerShadow_946_88824"/>
</filter>
<filter id="filter4_f_946_88824" x="87.7069" y="-3.31659" width="38.2013" height="44.3875" filterUnits="userSpaceOnUse" color-interpolation-filters="sRGB">
<feFlood flood-opacity="0" result="BackgroundImageFix"/>
<feBlend mode="normal" in="SourceGraphic" in2="BackgroundImageFix" result="shape"/>
<feGaussianBlur stdDeviation="5.6535" result="effect1_foregroundBlur_946_88824"/>
</filter>
<filter id="filter5_ii_946_88824" x="75.5253" y="86.2227" width="32.0106" height="33.6773" filterUnits="userSpaceOnUse" color-interpolation-filters="sRGB">
<feFlood flood-opacity="0" result="BackgroundImageFix"/>
<feBlend mode="normal" in="SourceGraphic" in2="BackgroundImageFix" result="shape"/>
<feColorMatrix in="SourceAlpha" type="matrix" values="0 0 0 0 0 0 0 0 0 0 0 0 0 0 0 0 0 0 127 0" result="hardAlpha"/>
<feOffset dx="0.706688" dy="-3.53344"/>
<feGaussianBlur stdDeviation="4.06346"/>
<feComposite in2="hardAlpha" operator="arithmetic" k2="-1" k3="1"/>
<feColorMatrix type="matrix" values="0 0 0 0 0.796575 0 0 0 0 0.16125 0 0 0 0 0.9 0 0 0 0.6 0"/>
<feBlend mode="normal" in2="shape" result="effect1_innerShadow_946_88824"/>
<feColorMatrix in="SourceAlpha" type="matrix" values="0 0 0 0 0 0 0 0 0 0 0 0 0 0 0 0 0 0 127 0" result="hardAlpha"/>
<feOffset dx="-1.06003" dy="2.82675"/>
<feGaussianBlur stdDeviation="2.12006"/>
<feComposite in2="hardAlpha" operator="arithmetic" k2="-1" k3="1"/>
<feColorMatrix type="matrix" values="0 0 0 0 1 0 0 0 0 1 0 0 0 0 1 0 0 0 0.6 0"/>
<feBlend mode="normal" in2="effect1_innerShadow_946_88824" result="effect2_innerShadow_946_88824"/>
</filter>
<filter id="filter6_f_946_88824" x="80.9753" y="84.7526" width="34.8541" height="39.7907" filterUnits="userSpaceOnUse" color-interpolation-filters="sRGB">
<feFlood flood-opacity="0" result="BackgroundImageFix"/>
<feBlend mode="normal" in="SourceGraphic" in2="BackgroundImageFix" result="shape"/>
<feGaussianBlur stdDeviation="5.6535" result="effect1_foregroundBlur_946_88824"/>
</filter>
<filter id="filter7_d_946_88824" x="11.059" y="15.9472" width="56.419" height="56.419" filterUnits="userSpaceOnUse" color-interpolation-filters="sRGB">
<feFlood flood-opacity="0" result="BackgroundImageFix"/>
<feColorMatrix in="SourceAlpha" type="matrix" values="0 0 0 0 0 0 0 0 0 0 0 0 0 0 0 0 0 0 127 0" result="hardAlpha"/>
<feOffset dy="1.47379"/>
<feGaussianBlur stdDeviation="3.50026"/>
<feColorMatrix type="matrix" values="0 0 0 0 0 0 0 0 0 0 0 0 0 0 0 0 0 0 0.25 0"/>
<feBlend mode="normal" in2="BackgroundImageFix" result="effect1_dropShadow_946_88824"/>
<feBlend mode="normal" in="SourceGraphic" in2="effect1_dropShadow_946_88824" result="shape"/>
</filter>
<filter id="filter8_i_946_88824" x="21.9471" y="23.6299" width="34.6428" height="36.3744" filterUnits="userSpaceOnUse" color-interpolation-filters="sRGB">
<feFlood flood-opacity="0" result="BackgroundImageFix"/>
<feBlend mode="normal" in="SourceGraphic" in2="BackgroundImageFix" result="shape"/>
<feColorMatrix in="SourceAlpha" type="matrix" values="0 0 0 0 0 0 0 0 0 0 0 0 0 0 0 0 0 0 127 0" result="hardAlpha"/>
<feOffset dy="-1.73171"/>
<feGaussianBlur stdDeviation="4.32927"/>
<feComposite in2="hardAlpha" operator="arithmetic" k2="-1" k3="1"/>
<feColorMatrix type="matrix" values="0 0 0 0 0 0 0 0 0 0 0 0 0 0 0 0 0 0 0.25 0"/>
<feBlend mode="normal" in2="shape" result="effect1_innerShadow_946_88824"/>
</filter>
<filter id="filter9_i_946_88824" x="24.2551" y="28.579" width="29.3086" height="31.4627" filterUnits="userSpaceOnUse" color-interpolation-filters="sRGB">
<feFlood flood-opacity="0" result="BackgroundImageFix"/>
<feBlend mode="normal" in="SourceGraphic" in2="BackgroundImageFix" result="shape"/>
<feColorMatrix in="SourceAlpha" type="matrix" values="0 0 0 0 0 0 0 0 0 0 0 0 0 0 0 0 0 0 127 0" result="hardAlpha"/>
<feOffset dy="-1.73171"/>
<feGaussianBlur stdDeviation="4.32927"/>
<feComposite in2="hardAlpha" operator="arithmetic" k2="-1" k3="1"/>
<feColorMatrix type="matrix" values="0 0 0 0 0 0 0 0 0 0 0 0 0 0 0 0 0 0 0.25 0"/>
<feBlend mode="normal" in2="shape" result="effect1_innerShadow_946_88824"/>
</filter>
<filter id="filter10_i_946_88824" x="27.3792" y="35.7991" width="19.843" height="15.3247" filterUnits="userSpaceOnUse" color-interpolation-filters="sRGB">
<feFlood flood-opacity="0" result="BackgroundImageFix"/>
<feBlend mode="normal" in="SourceGraphic" in2="BackgroundImageFix" result="shape"/>
<feColorMatrix in="SourceAlpha" type="matrix" values="0 0 0 0 0 0 0 0 0 0 0 0 0 0 0 0 0 0 127 0" result="hardAlpha"/>
<feMorphology radius="15.2197" operator="dilate" in="SourceAlpha" result="effect1_innerShadow_946_88824"/>
<feOffset dy="-2.92683"/>
<feGaussianBlur stdDeviation="5.95553"/>
<feComposite in2="hardAlpha" operator="arithmetic" k2="-1" k3="1"/>
<feColorMatrix type="matrix" values="0 0 0 0 0.958333 0 0 0 0 0.958333 0 0 0 0 0.958333 0 0 0 0.28 0"/>
<feBlend mode="normal" in2="shape" result="effect1_innerShadow_946_88824"/>
</filter>
<filter id="filter11_d_946_88824" x="52.9995" y="15.9472" width="56.419" height="56.419" filterUnits="userSpaceOnUse" color-interpolation-filters="sRGB">
<feFlood flood-opacity="0" result="BackgroundImageFix"/>
<feColorMatrix in="SourceAlpha" type="matrix" values="0 0 0 0 0 0 0 0 0 0 0 0 0 0 0 0 0 0 127 0" result="hardAlpha"/>
<feOffset dy="1.47379"/>
<feGaussianBlur stdDeviation="3.50026"/>
<feColorMatrix type="matrix" values="0 0 0 0 0 0 0 0 0 0 0 0 0 0 0 0 0 0 0.25 0"/>
<feBlend mode="normal" in2="BackgroundImageFix" result="effect1_dropShadow_946_88824"/>
<feBlend mode="normal" in="SourceGraphic" in2="effect1_dropShadow_946_88824" result="shape"/>
</filter>
<filter id="filter12_i_946_88824" x="63.8877" y="23.6299" width="34.6428" height="36.3744" filterUnits="userSpaceOnUse" color-interpolation-filters="sRGB">
<feFlood flood-opacity="0" result="BackgroundImageFix"/>
<feBlend mode="normal" in="SourceGraphic" in2="BackgroundImageFix" result="shape"/>
<feColorMatrix in="SourceAlpha" type="matrix" values="0 0 0 0 0 0 0 0 0 0 0 0 0 0 0 0 0 0 127 0" result="hardAlpha"/>
<feOffset dy="-1.73171"/>
<feGaussianBlur stdDeviation="4.32927"/>
<feComposite in2="hardAlpha" operator="arithmetic" k2="-1" k3="1"/>
<feColorMatrix type="matrix" values="0 0 0 0 0 0 0 0 0 0 0 0 0 0 0 0 0 0 0.25 0"/>
<feBlend mode="normal" in2="shape" result="effect1_innerShadow_946_88824"/>
</filter>
<filter id="filter13_i_946_88824" x="66.1956" y="28.579" width="29.3086" height="31.4627" filterUnits="userSpaceOnUse" color-interpolation-filters="sRGB">
<feFlood flood-opacity="0" result="BackgroundImageFix"/>
<feBlend mode="normal" in="SourceGraphic" in2="BackgroundImageFix" result="shape"/>
<feColorMatrix in="SourceAlpha" type="matrix" values="0 0 0 0 0 0 0 0 0 0 0 0 0 0 0 0 0 0 127 0" result="hardAlpha"/>
<feOffset dy="-1.73171"/>
<feGaussianBlur stdDeviation="4.32927"/>
<feComposite in2="hardAlpha" operator="arithmetic" k2="-1" k3="1"/>
<feColorMatrix type="matrix" values="0 0 0 0 0 0 0 0 0 0 0 0 0 0 0 0 0 0 0.25 0"/>
<feBlend mode="normal" in2="shape" result="effect1_innerShadow_946_88824"/>
</filter>
<filter id="filter14_i_946_88824" x="69.3196" y="35.7991" width="19.843" height="15.3247" filterUnits="userSpaceOnUse" color-interpolation-filters="sRGB">
<feFlood flood-opacity="0" result="BackgroundImageFix"/>
<feBlend mode="normal" in="SourceGraphic" in2="BackgroundImageFix" result="shape"/>
<feColorMatrix in="SourceAlpha" type="matrix" values="0 0 0 0 0 0 0 0 0 0 0 0 0 0 0 0 0 0 127 0" result="hardAlpha"/>
<feMorphology radius="15.2197" operator="dilate" in="SourceAlpha" result="effect1_innerShadow_946_88824"/>
<feOffset dy="-2.92683"/>
<feGaussianBlur stdDeviation="5.95553"/>
<feComposite in2="hardAlpha" operator="arithmetic" k2="-1" k3="1"/>
<feColorMatrix type="matrix" values="0 0 0 0 0.958333 0 0 0 0 0.958333 0 0 0 0 0.958333 0 0 0 0.28 0"/>
<feBlend mode="normal" in2="shape" result="effect1_innerShadow_946_88824"/>
</filter>
<filter id="filter15_diiii_946_88824" x="20.6895" y="56.4061" width="80.4056" height="48.4719" filterUnits="userSpaceOnUse" color-interpolation-filters="sRGB">
<feFlood flood-opacity="0" result="BackgroundImageFix"/>
<feColorMatrix in="SourceAlpha" type="matrix" values="0 0 0 0 0 0 0 0 0 0 0 0 0 0 0 0 0 0 127 0" result="hardAlpha"/>
<feOffset dy="8.13008"/>
<feGaussianBlur stdDeviation="8.13008"/>
<feColorMatrix type="matrix" values="0 0 0 0 0.0298758 0 0 0 0 0.0216858 0 0 0 0 0.0308333 0 0 0 0.24 0"/>
<feBlend mode="normal" in2="BackgroundImageFix" result="effect1_dropShadow_946_88824"/>
<feBlend mode="normal" in="SourceGraphic" in2="effect1_dropShadow_946_88824" result="shape"/>
<feColorMatrix in="SourceAlpha" type="matrix" values="0 0 0 0 0 0 0 0 0 0 0 0 0 0 0 0 0 0 127 0" result="hardAlpha"/>
<feOffset dy="2.52936"/>
<feGaussianBlur stdDeviation="1.26468"/>
<feComposite in2="hardAlpha" operator="arithmetic" k2="-1" k3="1"/>
<feColorMatrix type="matrix" values="0 0 0 0 0.17328 0 0 0 0 0.125777 0 0 0 0 0.178833 0 0 0 1 0"/>
<feBlend mode="normal" in2="shape" result="effect2_innerShadow_946_88824"/>
<feColorMatrix in="SourceAlpha" type="matrix" values="0 0 0 0 0 0 0 0 0 0 0 0 0 0 0 0 0 0 127 0" result="hardAlpha"/>
<feOffset dy="-1.26468"/>
<feGaussianBlur stdDeviation="0.63234"/>
<feComposite in2="hardAlpha" operator="arithmetic" k2="-1" k3="1"/>
<feColorMatrix type="matrix" values="0 0 0 0 0.119503 0 0 0 0 0.086743 0 0 0 0 0.123333 0 0 0 1 0"/>
<feBlend mode="normal" in2="effect2_innerShadow_946_88824" result="effect3_innerShadow_946_88824"/>
<feColorMatrix in="SourceAlpha" type="matrix" values="0 0 0 0 0 0 0 0 0 0 0 0 0 0 0 0 0 0 127 0" result="hardAlpha"/>
<feMorphology radius="12.9024" operator="dilate" in="SourceAlpha" result="effect4_innerShadow_946_88824"/>
<feOffset dx="4.4878" dy="-4.39024"/>
<feGaussianBlur stdDeviation="5.04878"/>
<feComposite in2="hardAlpha" operator="arithmetic" k2="-1" k3="1"/>
<feColorMatrix type="matrix" values="0 0 0 0 0.462111 0 0 0 0 0.203767 0 0 0 0 0.504167 0 0 0 0.35 0"/>
<feBlend mode="normal" in2="effect3_innerShadow_946_88824" result="effect4_innerShadow_946_88824"/>
<feColorMatrix in="SourceAlpha" type="matrix" values="0 0 0 0 0 0 0 0 0 0 0 0 0 0 0 0 0 0 127 0" result="hardAlpha"/>
<feMorphology radius="12.9024" operator="dilate" in="SourceAlpha" result="effect5_innerShadow_946_88824"/>
<feOffset dx="4.4878" dy="-4.39024"/>
<feGaussianBlur stdDeviation="5.04878"/>
<feComposite in2="hardAlpha" operator="arithmetic" k2="-1" k3="1"/>
<feColorMatrix type="matrix" values="0 0 0 0 0.462111 0 0 0 0 0.203767 0 0 0 0 0.504167 0 0 0 0.35 0"/>
<feBlend mode="normal" in2="effect4_innerShadow_946_88824" result="effect5_innerShadow_946_88824"/>
</filter>
<filter id="filter16_ii_946_88824" x="-0.986273" y="73.7857" width="49.4486" height="48.8444" filterUnits="userSpaceOnUse" color-interpolation-filters="sRGB">
<feFlood flood-opacity="0" result="BackgroundImageFix"/>
<feBlend mode="normal" in="SourceGraphic" in2="BackgroundImageFix" result="shape"/>
<feColorMatrix in="SourceAlpha" type="matrix" values="0 0 0 0 0 0 0 0 0 0 0 0 0 0 0 0 0 0 127 0" result="hardAlpha"/>
<feOffset dx="0.657505" dy="-3.28753"/>
<feGaussianBlur stdDeviation="3.78065"/>
<feComposite in2="hardAlpha" operator="arithmetic" k2="-1" k3="1"/>
<feColorMatrix type="matrix" values="0 0 0 0 0.796575 0 0 0 0 0.16125 0 0 0 0 0.9 0 0 0 0.6 0"/>
<feBlend mode="normal" in2="shape" result="effect1_innerShadow_946_88824"/>
<feColorMatrix in="SourceAlpha" type="matrix" values="0 0 0 0 0 0 0 0 0 0 0 0 0 0 0 0 0 0 127 0" result="hardAlpha"/>
<feOffset dx="-0.986258" dy="2.63002"/>
<feGaussianBlur stdDeviation="1.97252"/>
<feComposite in2="hardAlpha" operator="arithmetic" k2="-1" k3="1"/>
<feColorMatrix type="matrix" values="0 0 0 0 1 0 0 0 0 1 0 0 0 0 1 0 0 0 0.6 0"/>
<feBlend mode="normal" in2="effect1_innerShadow_946_88824" result="effect2_innerShadow_946_88824"/>
</filter>
<filter id="filter17_f_946_88824" x="-6.87377" y="76.4585" width="40.3873" height="48.0321" filterUnits="userSpaceOnUse" color-interpolation-filters="sRGB">
<feFlood flood-opacity="0" result="BackgroundImageFix"/>
<feBlend mode="normal" in="SourceGraphic" in2="BackgroundImageFix" result="shape"/>
<feGaussianBlur stdDeviation="5.26004" result="effect1_foregroundBlur_946_88824"/>
</filter>
<radialGradient id="paint0_radial_946_88824" cx="0" cy="0" r="1" gradientUnits="userSpaceOnUse" gradientTransform="translate(53.1707 7.80488) rotate(86.5167) scale(112.403)">
<stop stop-color="#FFBB0C"/>
<stop offset="1" stop-color="#FFC907"/>
</radialGradient>
<linearGradient id="paint1_linear_946_88824" x1="61.2197" y1="21.4634" x2="61.2197" y2="80.4878" gradientUnits="userSpaceOnUse">
<stop stop-color="#201721"/>
<stop offset="1" stop-color="#2B1F2C"/>
</linearGradient>
<clipPath id="clip0_946_88824">
<rect width="120" height="120" fill="white"/>
</clipPath>
</defs>
</svg>
