<svg width="120" height="120" viewBox="0 0 120 120" fill="none" xmlns="http://www.w3.org/2000/svg">
<g filter="url(#filter0_iii_946_88809)">
<path d="M0 56.0976C0 25.1157 25.1157 0 56.0976 0H61.9512C94.0107 0 120 25.9893 120 58.0488V61.9512C120 94.0107 94.0107 120 61.9512 120H60C26.8629 120 0 93.1371 0 60V56.0976Z" fill="url(#paint0_radial_946_88809)"/>
</g>
<mask id="mask0_946_88809" style="mask-type:alpha" maskUnits="userSpaceOnUse" x="24" y="67" width="71" height="36">
<path d="M47.1024 67.0732C44.2905 67.0732 42.8845 67.0732 39.3046 69.0244C35.1947 71.2644 30.4463 80.8042 31.1368 85.4337C31.7383 89.4663 30.7583 88.1694 31.1503 88.6881C32.1417 90.0001 33.2276 91.2495 34.4037 92.4255C41.1276 99.1494 50.2471 102.927 59.7561 102.927C69.2651 102.927 78.3846 99.1494 85.1085 92.4256C86.6307 90.9034 88.0018 89.2584 89.2124 87.5139C89.2264 87.4938 89.1914 87.5442 89.628 83.8199C90.139 79.4617 85.6604 70.9025 81.7885 68.8377C78.4798 67.0732 76.9398 67.0732 73.8598 67.0732L59.7561 67.0732L47.1024 67.0732Z" fill="url(#paint1_linear_946_88809)"/>
</mask>
<g mask="url(#mask0_946_88809)">
<g filter="url(#filter1_i_946_88809)">
<path d="M47.1024 67.0732C44.2905 67.0732 42.8845 67.0732 39.3046 69.0244C35.1947 71.2644 30.4463 80.8042 31.1368 85.4337C31.7383 89.4663 30.7583 88.1694 31.1503 88.6881C32.1417 90.0001 33.2276 91.2495 34.4037 92.4255C41.1276 99.1494 50.2471 102.927 59.7561 102.927C69.2651 102.927 78.3846 99.1494 85.1085 92.4256C86.6307 90.9034 88.0018 89.2584 89.2124 87.5139C89.2264 87.4938 89.1914 87.5442 89.628 83.8199C90.139 79.4617 85.6604 70.9025 81.7885 68.8377C78.4798 67.0732 76.9398 67.0732 73.8598 67.0732L59.7561 67.0732L47.1024 67.0732Z" fill="url(#paint2_linear_946_88809)"/>
</g>
<g filter="url(#filter2_i_946_88809)">
<path d="M25.1018 69.1122C23.7451 66.001 25.9313 62.439 29.3254 62.439H89.6446C90.3803 62.439 88.541 62.439 89.0381 62.5254C91.3472 62.9264 94.3369 68.0433 93.5525 70.2517C93.3837 70.7272 95.8905 66.2794 94.8877 68.0585V68.0585V68.0585C93.615 70.3167 93.4232 74.1463 90.8311 74.1463H27.2497C25.3693 74.1463 25.8535 70.8358 25.1018 69.1122V69.1122V69.1122Z" fill="white"/>
</g>
<g filter="url(#filter3_iii_946_88809)">
<ellipse cx="59.5122" cy="96.0976" rx="14.1463" ry="11.2195" fill="url(#paint3_radial_946_88809)"/>
</g>
</g>
<g filter="url(#filter4_i_946_88809)">
<path d="M34.6341 37.561C38.8618 39.6748 47.3658 44.6341 47.561 47.561C47.7561 50.4878 39.0244 55.935 34.6341 58.2927" stroke="#221725" stroke-width="7.80488" stroke-linecap="round" stroke-linejoin="round"/>
</g>
<g filter="url(#filter5_i_946_88809)">
<path d="M84.8845 37.561C80.6568 39.6748 72.1528 44.6341 71.9576 47.561C71.7625 50.4878 80.4942 55.935 84.8845 58.2927" stroke="#221725" stroke-width="7.80488" stroke-linecap="round" stroke-linejoin="round"/>
</g>
<defs>
<filter id="filter0_iii_946_88809" x="-5.36585" y="-8.78049" width="135.61" height="136.585" filterUnits="userSpaceOnUse" color-interpolation-filters="sRGB">
<feFlood flood-opacity="0" result="BackgroundImageFix"/>
<feBlend mode="normal" in="SourceGraphic" in2="BackgroundImageFix" result="shape"/>
<feColorMatrix in="SourceAlpha" type="matrix" values="0 0 0 0 0 0 0 0 0 0 0 0 0 0 0 0 0 0 127 0" result="hardAlpha"/>
<feMorphology radius="3.90244" operator="erode" in="SourceAlpha" result="effect1_innerShadow_946_88809"/>
<feOffset dx="10.2439" dy="6.34146"/>
<feGaussianBlur stdDeviation="11.7073"/>
<feComposite in2="hardAlpha" operator="arithmetic" k2="-1" k3="1"/>
<feColorMatrix type="matrix" values="0 0 0 0 0.682806 0 0 0 0 0.0652778 0 0 0 0 0.783333 0 0 0 0.14 0"/>
<feBlend mode="normal" in2="shape" result="effect1_innerShadow_946_88809"/>
<feColorMatrix in="SourceAlpha" type="matrix" values="0 0 0 0 0 0 0 0 0 0 0 0 0 0 0 0 0 0 127 0" result="hardAlpha"/>
<feOffset dy="-8.78049"/>
<feGaussianBlur stdDeviation="7.56098"/>
<feComposite in2="hardAlpha" operator="arithmetic" k2="-1" k3="1"/>
<feColorMatrix type="matrix" values="0 0 0 0 0.943639 0 0 0 0 0.223611 0 0 0 0 0.958333 0 0 0 0.44 0"/>
<feBlend mode="normal" in2="effect1_innerShadow_946_88809" result="effect2_innerShadow_946_88809"/>
<feColorMatrix in="SourceAlpha" type="matrix" values="0 0 0 0 0 0 0 0 0 0 0 0 0 0 0 0 0 0 127 0" result="hardAlpha"/>
<feOffset dx="-5.36585" dy="7.80488"/>
<feGaussianBlur stdDeviation="7.56098"/>
<feComposite in2="hardAlpha" operator="arithmetic" k2="-1" k3="1"/>
<feColorMatrix type="matrix" values="0 0 0 0 1 0 0 0 0 1 0 0 0 0 1 0 0 0 0.59 0"/>
<feBlend mode="normal" in2="effect2_innerShadow_946_88809" result="effect3_innerShadow_946_88809"/>
</filter>
<filter id="filter1_i_946_88809" x="24.983" y="67.0732" width="69.7012" height="37.8049" filterUnits="userSpaceOnUse" color-interpolation-filters="sRGB">
<feFlood flood-opacity="0" result="BackgroundImageFix"/>
<feBlend mode="normal" in="SourceGraphic" in2="BackgroundImageFix" result="shape"/>
<feColorMatrix in="SourceAlpha" type="matrix" values="0 0 0 0 0 0 0 0 0 0 0 0 0 0 0 0 0 0 127 0" result="hardAlpha"/>
<feOffset dy="1.95122"/>
<feGaussianBlur stdDeviation="3.90244"/>
<feComposite in2="hardAlpha" operator="arithmetic" k2="-1" k3="1"/>
<feColorMatrix type="matrix" values="0 0 0 0 0 0 0 0 0 0 0 0 0 0 0 0 0 0 0.25 0"/>
<feBlend mode="normal" in2="shape" result="effect1_innerShadow_946_88809"/>
</filter>
<filter id="filter2_i_946_88809" x="24.694" y="60.9756" width="70.4313" height="13.1707" filterUnits="userSpaceOnUse" color-interpolation-filters="sRGB">
<feFlood flood-opacity="0" result="BackgroundImageFix"/>
<feBlend mode="normal" in="SourceGraphic" in2="BackgroundImageFix" result="shape"/>
<feColorMatrix in="SourceAlpha" type="matrix" values="0 0 0 0 0 0 0 0 0 0 0 0 0 0 0 0 0 0 127 0" result="hardAlpha"/>
<feOffset dy="-1.46341"/>
<feGaussianBlur stdDeviation="3.90244"/>
<feComposite in2="hardAlpha" operator="arithmetic" k2="-1" k3="1"/>
<feColorMatrix type="matrix" values="0 0 0 0 0 0 0 0 0 0 0 0 0 0 0 0 0 0 0.47 0"/>
<feBlend mode="normal" in2="shape" result="effect1_innerShadow_946_88809"/>
</filter>
<filter id="filter3_iii_946_88809" x="43.9024" y="80" width="29.7561" height="29.2683" filterUnits="userSpaceOnUse" color-interpolation-filters="sRGB">
<feFlood flood-opacity="0" result="BackgroundImageFix"/>
<feBlend mode="normal" in="SourceGraphic" in2="BackgroundImageFix" result="shape"/>
<feColorMatrix in="SourceAlpha" type="matrix" values="0 0 0 0 0 0 0 0 0 0 0 0 0 0 0 0 0 0 127 0" result="hardAlpha"/>
<feOffset dy="1.95122"/>
<feGaussianBlur stdDeviation="2.43902"/>
<feComposite in2="hardAlpha" operator="arithmetic" k2="-1" k3="1"/>
<feColorMatrix type="matrix" values="0 0 0 0 0 0 0 0 0 0 0 0 0 0 0 0 0 0 0.25 0"/>
<feBlend mode="normal" in2="shape" result="effect1_innerShadow_946_88809"/>
<feColorMatrix in="SourceAlpha" type="matrix" values="0 0 0 0 0 0 0 0 0 0 0 0 0 0 0 0 0 0 127 0" result="hardAlpha"/>
<feOffset dx="-1.46341" dy="1.95122"/>
<feGaussianBlur stdDeviation="0.97561"/>
<feComposite in2="hardAlpha" operator="arithmetic" k2="-1" k3="1"/>
<feColorMatrix type="matrix" values="0 0 0 0 1 0 0 0 0 1 0 0 0 0 1 0 0 0 0.29 0"/>
<feBlend mode="normal" in2="effect1_innerShadow_946_88809" result="effect2_innerShadow_946_88809"/>
<feColorMatrix in="SourceAlpha" type="matrix" values="0 0 0 0 0 0 0 0 0 0 0 0 0 0 0 0 0 0 127 0" result="hardAlpha"/>
<feOffset dy="-4.87805"/>
<feGaussianBlur stdDeviation="2.43902"/>
<feComposite in2="hardAlpha" operator="arithmetic" k2="-1" k3="1"/>
<feColorMatrix type="matrix" values="0 0 0 0 0.828932 0 0 0 0 0.0596354 0 0 0 0 0.954167 0 0 0 0.6 0"/>
<feBlend mode="normal" in2="effect2_innerShadow_946_88809" result="effect3_innerShadow_946_88809"/>
</filter>
<filter id="filter4_i_946_88809" x="30.7308" y="33.6577" width="20.7359" height="28.5382" filterUnits="userSpaceOnUse" color-interpolation-filters="sRGB">
<feFlood flood-opacity="0" result="BackgroundImageFix"/>
<feBlend mode="normal" in="SourceGraphic" in2="BackgroundImageFix" result="shape"/>
<feColorMatrix in="SourceAlpha" type="matrix" values="0 0 0 0 0 0 0 0 0 0 0 0 0 0 0 0 0 0 127 0" result="hardAlpha"/>
<feMorphology radius="12.9024" operator="dilate" in="SourceAlpha" result="effect1_innerShadow_946_88809"/>
<feOffset dx="4.4878" dy="-4.39024"/>
<feGaussianBlur stdDeviation="5.04878"/>
<feComposite in2="hardAlpha" operator="arithmetic" k2="-1" k3="1"/>
<feColorMatrix type="matrix" values="0 0 0 0 0.462111 0 0 0 0 0.203767 0 0 0 0 0.504167 0 0 0 0.35 0"/>
<feBlend mode="normal" in2="shape" result="effect1_innerShadow_946_88809"/>
</filter>
<filter id="filter5_i_946_88809" x="68.0519" y="33.6577" width="20.7359" height="28.5382" filterUnits="userSpaceOnUse" color-interpolation-filters="sRGB">
<feFlood flood-opacity="0" result="BackgroundImageFix"/>
<feBlend mode="normal" in="SourceGraphic" in2="BackgroundImageFix" result="shape"/>
<feColorMatrix in="SourceAlpha" type="matrix" values="0 0 0 0 0 0 0 0 0 0 0 0 0 0 0 0 0 0 127 0" result="hardAlpha"/>
<feMorphology radius="12.9024" operator="dilate" in="SourceAlpha" result="effect1_innerShadow_946_88809"/>
<feOffset dx="4.4878" dy="-4.39024"/>
<feGaussianBlur stdDeviation="5.04878"/>
<feComposite in2="hardAlpha" operator="arithmetic" k2="-1" k3="1"/>
<feColorMatrix type="matrix" values="0 0 0 0 0.462111 0 0 0 0 0.203767 0 0 0 0 0.504167 0 0 0 0.35 0"/>
<feBlend mode="normal" in2="shape" result="effect1_innerShadow_946_88809"/>
</filter>
<radialGradient id="paint0_radial_946_88809" cx="0" cy="0" r="1" gradientUnits="userSpaceOnUse" gradientTransform="translate(53.1707 7.80488) rotate(86.5167) scale(112.403)">
<stop stop-color="#FFBB0C"/>
<stop offset="1" stop-color="#FFC907"/>
</radialGradient>
<linearGradient id="paint1_linear_946_88809" x1="59.7561" y1="102.927" x2="52.439" y2="60.9756" gradientUnits="userSpaceOnUse">
<stop stop-color="#FB39A2"/>
<stop offset="1" stop-color="#C520FF"/>
</linearGradient>
<linearGradient id="paint2_linear_946_88809" x1="59.7561" y1="102.927" x2="37.8049" y2="56.5854" gradientUnits="userSpaceOnUse">
<stop stop-color="#3A2EC0"/>
<stop offset="1" stop-color="#FF20C1"/>
</linearGradient>
<radialGradient id="paint3_radial_946_88809" cx="0" cy="0" r="1" gradientUnits="userSpaceOnUse" gradientTransform="translate(59.1672 87.8882) rotate(88.9826) scale(19.432 24.4983)">
<stop stop-color="#FC4141"/>
<stop offset="1" stop-color="#FF0F0F"/>
</radialGradient>
</defs>
</svg>
