<svg width="120" height="120" viewBox="0 0 120 120" fill="none" xmlns="http://www.w3.org/2000/svg">
<g clip-path="url(#clip0_946_88835)">
<g filter="url(#filter0_iii_946_88835)">
<path d="M60 120H61.9512C94.0107 120 120 94.0107 120 61.9512V59.0244C120 53.0974 115.195 48.2927 109.268 48.2927H58.2927H10.7317C4.80475 48.2927 0 53.0974 0 59.0244V60C0 93.1371 26.8629 120 60 120Z" fill="url(#paint0_radial_946_88835)"/>
</g>
<g filter="url(#filter1_iii_946_88835)">
<path d="M0 56.0976C0 25.1157 25.1157 0 56.0976 0H61.9512C94.0107 0 120 25.9893 120 58.0488V61.9512C120 94.0107 94.0107 120 61.9512 120H60C26.8629 120 0 93.1371 0 60V56.0976Z" fill="url(#paint1_radial_946_88835)"/>
</g>
<g filter="url(#filter2_f_946_88835)">
<circle cx="29.0244" cy="64.6342" r="17.3171" fill="#FF4242"/>
</g>
<g filter="url(#filter3_f_946_88835)">
<circle cx="91.9512" cy="64.6342" r="17.3171" fill="#FF4242"/>
</g>
<g filter="url(#filter4_d_946_88835)">
<g filter="url(#filter5_i_946_88835)">
<circle r="17.3171" transform="matrix(1 0 0 -1 38.7804 67.0732)" fill="#FAFAFA"/>
</g>
<g filter="url(#filter6_i_946_88835)">
<rect width="18.4132" height="18.4132" rx="9.20662" transform="matrix(1 0 0 -1 29.5693 76.2844)" fill="#2C2F36"/>
</g>
</g>
<g filter="url(#filter7_d_946_88835)">
<g filter="url(#filter8_i_946_88835)">
<circle r="17.3171" transform="matrix(1 0 0 -1 80.7316 67.0732)" fill="#FAFAFA"/>
</g>
<g filter="url(#filter9_i_946_88835)">
<rect width="18.4132" height="18.4132" rx="9.20662" transform="matrix(1 0 0 -1 71.5204 76.2844)" fill="#2C2F36"/>
</g>
</g>
<g filter="url(#filter10_dii_946_88835)">
<path d="M62.4459 57.8085C60.8987 56.9022 60.3631 54.8966 61.4667 53.4834C62.7647 51.8213 64.2756 50.3309 65.964 49.0521C68.5172 47.1183 71.4264 45.7062 74.5254 44.8967C77.6244 44.0872 80.8525 43.8959 84.0254 44.3339C86.1234 44.6236 88.1702 45.1846 90.1153 45.9995C91.7691 46.6924 92.2828 48.7037 91.3766 50.2509V50.2509C90.4703 51.7981 88.4864 52.286 86.8011 51.6738C85.6181 51.244 84.3902 50.9392 83.1374 50.7662C80.8092 50.4448 78.4405 50.5852 76.1666 51.1792C73.8926 51.7732 71.758 52.8093 69.8844 54.2283C68.8763 54.9919 67.9543 55.8583 67.1327 56.8117C65.9622 58.17 63.9931 58.7147 62.4459 57.8085V57.8085Z" fill="url(#paint2_linear_946_88835)"/>
</g>
<g filter="url(#filter11_dii_946_88835)">
<path d="M56.9831 57.8085C58.5303 56.9022 59.0658 54.8966 57.9622 53.4834C56.6643 51.8213 55.1534 50.3309 53.465 49.0521C50.9117 47.1183 48.0025 45.7062 44.9035 44.8967C41.8046 44.0872 38.5765 43.8959 35.4036 44.3339C33.3055 44.6236 31.2587 45.1846 29.3137 45.9995C27.6599 46.6924 27.1461 48.7037 28.0524 50.2509V50.2509C28.9587 51.7981 30.9426 52.286 32.6279 51.6738C33.8109 51.244 35.0388 50.9392 36.2916 50.7662C38.6197 50.4448 40.9884 50.5852 43.2624 51.1792C45.5363 51.7732 47.671 52.8093 49.5445 54.2283C50.5527 54.9919 51.4746 55.8583 52.2963 56.8117C53.4668 58.17 55.4359 58.7147 56.9831 57.8085V57.8085Z" fill="url(#paint3_linear_946_88835)"/>
</g>
<g filter="url(#filter12_i_946_88835)">
<path d="M68.372 102.832C76.371 105.321 84.2566 99.5285 78.1161 93.8302V93.8302C73.2857 89.3476 66.7344 86.8293 59.9032 86.8293C53.072 86.8293 46.5207 89.3476 41.6903 93.8301V93.8301C35.5498 99.5285 43.4354 105.321 51.4344 102.832C54.3882 101.913 57.3302 101.296 59.9032 101.296C62.4762 101.296 65.4182 101.913 68.372 102.832Z" fill="url(#paint4_linear_946_88835)"/>
</g>
<g filter="url(#filter13_ii_946_88835)">
<rect x="10" width="100" height="34.1463" rx="4.63415" fill="url(#paint5_linear_946_88835)"/>
</g>
<g filter="url(#filter14_i_946_88835)">
<path d="M34.2618 31.3111C31.7437 31.3111 29.5545 30.8037 27.6941 29.789C25.8337 28.793 24.3961 27.393 23.3813 25.589C22.3854 23.785 21.8874 21.7085 21.8874 19.3595C21.8874 16.7474 22.4136 14.4924 23.4659 12.5944C24.537 10.6965 26.0122 9.24948 27.8914 8.25351C29.7706 7.25755 31.9034 6.75956 34.29 6.75956C36.7517 6.75956 38.8658 7.21996 40.6323 8.14076C42.3987 9.06156 43.7423 10.3206 44.6631 11.9179C45.5839 13.4964 46.0443 15.2723 46.0443 17.2454C46.0443 18.8803 45.7906 20.2897 45.2833 21.4736C44.7947 22.6387 44.1088 23.5313 43.2255 24.1514C42.3423 24.7528 41.337 25.0534 40.2095 25.0534C39.2135 25.0534 38.4054 24.8373 37.7853 24.4051C37.1749 23.9797 36.7921 23.4177 36.6369 22.7192C36.6325 22.6997 36.6153 22.6857 36.5953 22.6857V22.6857C36.5815 22.6857 36.5685 22.6925 36.5606 22.7039C36.0563 23.4282 35.4874 24.0047 34.8538 24.4333C34.2336 24.8467 33.4444 25.0534 32.486 25.0534C31.0954 25.0534 30.0055 24.593 29.2162 23.6722C28.4457 22.7326 28.0605 21.4924 28.0605 19.9514C28.0605 18.6172 28.3142 17.4051 28.8216 16.3152C29.329 15.2065 30.0243 14.3327 30.9075 13.6938C31.8095 13.0548 32.8336 12.7354 33.98 12.7354C34.7504 12.7354 35.4269 12.8951 36.0095 13.2146C36.5806 13.5278 36.9892 13.9675 37.2352 14.5336C37.2441 14.5541 37.2643 14.5676 37.2867 14.5676V14.5676C37.3141 14.5676 37.3374 14.5476 37.3415 14.5205L37.3907 14.2011C37.447 13.8253 37.6068 13.5434 37.8699 13.3555C38.1517 13.1488 38.5088 13.0454 38.941 13.0454C39.3732 13.0454 39.7115 13.1676 39.9558 13.4119C40.2001 13.6562 40.3222 13.9944 40.3222 14.4266C40.3222 14.6146 40.3128 14.7555 40.294 14.8495L39.4484 19.6414C39.3544 20.2051 39.3074 20.6467 39.3074 20.9662C39.3074 21.5112 39.4202 21.9246 39.6457 22.2065C39.8712 22.4883 40.2376 22.6293 40.745 22.6293C41.1209 22.6293 41.4967 22.4508 41.8725 22.0937C42.2484 21.7367 42.5584 21.1541 42.8027 20.3461C43.0658 19.538 43.1974 18.5045 43.1974 17.2454C43.1974 15.6669 42.8591 14.2857 42.1826 13.1018C41.5061 11.9179 40.5007 10.9971 39.1665 10.3394C37.8323 9.6817 36.2068 9.35284 34.29 9.35284C32.486 9.35284 30.8793 9.74747 29.4699 10.5367C28.0605 11.3072 26.9518 12.4535 26.1437 13.9756C25.3357 15.479 24.9317 17.2736 24.9317 19.3595C24.9317 21.2387 25.2981 22.883 26.031 24.2924C26.7827 25.7018 27.8538 26.7917 29.2444 27.5621C30.6538 28.3326 32.3263 28.7178 34.2618 28.7178C35.4833 28.7178 36.5356 28.5863 37.4189 28.3232C38.3209 28.0789 39.1947 27.6843 40.0403 27.1393C40.341 26.9514 40.6229 26.8575 40.886 26.8575C41.2618 26.8575 41.5719 26.989 41.8162 27.2521C42.0792 27.5152 42.2108 27.8252 42.2108 28.1823C42.2108 28.6521 41.9853 29.0467 41.5343 29.3662C40.7826 29.9111 39.7678 30.3715 38.49 30.7474C37.2122 31.1232 35.8028 31.3111 34.2618 31.3111ZM33.1625 22.6293C33.9142 22.6293 34.5531 22.4038 35.0793 21.9528C35.6242 21.483 36.0283 20.8816 36.2913 20.1488C36.5732 19.3971 36.7142 18.6078 36.7142 17.781C36.7142 16.9166 36.5169 16.2682 36.1222 15.836C35.7464 15.4038 35.2108 15.1877 34.5155 15.1877C33.8202 15.1877 33.2189 15.4226 32.7115 15.8924C32.2041 16.3622 31.8189 16.9635 31.5558 17.6964C31.2927 18.4293 31.1612 19.181 31.1612 19.9514C31.1612 20.7595 31.3397 21.4078 31.6967 21.8964C32.0538 22.385 32.5424 22.6293 33.1625 22.6293Z" fill="white"/>
<path d="M50.8772 20.6843C50.5389 20.6843 50.2477 20.5716 50.0034 20.3461C49.7779 20.1206 49.6369 19.7917 49.5806 19.3595L48.3403 9.49378C48.3215 9.39982 48.3121 9.26827 48.3121 9.09915C48.3121 8.40385 48.5564 7.84949 49.045 7.43607C49.5336 7.02265 50.1443 6.81594 50.8772 6.81594C51.6853 6.81594 52.3336 7.06023 52.8222 7.54882C53.3295 8.03741 53.5269 8.69512 53.4141 9.52196L52.1457 19.3595C52.1081 19.7917 51.9671 20.1206 51.7228 20.3461C51.4973 20.5716 51.2155 20.6843 50.8772 20.6843ZM50.8772 26.9984C50.1819 26.9984 49.6088 26.7729 49.1577 26.3219C48.7067 25.8521 48.4812 25.2695 48.4812 24.5742C48.4812 23.8789 48.7067 23.3058 49.1577 22.8548C49.6088 22.385 50.1819 22.1501 50.8772 22.1501C51.5725 22.1501 52.1457 22.385 52.5967 22.8548C53.0477 23.3058 53.2732 23.8789 53.2732 24.5742C53.2732 25.2695 53.0477 25.8521 52.5967 26.3219C52.1457 26.7729 51.5725 26.9984 50.8772 26.9984Z" fill="white"/>
<path d="M64.3725 26.2937C63.9403 27.0078 63.4048 27.3648 62.7658 27.3648C62.3712 27.3648 62.0236 27.2145 61.7229 26.9138C61.441 26.6319 61.3001 26.2749 61.3001 25.8427C61.3001 25.4856 61.4128 25.1098 61.6383 24.7152L71.6168 7.49244C72.0114 6.77835 72.5376 6.42131 73.1953 6.42131C73.6087 6.42131 73.9564 6.57164 74.2383 6.87231C74.5389 7.15419 74.6893 7.51124 74.6893 7.94345C74.6893 8.30049 74.5765 8.67633 74.351 9.07096L64.3725 26.2937ZM60.7081 18.7957C59.092 18.7957 57.8236 18.279 56.9028 17.2454C56.0008 16.1931 55.5498 14.6709 55.5498 12.679C55.5498 10.7434 56.0102 9.25888 56.931 8.22533C57.8518 7.17298 59.1108 6.64681 60.7081 6.64681C62.3242 6.64681 63.5833 7.17298 64.4853 8.22533C65.4061 9.25888 65.8665 10.7528 65.8665 12.7072C65.8665 14.6991 65.4061 16.2119 64.4853 17.2454C63.5833 18.279 62.3242 18.7957 60.7081 18.7957ZM60.7081 16.1461C61.2907 16.1461 61.7135 15.883 61.9766 15.3568C62.2397 14.8307 62.3712 13.9474 62.3712 12.7072C62.3712 11.5233 62.2303 10.6683 61.9484 10.1421C61.6853 9.59713 61.2719 9.32465 60.7081 9.32465C60.1444 9.32465 59.731 9.58773 59.4679 10.1139C59.2048 10.6401 59.0732 11.5045 59.0732 12.7072C59.0732 13.9287 59.2048 14.8119 59.4679 15.3568C59.731 15.883 60.1444 16.1461 60.7081 16.1461ZM75.253 27.0266C73.6369 27.0266 72.3685 26.5098 71.4477 25.4762C70.5457 24.4239 70.0947 22.9018 70.0947 20.9098C70.0947 18.9555 70.5457 17.4615 71.4477 16.428C72.3685 15.3944 73.6369 14.8776 75.253 14.8776C76.8503 14.8776 78.1094 15.4038 79.0302 16.4562C79.951 17.4897 80.4114 18.9837 80.4114 20.938C80.4114 22.9112 79.951 24.4239 79.0302 25.4762C78.1282 26.5098 76.8691 27.0266 75.253 27.0266ZM75.253 24.3769C75.8356 24.3769 76.2584 24.1138 76.5215 23.5877C76.7846 23.0615 76.9161 22.1783 76.9161 20.938C76.9161 19.7353 76.7752 18.8709 76.4933 18.3447C76.2302 17.7998 75.8168 17.5273 75.253 17.5273C74.6893 17.5273 74.2665 17.7998 73.9846 18.3447C73.7215 18.8709 73.5899 19.7353 73.5899 20.938C73.5899 22.1783 73.7215 23.0615 73.9846 23.5877C74.2477 24.1138 74.6705 24.3769 75.253 24.3769Z" fill="white"/>
<path d="M97.637 21.0508C97.637 22.5729 97.1108 23.8601 96.0585 24.9125C95.3496 25.6213 94.4684 26.1578 93.4149 26.5219C92.5378 26.825 91.8585 27.5926 91.8585 28.5205V28.5205C91.8585 29.0279 91.6988 29.4319 91.3793 29.7326C91.0786 30.0521 90.6746 30.2118 90.1672 30.2118C89.6786 30.2118 89.2746 30.0521 88.9552 29.7326C88.6357 29.4319 88.476 29.0279 88.476 28.5205V28.5205C88.476 27.6585 87.815 26.9507 86.9718 26.7712C86.4605 26.6624 85.9566 26.522 85.4599 26.3501C84.5015 26.0118 83.6558 25.5796 82.923 25.0534C82.6223 24.8655 82.4062 24.6588 82.2746 24.4333C82.1619 24.189 82.1055 23.8883 82.1055 23.5313C82.1055 23.0615 82.2465 22.6481 82.5283 22.291C82.829 21.934 83.1673 21.7555 83.5431 21.7555C83.9001 21.7555 84.3418 21.9058 84.8679 22.2065C85.7323 22.7138 86.5498 23.0897 87.3203 23.334C88.1095 23.5595 88.927 23.6722 89.7726 23.6722C90.9001 23.6722 91.7645 23.4655 92.3659 23.0521C92.9672 22.6199 93.2679 22.0185 93.2679 21.2481C93.2679 20.7783 93.0894 20.3931 92.7323 20.0924C92.3941 19.7917 91.9712 19.5568 91.4639 19.3877C90.9565 19.2186 90.2236 19.0025 89.2652 18.7394C87.8746 18.3823 86.7283 18.0253 85.8263 17.6682C84.9243 17.3112 84.1444 16.7474 83.4867 15.977C82.8478 15.2065 82.5283 14.1729 82.5283 12.8763C82.5283 11.3542 83.0639 10.0481 84.135 8.95821C84.8816 8.21163 85.7825 7.6502 86.8377 7.27394C87.7121 6.96215 88.3914 6.19393 88.3914 5.26561V5.26561C88.3914 4.75823 88.5511 4.3542 88.8706 4.05353C89.19 3.73407 89.5941 3.57434 90.0827 3.57434C90.59 3.57434 90.9941 3.73407 91.2947 4.05353C91.6142 4.3542 91.7739 4.75823 91.7739 5.26561V5.26561C91.7739 6.15312 92.4375 6.8871 93.2892 7.13665C94.422 7.46857 95.5049 8.00059 96.5377 8.73271C96.8195 8.92062 97.0169 9.13673 97.1296 9.38103C97.2612 9.62532 97.3269 9.91659 97.3269 10.2548C97.3269 10.7246 97.1766 11.1381 96.8759 11.4951C96.594 11.8522 96.2652 12.0307 95.8893 12.0307C95.6826 12.0307 95.4853 12.0025 95.2974 11.9461C95.1283 11.8897 94.884 11.7676 94.5645 11.5797C93.7941 11.0911 93.0988 10.7246 92.4786 10.4803C91.8773 10.2361 91.135 10.1139 90.2518 10.1139C89.237 10.1139 88.4196 10.3394 87.7995 10.7904C87.1981 11.2414 86.8974 11.8428 86.8974 12.5944C86.8974 13.1206 87.076 13.5528 87.433 13.8911C87.7901 14.2105 88.2411 14.4642 88.786 14.6521C89.331 14.8401 90.0921 15.0562 91.0692 15.3005C92.441 15.6387 93.5592 15.9864 94.4236 16.3434C95.3068 16.6817 96.0585 17.236 96.6786 18.0065C97.3175 18.7582 97.637 19.7729 97.637 21.0508Z" fill="white"/>
</g>
</g>
<defs>
<filter id="filter0_iii_946_88835" x="-5.36585" y="39.5122" width="135.61" height="88.2927" filterUnits="userSpaceOnUse" color-interpolation-filters="sRGB">
<feFlood flood-opacity="0" result="BackgroundImageFix"/>
<feBlend mode="normal" in="SourceGraphic" in2="BackgroundImageFix" result="shape"/>
<feColorMatrix in="SourceAlpha" type="matrix" values="0 0 0 0 0 0 0 0 0 0 0 0 0 0 0 0 0 0 127 0" result="hardAlpha"/>
<feOffset dx="10.2439" dy="6.34146"/>
<feGaussianBlur stdDeviation="11.7073"/>
<feComposite in2="hardAlpha" operator="arithmetic" k2="-1" k3="1"/>
<feColorMatrix type="matrix" values="0 0 0 0 0.682806 0 0 0 0 0.0652778 0 0 0 0 0.783333 0 0 0 0.14 0"/>
<feBlend mode="normal" in2="shape" result="effect1_innerShadow_946_88835"/>
<feColorMatrix in="SourceAlpha" type="matrix" values="0 0 0 0 0 0 0 0 0 0 0 0 0 0 0 0 0 0 127 0" result="hardAlpha"/>
<feOffset dy="-8.78049"/>
<feGaussianBlur stdDeviation="7.56098"/>
<feComposite in2="hardAlpha" operator="arithmetic" k2="-1" k3="1"/>
<feColorMatrix type="matrix" values="0 0 0 0 0.943639 0 0 0 0 0.223611 0 0 0 0 0.958333 0 0 0 0.44 0"/>
<feBlend mode="normal" in2="effect1_innerShadow_946_88835" result="effect2_innerShadow_946_88835"/>
<feColorMatrix in="SourceAlpha" type="matrix" values="0 0 0 0 0 0 0 0 0 0 0 0 0 0 0 0 0 0 127 0" result="hardAlpha"/>
<feOffset dx="-5.36585" dy="7.80488"/>
<feGaussianBlur stdDeviation="7.56098"/>
<feComposite in2="hardAlpha" operator="arithmetic" k2="-1" k3="1"/>
<feColorMatrix type="matrix" values="0 0 0 0 1 0 0 0 0 1 0 0 0 0 1 0 0 0 0.59 0"/>
<feBlend mode="normal" in2="effect2_innerShadow_946_88835" result="effect3_innerShadow_946_88835"/>
</filter>
<filter id="filter1_iii_946_88835" x="-5.36585" y="-8.78049" width="135.61" height="136.585" filterUnits="userSpaceOnUse" color-interpolation-filters="sRGB">
<feFlood flood-opacity="0" result="BackgroundImageFix"/>
<feBlend mode="normal" in="SourceGraphic" in2="BackgroundImageFix" result="shape"/>
<feColorMatrix in="SourceAlpha" type="matrix" values="0 0 0 0 0 0 0 0 0 0 0 0 0 0 0 0 0 0 127 0" result="hardAlpha"/>
<feMorphology radius="3.90244" operator="erode" in="SourceAlpha" result="effect1_innerShadow_946_88835"/>
<feOffset dx="10.2439" dy="6.34146"/>
<feGaussianBlur stdDeviation="11.7073"/>
<feComposite in2="hardAlpha" operator="arithmetic" k2="-1" k3="1"/>
<feColorMatrix type="matrix" values="0 0 0 0 0.682806 0 0 0 0 0.0652778 0 0 0 0 0.783333 0 0 0 0.14 0"/>
<feBlend mode="normal" in2="shape" result="effect1_innerShadow_946_88835"/>
<feColorMatrix in="SourceAlpha" type="matrix" values="0 0 0 0 0 0 0 0 0 0 0 0 0 0 0 0 0 0 127 0" result="hardAlpha"/>
<feOffset dy="-8.78049"/>
<feGaussianBlur stdDeviation="7.56098"/>
<feComposite in2="hardAlpha" operator="arithmetic" k2="-1" k3="1"/>
<feColorMatrix type="matrix" values="0 0 0 0 0.943639 0 0 0 0 0.223611 0 0 0 0 0.958333 0 0 0 0.44 0"/>
<feBlend mode="normal" in2="effect1_innerShadow_946_88835" result="effect2_innerShadow_946_88835"/>
<feColorMatrix in="SourceAlpha" type="matrix" values="0 0 0 0 0 0 0 0 0 0 0 0 0 0 0 0 0 0 127 0" result="hardAlpha"/>
<feOffset dx="-5.36585" dy="7.80488"/>
<feGaussianBlur stdDeviation="7.56098"/>
<feComposite in2="hardAlpha" operator="arithmetic" k2="-1" k3="1"/>
<feColorMatrix type="matrix" values="0 0 0 0 1 0 0 0 0 1 0 0 0 0 1 0 0 0 0.59 0"/>
<feBlend mode="normal" in2="effect2_innerShadow_946_88835" result="effect3_innerShadow_946_88835"/>
</filter>
<filter id="filter2_f_946_88835" x="-12.8588" y="22.751" width="83.7663" height="83.7663" filterUnits="userSpaceOnUse" color-interpolation-filters="sRGB">
<feFlood flood-opacity="0" result="BackgroundImageFix"/>
<feBlend mode="normal" in="SourceGraphic" in2="BackgroundImageFix" result="shape"/>
<feGaussianBlur stdDeviation="12.283" result="effect1_foregroundBlur_946_88835"/>
</filter>
<filter id="filter3_f_946_88835" x="50.068" y="22.751" width="83.7663" height="83.7663" filterUnits="userSpaceOnUse" color-interpolation-filters="sRGB">
<feFlood flood-opacity="0" result="BackgroundImageFix"/>
<feBlend mode="normal" in="SourceGraphic" in2="BackgroundImageFix" result="shape"/>
<feGaussianBlur stdDeviation="12.283" result="effect1_foregroundBlur_946_88835"/>
</filter>
<filter id="filter4_d_946_88835" x="14.4628" y="44.2293" width="48.6352" height="48.6352" filterUnits="userSpaceOnUse" color-interpolation-filters="sRGB">
<feFlood flood-opacity="0" result="BackgroundImageFix"/>
<feColorMatrix in="SourceAlpha" type="matrix" values="0 0 0 0 0 0 0 0 0 0 0 0 0 0 0 0 0 0 127 0" result="hardAlpha"/>
<feOffset dy="1.47379"/>
<feGaussianBlur stdDeviation="3.50026"/>
<feColorMatrix type="matrix" values="0 0 0 0 0 0 0 0 0 0 0 0 0 0 0 0 0 0 0.25 0"/>
<feBlend mode="normal" in2="BackgroundImageFix" result="effect1_dropShadow_946_88835"/>
<feBlend mode="normal" in="SourceGraphic" in2="effect1_dropShadow_946_88835" result="shape"/>
</filter>
<filter id="filter5_i_946_88835" x="21.4633" y="48.0244" width="34.6342" height="36.3659" filterUnits="userSpaceOnUse" color-interpolation-filters="sRGB">
<feFlood flood-opacity="0" result="BackgroundImageFix"/>
<feBlend mode="normal" in="SourceGraphic" in2="BackgroundImageFix" result="shape"/>
<feColorMatrix in="SourceAlpha" type="matrix" values="0 0 0 0 0 0 0 0 0 0 0 0 0 0 0 0 0 0 127 0" result="hardAlpha"/>
<feOffset dy="-1.73171"/>
<feGaussianBlur stdDeviation="4.32927"/>
<feComposite in2="hardAlpha" operator="arithmetic" k2="-1" k3="1"/>
<feColorMatrix type="matrix" values="0 0 0 0 0 0 0 0 0 0 0 0 0 0 0 0 0 0 0.25 0"/>
<feBlend mode="normal" in2="shape" result="effect1_innerShadow_946_88835"/>
</filter>
<filter id="filter6_i_946_88835" x="29.5693" y="57.8711" width="18.4132" height="18.4132" filterUnits="userSpaceOnUse" color-interpolation-filters="sRGB">
<feFlood flood-opacity="0" result="BackgroundImageFix"/>
<feBlend mode="normal" in="SourceGraphic" in2="BackgroundImageFix" result="shape"/>
<feColorMatrix in="SourceAlpha" type="matrix" values="0 0 0 0 0 0 0 0 0 0 0 0 0 0 0 0 0 0 127 0" result="hardAlpha"/>
<feMorphology radius="15.2197" operator="dilate" in="SourceAlpha" result="effect1_innerShadow_946_88835"/>
<feOffset dx="5.29381" dy="-15.8814"/>
<feGaussianBlur stdDeviation="5.95553"/>
<feComposite in2="hardAlpha" operator="arithmetic" k2="-1" k3="1"/>
<feColorMatrix type="matrix" values="0 0 0 0 0.462111 0 0 0 0 0.203767 0 0 0 0 0.504167 0 0 0 0.35 0"/>
<feBlend mode="normal" in2="shape" result="effect1_innerShadow_946_88835"/>
</filter>
<filter id="filter7_d_946_88835" x="56.414" y="44.2293" width="48.6352" height="48.6352" filterUnits="userSpaceOnUse" color-interpolation-filters="sRGB">
<feFlood flood-opacity="0" result="BackgroundImageFix"/>
<feColorMatrix in="SourceAlpha" type="matrix" values="0 0 0 0 0 0 0 0 0 0 0 0 0 0 0 0 0 0 127 0" result="hardAlpha"/>
<feOffset dy="1.47379"/>
<feGaussianBlur stdDeviation="3.50026"/>
<feColorMatrix type="matrix" values="0 0 0 0 0 0 0 0 0 0 0 0 0 0 0 0 0 0 0.25 0"/>
<feBlend mode="normal" in2="BackgroundImageFix" result="effect1_dropShadow_946_88835"/>
<feBlend mode="normal" in="SourceGraphic" in2="effect1_dropShadow_946_88835" result="shape"/>
</filter>
<filter id="filter8_i_946_88835" x="63.4146" y="48.0244" width="34.6342" height="36.3659" filterUnits="userSpaceOnUse" color-interpolation-filters="sRGB">
<feFlood flood-opacity="0" result="BackgroundImageFix"/>
<feBlend mode="normal" in="SourceGraphic" in2="BackgroundImageFix" result="shape"/>
<feColorMatrix in="SourceAlpha" type="matrix" values="0 0 0 0 0 0 0 0 0 0 0 0 0 0 0 0 0 0 127 0" result="hardAlpha"/>
<feOffset dy="-1.73171"/>
<feGaussianBlur stdDeviation="4.32927"/>
<feComposite in2="hardAlpha" operator="arithmetic" k2="-1" k3="1"/>
<feColorMatrix type="matrix" values="0 0 0 0 0 0 0 0 0 0 0 0 0 0 0 0 0 0 0.25 0"/>
<feBlend mode="normal" in2="shape" result="effect1_innerShadow_946_88835"/>
</filter>
<filter id="filter9_i_946_88835" x="71.5204" y="57.8711" width="18.4132" height="18.4132" filterUnits="userSpaceOnUse" color-interpolation-filters="sRGB">
<feFlood flood-opacity="0" result="BackgroundImageFix"/>
<feBlend mode="normal" in="SourceGraphic" in2="BackgroundImageFix" result="shape"/>
<feColorMatrix in="SourceAlpha" type="matrix" values="0 0 0 0 0 0 0 0 0 0 0 0 0 0 0 0 0 0 127 0" result="hardAlpha"/>
<feMorphology radius="15.2197" operator="dilate" in="SourceAlpha" result="effect1_innerShadow_946_88835"/>
<feOffset dx="5.29381" dy="-15.8814"/>
<feGaussianBlur stdDeviation="5.95553"/>
<feComposite in2="hardAlpha" operator="arithmetic" k2="-1" k3="1"/>
<feColorMatrix type="matrix" values="0 0 0 0 0.462111 0 0 0 0 0.203767 0 0 0 0 0.504167 0 0 0 0.35 0"/>
<feBlend mode="normal" in2="shape" result="effect1_innerShadow_946_88835"/>
</filter>
<filter id="filter10_dii_946_88835" x="50.6389" y="38.2511" width="57.2785" height="40.4914" filterUnits="userSpaceOnUse" color-interpolation-filters="sRGB">
<feFlood flood-opacity="0" result="BackgroundImageFix"/>
<feColorMatrix in="SourceAlpha" type="matrix" values="0 0 0 0 0 0 0 0 0 0 0 0 0 0 0 0 0 0 127 0" result="hardAlpha"/>
<feOffset dx="2.92683" dy="7.31707"/>
<feGaussianBlur stdDeviation="6.58537"/>
<feColorMatrix type="matrix" values="0 0 0 0 0.0313726 0 0 0 0 0.02 0 0 0 0 0.0352941 0 0 0 0.25 0"/>
<feBlend mode="normal" in2="BackgroundImageFix" result="effect1_dropShadow_946_88835"/>
<feBlend mode="normal" in="SourceGraphic" in2="effect1_dropShadow_946_88835" result="shape"/>
<feColorMatrix in="SourceAlpha" type="matrix" values="0 0 0 0 0 0 0 0 0 0 0 0 0 0 0 0 0 0 127 0" result="hardAlpha"/>
<feOffset dy="2.16802"/>
<feGaussianBlur stdDeviation="1.08401"/>
<feComposite in2="hardAlpha" operator="arithmetic" k2="-1" k3="1"/>
<feColorMatrix type="matrix" values="0 0 0 0 0.181961 0 0 0 0 0.116 0 0 0 0 0.204706 0 0 0 1 0"/>
<feBlend mode="normal" in2="shape" result="effect2_innerShadow_946_88835"/>
<feColorMatrix in="SourceAlpha" type="matrix" values="0 0 0 0 0 0 0 0 0 0 0 0 0 0 0 0 0 0 127 0" result="hardAlpha"/>
<feOffset dy="-2.16802"/>
<feGaussianBlur stdDeviation="1.08401"/>
<feComposite in2="hardAlpha" operator="arithmetic" k2="-1" k3="1"/>
<feColorMatrix type="matrix" values="0 0 0 0 0.12549 0 0 0 0 0.08 0 0 0 0 0.141176 0 0 0 1 0"/>
<feBlend mode="normal" in2="effect2_innerShadow_946_88835" result="effect3_innerShadow_946_88835"/>
</filter>
<filter id="filter11_dii_946_88835" x="17.3651" y="38.2511" width="57.2785" height="40.4914" filterUnits="userSpaceOnUse" color-interpolation-filters="sRGB">
<feFlood flood-opacity="0" result="BackgroundImageFix"/>
<feColorMatrix in="SourceAlpha" type="matrix" values="0 0 0 0 0 0 0 0 0 0 0 0 0 0 0 0 0 0 127 0" result="hardAlpha"/>
<feOffset dx="2.92683" dy="7.31707"/>
<feGaussianBlur stdDeviation="6.58537"/>
<feColorMatrix type="matrix" values="0 0 0 0 0.0313726 0 0 0 0 0.02 0 0 0 0 0.0352941 0 0 0 0.25 0"/>
<feBlend mode="normal" in2="BackgroundImageFix" result="effect1_dropShadow_946_88835"/>
<feBlend mode="normal" in="SourceGraphic" in2="effect1_dropShadow_946_88835" result="shape"/>
<feColorMatrix in="SourceAlpha" type="matrix" values="0 0 0 0 0 0 0 0 0 0 0 0 0 0 0 0 0 0 127 0" result="hardAlpha"/>
<feOffset dy="2.16802"/>
<feGaussianBlur stdDeviation="1.08401"/>
<feComposite in2="hardAlpha" operator="arithmetic" k2="-1" k3="1"/>
<feColorMatrix type="matrix" values="0 0 0 0 0.181961 0 0 0 0 0.116 0 0 0 0 0.204706 0 0 0 1 0"/>
<feBlend mode="normal" in2="shape" result="effect2_innerShadow_946_88835"/>
<feColorMatrix in="SourceAlpha" type="matrix" values="0 0 0 0 0 0 0 0 0 0 0 0 0 0 0 0 0 0 127 0" result="hardAlpha"/>
<feOffset dy="-2.16802"/>
<feGaussianBlur stdDeviation="1.08401"/>
<feComposite in2="hardAlpha" operator="arithmetic" k2="-1" k3="1"/>
<feColorMatrix type="matrix" values="0 0 0 0 0.12549 0 0 0 0 0.08 0 0 0 0 0.141176 0 0 0 1 0"/>
<feBlend mode="normal" in2="effect2_innerShadow_946_88835" result="effect3_innerShadow_946_88835"/>
</filter>
<filter id="filter12_i_946_88835" x="39.1393" y="86.8293" width="41.5278" height="19.5495" filterUnits="userSpaceOnUse" color-interpolation-filters="sRGB">
<feFlood flood-opacity="0" result="BackgroundImageFix"/>
<feBlend mode="normal" in="SourceGraphic" in2="BackgroundImageFix" result="shape"/>
<feColorMatrix in="SourceAlpha" type="matrix" values="0 0 0 0 0 0 0 0 0 0 0 0 0 0 0 0 0 0 127 0" result="hardAlpha"/>
<feOffset dy="1.64844"/>
<feGaussianBlur stdDeviation="3.29689"/>
<feComposite in2="hardAlpha" operator="arithmetic" k2="-1" k3="1"/>
<feColorMatrix type="matrix" values="0 0 0 0 0 0 0 0 0 0 0 0 0 0 0 0 0 0 0.25 0"/>
<feBlend mode="normal" in2="shape" result="effect1_innerShadow_946_88835"/>
</filter>
<filter id="filter13_ii_946_88835" x="10" y="0" width="100" height="34.1463" filterUnits="userSpaceOnUse" color-interpolation-filters="sRGB">
<feFlood flood-opacity="0" result="BackgroundImageFix"/>
<feBlend mode="normal" in="SourceGraphic" in2="BackgroundImageFix" result="shape"/>
<feColorMatrix in="SourceAlpha" type="matrix" values="0 0 0 0 0 0 0 0 0 0 0 0 0 0 0 0 0 0 127 0" result="hardAlpha"/>
<feMorphology radius="12.9024" operator="dilate" in="SourceAlpha" result="effect1_innerShadow_946_88835"/>
<feOffset dy="13.6585"/>
<feGaussianBlur stdDeviation="3.41463"/>
<feComposite in2="hardAlpha" operator="arithmetic" k2="-1" k3="1"/>
<feColorMatrix type="matrix" values="0 0 0 0 0.3625 0 0 0 0 0.3625 0 0 0 0 0.3625 0 0 0 0.97 0"/>
<feBlend mode="normal" in2="shape" result="effect1_innerShadow_946_88835"/>
<feColorMatrix in="SourceAlpha" type="matrix" values="0 0 0 0 0 0 0 0 0 0 0 0 0 0 0 0 0 0 127 0" result="hardAlpha"/>
<feMorphology radius="12.9024" operator="dilate" in="SourceAlpha" result="effect2_innerShadow_946_88835"/>
<feOffset dx="4.4878" dy="-4.39024"/>
<feGaussianBlur stdDeviation="5.04878"/>
<feComposite in2="hardAlpha" operator="arithmetic" k2="-1" k3="1"/>
<feColorMatrix type="matrix" values="0 0 0 0 0.462111 0 0 0 0 0.203767 0 0 0 0 0.504167 0 0 0 0.35 0"/>
<feBlend mode="normal" in2="effect1_innerShadow_946_88835" result="effect2_innerShadow_946_88835"/>
</filter>
<filter id="filter14_i_946_88835" x="21.8874" y="2.59873" width="75.7496" height="28.7124" filterUnits="userSpaceOnUse" color-interpolation-filters="sRGB">
<feFlood flood-opacity="0" result="BackgroundImageFix"/>
<feBlend mode="normal" in="SourceGraphic" in2="BackgroundImageFix" result="shape"/>
<feColorMatrix in="SourceAlpha" type="matrix" values="0 0 0 0 0 0 0 0 0 0 0 0 0 0 0 0 0 0 127 0" result="hardAlpha"/>
<feOffset dy="-0.97561"/>
<feGaussianBlur stdDeviation="0.731707"/>
<feComposite in2="hardAlpha" operator="arithmetic" k2="-1" k3="1"/>
<feColorMatrix type="matrix" values="0 0 0 0 0 0 0 0 0 0 0 0 0 0 0 0 0 0 0.25 0"/>
<feBlend mode="normal" in2="shape" result="effect1_innerShadow_946_88835"/>
</filter>
<radialGradient id="paint0_radial_946_88835" cx="0" cy="0" r="1" gradientUnits="userSpaceOnUse" gradientTransform="translate(53.1707 52.9566) rotate(84.1837) scale(67.3904 112.031)">
<stop stop-color="#FFBB0C"/>
<stop offset="1" stop-color="#FFC907"/>
</radialGradient>
<radialGradient id="paint1_radial_946_88835" cx="0" cy="0" r="1" gradientUnits="userSpaceOnUse" gradientTransform="translate(53.1707 7.80488) rotate(86.5167) scale(112.403)">
<stop stop-color="#FF9E0C"/>
<stop offset="1" stop-color="#FF0761"/>
</radialGradient>
<linearGradient id="paint2_linear_946_88835" x1="101.736" y1="80.8226" x2="59.6444" y2="56.1675" gradientUnits="userSpaceOnUse">
<stop stop-color="#2D1D32"/>
<stop offset="1" stop-color="#221526"/>
</linearGradient>
<linearGradient id="paint3_linear_946_88835" x1="17.6934" y1="80.8226" x2="59.7845" y2="56.1675" gradientUnits="userSpaceOnUse">
<stop stop-color="#2D1D32"/>
<stop offset="1" stop-color="#221526"/>
</linearGradient>
<linearGradient id="paint4_linear_946_88835" x1="59.9032" y1="86.8293" x2="73.8382" y2="118.53" gradientUnits="userSpaceOnUse">
<stop stop-opacity="0.97"/>
<stop offset="0.322917" stop-color="#4C0A3A" stop-opacity="0.978967"/>
<stop offset="0.958333" stop-color="#FF20C1"/>
</linearGradient>
<linearGradient id="paint5_linear_946_88835" x1="60" y1="0" x2="60" y2="34.1463" gradientUnits="userSpaceOnUse">
<stop stop-color="#201721"/>
<stop offset="1" stop-color="#2B1F2C"/>
</linearGradient>
<clipPath id="clip0_946_88835">
<rect width="120" height="120" fill="white"/>
</clipPath>
</defs>
</svg>
