<svg width="126" height="40" viewBox="0 0 126 40" fill="none" xmlns="http://www.w3.org/2000/svg">
<path fill-rule="evenodd" clip-rule="evenodd" d="M84.2817 7L79.1597 19.368H84.8806L90.0025 7H84.2817ZM77.4166 23.8085C77.4166 25.5248 78.7513 26.9413 80.5493 26.9413C82.4018 26.9413 83.7914 25.4705 83.7914 23.6999C83.7914 21.9555 82.4567 20.5671 80.6587 20.5671C78.8062 20.5671 77.4166 22.0648 77.4166 23.8085ZM72.2403 19.8857C72.2403 18.3599 71.0962 17.1339 69.516 17.1339C67.9359 17.1339 66.7917 18.3599 66.7917 19.8857C66.7917 21.4115 67.9359 22.6375 69.516 22.6375C71.0962 22.6375 72.2403 21.4115 72.2403 19.8857ZM56.8214 19.8857C56.8214 18.3599 55.6773 17.1339 54.0971 17.1339C52.517 17.1339 51.3729 18.3599 51.3729 19.8857C51.3729 21.4115 52.517 22.6375 54.0971 22.6375C55.6773 22.6375 56.8214 21.4115 56.8214 19.8857ZM23.749 22.6918C22.142 22.6918 20.916 21.4658 20.916 19.8857C20.916 18.3056 22.142 17.0803 23.749 17.0803C25.3291 17.0803 26.5551 18.3056 26.5551 19.8857C26.5551 21.4658 25.3291 22.6918 23.749 22.6918ZM0.674988 13.0475L6.50453 26.8051L4.4073 31.7634H9.52861L17.293 13.0475H12.1979L9.03834 21.0567L5.9056 13.0475H0.674988ZM61.3981 19.8857C61.3981 23.9722 58.2654 27.0506 54.0971 27.0506C49.9289 27.0506 46.7962 23.9722 46.7962 19.8857C46.7962 15.7993 49.9289 12.7209 54.0971 12.7209C58.2654 12.7209 61.3981 15.7993 61.3981 19.8857ZM76.817 19.8857C76.817 23.9722 73.6843 27.0506 69.516 27.0506C65.3478 27.0506 62.2157 23.9722 62.2157 19.8857C62.2157 15.7993 65.3478 12.7209 69.516 12.7209C73.6843 12.7209 76.817 15.7993 76.817 19.8857ZM32.7119 7V26.6958H37.5341V19.4229C37.5341 18.0058 38.2148 17.1608 39.3047 17.1608C40.367 17.1608 40.966 17.8972 40.966 19.2593V26.6958H45.7881V18.1151C45.7881 14.7913 43.99 12.7209 41.1028 12.7209C39.5501 12.7209 38.351 13.3205 37.5066 14.3828V7H32.7119ZM26.4464 13.0475V14.3285C25.7107 13.3748 24.3486 12.7209 22.7685 12.7209C19.0361 12.7209 16.2575 16.0166 16.2575 19.8857C16.2575 23.8629 19.0087 27.0506 22.7685 27.0506C24.3486 27.0506 25.7107 26.4241 26.4464 25.4161V26.6958H31.105V13.0475H26.4464Z" fill="black"/>
<mask id="mask0_0_810" style="mask-type:alpha" maskUnits="userSpaceOnUse" x="0" y="7" width="91" height="25">
<path fill-rule="evenodd" clip-rule="evenodd" d="M84.2817 7L79.1597 19.368H84.8806L90.0025 7H84.2817ZM77.4166 23.8085C77.4166 25.5248 78.7513 26.9413 80.5493 26.9413C82.4018 26.9413 83.7914 25.4705 83.7914 23.6999C83.7914 21.9555 82.4567 20.5671 80.6587 20.5671C78.8062 20.5671 77.4166 22.0648 77.4166 23.8085ZM72.2403 19.8857C72.2403 18.3599 71.0962 17.1339 69.516 17.1339C67.9359 17.1339 66.7917 18.3599 66.7917 19.8857C66.7917 21.4115 67.9359 22.6375 69.516 22.6375C71.0962 22.6375 72.2403 21.4115 72.2403 19.8857ZM56.8214 19.8857C56.8214 18.3599 55.6773 17.1339 54.0971 17.1339C52.517 17.1339 51.3729 18.3599 51.3729 19.8857C51.3729 21.4115 52.517 22.6375 54.0971 22.6375C55.6773 22.6375 56.8214 21.4115 56.8214 19.8857ZM23.749 22.6918C22.142 22.6918 20.916 21.4658 20.916 19.8857C20.916 18.3056 22.142 17.0803 23.749 17.0803C25.3291 17.0803 26.5551 18.3056 26.5551 19.8857C26.5551 21.4658 25.3291 22.6918 23.749 22.6918ZM0.674988 13.0475L6.50453 26.8051L4.4073 31.7634H9.52861L17.293 13.0475H12.1979L9.03834 21.0567L5.9056 13.0475H0.674988ZM61.3981 19.8857C61.3981 23.9722 58.2654 27.0506 54.0971 27.0506C49.9289 27.0506 46.7962 23.9722 46.7962 19.8857C46.7962 15.7993 49.9289 12.7209 54.0971 12.7209C58.2654 12.7209 61.3981 15.7993 61.3981 19.8857ZM76.817 19.8857C76.817 23.9722 73.6843 27.0506 69.516 27.0506C65.3478 27.0506 62.2157 23.9722 62.2157 19.8857C62.2157 15.7993 65.3478 12.7209 69.516 12.7209C73.6843 12.7209 76.817 15.7993 76.817 19.8857ZM32.7119 7V26.6958H37.5341V19.4229C37.5341 18.0058 38.2148 17.1608 39.3047 17.1608C40.367 17.1608 40.966 17.8972 40.966 19.2593V26.6958H45.7881V18.1151C45.7881 14.7913 43.99 12.7209 41.1028 12.7209C39.5501 12.7209 38.351 13.3205 37.5066 14.3828V7H32.7119ZM26.4464 13.0475V14.3285C25.7107 13.3748 24.3486 12.7209 22.7685 12.7209C19.0361 12.7209 16.2575 16.0166 16.2575 19.8857C16.2575 23.8629 19.0087 27.0506 22.7685 27.0506C24.3486 27.0506 25.7107 26.4241 26.4464 25.4161V26.6958H31.105V13.0475H26.4464Z" fill="white"/>
</mask>
<g mask="url(#mask0_0_810)">
<rect y="7" width="90" height="25.5682" fill="#6001D2"/>
</g>
<path fill-rule="evenodd" clip-rule="evenodd" d="M100.67 12.961H97.848L97.7038 12.5966C97.5643 12.2555 97.4272 11.9622 97.185 11.516L95.417 11.975L95.6544 12.3251C95.7929 12.5379 95.8987 12.723 96.012 12.961H92.901V14.525H100.67V12.961ZM99.242 21.835L97.916 22.515C98.562 23.416 98.868 24.096 99.293 25.099L100.534 24.402C100.228 25.065 99.82 25.728 99.31 26.374L100.891 27.479C102.693 25.065 103.152 22.243 103.152 19.302V18.537H105.005V27.513H106.756V18.537H108.422V16.854H103.152V14.321C104.92 14.202 106.654 13.862 108.32 13.25L107.487 11.584C105.702 12.332 103.56 12.706 101.452 12.706V19.302C101.452 21.036 101.282 22.634 100.619 24.181C100.262 23.399 99.769 22.515 99.242 21.835ZM100.619 21.342V19.778H97.695V18.486H100.806V16.922H98.97C99.276 16.31 99.497 15.664 99.701 15.001L98.154 14.559C97.95 15.375 97.712 16.174 97.321 16.922H96.267C96.029 16.123 95.74 15.307 95.366 14.559L93.853 15.035C94.176 15.63 94.414 16.276 94.635 16.922H92.527V18.486H96.046V19.778H92.748V21.342H96.046V27.462H97.695V21.342H100.619ZM95.672 22.464L94.278 21.835C93.785 22.94 93.241 23.96 92.459 24.895L93.717 25.915C94.601 24.742 95.077 23.773 95.672 22.464ZM110.122 12.128V27.496H111.822V17.415H116.667V12.128H110.122ZM124.878 26.068V12.128H118.248V17.415H123.195V25.405C123.195 25.711 123.059 25.779 122.77 25.779H122.379V24.521H121.036V19.574H122.175V18.282H112.842V19.574H113.93V24.521H112.57V25.779H119.506V27.122H121.036V25.779H121.41L121.682 27.496H123.45C124.368 27.496 124.878 26.986 124.878 26.068ZM115.086 13.352V14.304H111.822V13.352H115.086ZM119.863 13.352H123.195V14.304H119.863V13.352ZM115.086 15.273V16.242H111.822V15.273H115.086ZM119.863 15.273H123.195V16.242H119.863V15.273ZM115.443 20.509V19.574H119.506V20.509H115.443ZM115.443 21.563H119.506V22.498H115.443V21.563ZM115.443 23.552H119.506V24.521H115.443V23.552Z" fill="#232A31"/>
</svg>
