<svg id="群組_1" data-name="群組 1" xmlns="http://www.w3.org/2000/svg" width="50" height="25" viewBox="0 0 20 10">
  <defs>
    <style>
      .cls-1 {
        fill: #5f9199;
        fill-rule: evenodd;
      }
    </style>
  </defs>
  <path id="_" data-name="&gt;" class="cls-1" d="M622.837,1423.61l-4.545-4.45a0.568,0.568,0,0,0-.79,0l-0.335.33a0.535,0.535,0,0,0,0,.77l3.816,3.74-3.82,3.74a0.529,0.529,0,0,0-.163.38,0.534,0.534,0,0,0,.163.39l0.334,0.33a0.569,0.569,0,0,0,.791,0l4.549-4.45A0.569,0.569,0,0,0,623,1424,0.534,0.534,0,0,0,622.837,1423.61Z" transform="translate(-603 -1419)"/>
  <path id="形狀_2" data-name="形狀 2" class="cls-1" d="M622,1423v2H603v-2h19Z" transform="translate(-603 -1419)"/>
</svg>
