<svg xmlns="http://www.w3.org/2000/svg" width="9" height="16" viewBox="0 0 9 16">
  <defs>
    <style>
      .cls-1 {
        fill: #666;
        fill-rule: evenodd;
      }
    </style>
  </defs>
  <path id="_" data-name="&gt;" class="cls-1" d="M1519.76,920.375l-6.82-7.12a0.822,0.822,0,0,0-1.19,0l-0.5.524a0.9,0.9,0,0,0,0,1.238l5.73,5.979-5.74,5.986a0.918,0.918,0,0,0,0,1.238l0.51,0.524a0.787,0.787,0,0,0,.59.256,0.82,0.82,0,0,0,.59-0.256l6.83-7.126A0.925,0.925,0,0,0,1519.76,920.375Z" transform="translate(-1511 -913)"/>
</svg>
