<svg id="圖層_1" data-name="圖層 1" xmlns="http://www.w3.org/2000/svg" viewBox="0 0 97.32 97.32"><defs><style>.cls-1{fill:#683a08;}</style></defs><path class="cls-1" d="M48.66,7.62A41,41,0,0,0,32.3,86.27l.53-10.34c0-8.25-6.1-5.62-6.1-11.38,0-3.22.1-10,.1-15C26.83,36.07,32.55,23,34,20.12s4.74-6.07,4.78-3c0,4.42.18,55.87.18,55.87l.62,15.65a41.07,41.07,0,0,0,9.12,1.06,40.47,40.47,0,0,0,5.07-.34l1.36-26.3a13.16,13.16,0,0,1-8-5.55c-2.23-3.31,1.71-32.73,1.71-32.73h2.55v27.6h2.54V24.77h2.76v27.6h2.54V24.77h2.86v27.6h2.54V24.77h2s3.92,29.42,1.7,32.73A13.27,13.27,0,0,1,60.35,63a.49.49,0,0,0-.12,0l1.29,24.53a41,41,0,0,0-12.86-80Zm0,0"/><path class="cls-1" d="M48.66,0A48.66,48.66,0,1,0,97.32,48.66,48.72,48.72,0,0,0,48.66,0Zm0,93.69a45,45,0,1,1,45-45,45.1,45.1,0,0,1-45,45Zm0,0"/></svg>