<svg id="圖層_1" data-name="圖層 1" xmlns="http://www.w3.org/2000/svg" viewBox="0 0 394.42 479.05"><defs><style>.cls-1{fill:#6c6c6c;}</style></defs><path class="cls-1" d="M346.25,424.39c-1.7,29.87-24.8,54.66-55.39,54.66H103.56c-30.58,0-53.68-24.79-55.39-54.66L27.86,109.25A5.16,5.16,0,0,1,33,103.78H361.39a5.16,5.16,0,0,1,5.17,5.47L346.25,424.39Zm-28.87-1.58,18.88-290H58.17l18.88,290c.82,14.41,11.46,27.25,26.51,27.25h187.3c15.05,0,25.69-12.84,26.52-27.25Z"/><path class="cls-1" d="M116.2,205.49a14.44,14.44,0,1,1,28.87-.9l6.86,172.75a14.44,14.44,0,0,1-28.87.9L116.2,205.49Z"/><path class="cls-1" d="M182.72,205a14.49,14.49,0,1,1,29,0V377.85a14.49,14.49,0,1,1-29,0V205Z"/><path class="cls-1" d="M249.35,204.59a14.45,14.45,0,1,1,28.88.9l-6.86,172.75a14.45,14.45,0,0,1-28.88-.9l6.86-172.75Z"/><path class="cls-1" d="M14.49,79.71a14.49,14.49,0,0,1,0-29h85.93v-16A34.74,34.74,0,0,1,135.1,0H259.33A34.76,34.76,0,0,1,294,34.68v16h85.92a14.49,14.49,0,1,1,0,29Zm114.91-29H265v-16A5.74,5.74,0,0,0,259.33,29H135.1a5.75,5.75,0,0,0-5.7,5.69v16Z"/></svg>