<?xml version="1.0" encoding="utf-8"?>
<!-- Generator: Adobe Illustrator 25.4.1, SVG Export Plug-In . SVG Version: 6.00 Build 0)  -->
<svg version="1.1" id="圖層_1" xmlns="http://www.w3.org/2000/svg" xmlns:xlink="http://www.w3.org/1999/xlink" x="0px" y="0px"
	 viewBox="0 0 632 78" style="enable-background:new 0 0 632 78;" xml:space="preserve">
<style type="text/css">
	.st0{fill:#231815;}
</style>
<g>
	<g>
		<g>
			<path class="st0" d="M450.62,45.33h-8.01c2.57,2.22,5.75,5.14,7.29,7.19l-4.52,3.41c-1.59-2.22-4.98-5.73-7.7-8.11l3.49-2.49
				h-10.68l4.57,1.68c-2.21,3.19-5.7,6.81-8.63,9.03c-0.98-1.03-3.13-2.92-4.37-3.79c2.72-1.78,5.65-4.38,7.5-6.92h-7.4v-5.19h5.24
				V25h-3.29v-4.33c-0.56,0.76-1.13,1.41-1.69,2c-0.72-0.81-2.36-2.38-3.6-3.35h-6.11c0,2-0.05,3.89-0.1,5.84h8.32v2.49
				c-0.26,16.87-0.51,23.2-1.75,25.04c-0.87,1.46-1.69,1.95-3.03,2.27c-1.13,0.27-2.82,0.27-4.67,0.22
				c-0.1-1.73-0.67-4.11-1.39-5.62c1.34,0.11,2.47,0.16,3.13,0.16c0.67,0,0.98-0.16,1.34-0.81c0.62-1.14,0.87-5.57,1.08-17.9h-3.34
				c-0.62,9.73-2.05,18.55-5.8,24.82c-0.92-1.46-2.62-3.35-4.06-4.22c4.42-7.52,4.88-19.63,5.03-32.28h-4.52v-5.68h7.96
				c-0.62-2.05-1.8-4.81-2.83-7.03l5.19-1.46c1.23,2.27,2.57,5.35,3.29,7.3l-3.49,1.19h7.65v2.33c2.21-3.14,3.96-7.03,5.03-11.09
				l5.34,1.3c-0.36,1.3-0.82,2.6-1.23,3.89h20.24v5.19h-22.55c-0.87,1.68-1.8,3.14-2.82,4.54h2.67v-2.97h5.34v2.97h7.91v-2.97H446
				v2.97h3.39V25H446v15.14h4.62V45.33z M432.75,25v2.27h7.91V25H432.75z M432.75,33.65h7.91v-2.38h-7.91V33.65z M432.75,40.14h7.91
				v-2.49h-7.91V40.14z"/>
			<path class="st0" d="M478.31,32.14v17.63c0,2.43-0.46,3.79-1.85,4.6s-3.34,0.97-6.27,0.92c-0.15-1.35-0.82-3.46-1.44-4.7
				c1.8,0.05,3.54,0,4.16,0c0.57,0,0.77-0.22,0.77-0.81v-7.03l-2.77,1.24c-0.46-1.84-1.34-4.65-2.21-6.98
				c-0.26,6.49-1.18,13.84-4.01,18.82c-0.87-0.87-2.93-2.27-4.06-2.76c2.83-5.14,3.39-12.33,3.49-18.6l-2.57,0.43l-0.67-5.3
				c0.98-0.11,2.05-0.27,3.24-0.38V11.8h4.31c0.41-2.16,0.87-4.65,1.08-6.54l5.5,0.97c-0.56,1.89-1.23,3.84-1.8,5.57h5.08v15.41
				L479.8,27l0.41,4.81L478.31,32.14z M473.69,32.9l-4.88,0.81c0,0.7-0.05,1.41-0.05,2.16l2.77-1.08c0.72,1.78,1.54,4,2.16,5.79
				V32.9z M473.69,16.78h-4.88v2.6l2.93-1.08c0.67,1.62,1.44,3.73,1.95,5.41V16.78z M468.81,28.57l4.88-0.65V25.7l-2.88,1.19
				c-0.36-1.78-1.23-4.49-2-6.65V28.57z M509.49,49.12v5.41h-30.71v-5.41h3.18V34.9h25.22v14.22H509.49z M480.88,6.67h14.84v4.65
				h-3.54v3.03h3.13v5.41c1.8-3.89,2.98-9.19,3.65-14.38l4.93,0.97c-0.31,2.11-0.67,4.11-1.08,6.16h6.27v5.41h-7.76
				c-0.72,2.33-1.54,4.43-2.46,6.11c-0.77-0.59-2.31-1.68-3.54-2.38v3.84h-3.13v3.14h4.06v4.65h-15.36V6.67z M485.25,11.32v3.03
				h2.83v-3.03H485.25z M485.25,18.24v3.35h6.21v-3.35H485.25z M488.07,25.49h-2.83v3.14h2.83V25.49z M486.79,49.12h2.57v-9.14
				h-2.57V49.12z M493.1,39.98v9.14h2.62v-9.14H493.1z M497.21,25.65h11.2V31h-11.2V25.65z M499.42,39.98v9.14h2.72v-9.14H499.42z"
				/>
			<path class="st0" d="M536.62,42.47c-3.03,4.11-7.6,8.54-11.3,11.19c-1.28-1.14-3.8-3.24-5.34-4.22c3.85-2.22,7.96-5.89,10.43-9.3
				L536.62,42.47z M546.89,38.14v10.71c0,3.19-0.62,4.81-2.88,5.84c-2.16,0.97-5.09,1.03-8.88,1.03c-0.31-1.89-1.34-4.6-2.21-6.27
				c2.62,0.11,5.75,0.11,6.63,0.11c0.87-0.05,1.13-0.22,1.13-0.87v-10c-11.66,0.97-13.97,1.35-15.77,2.06
				c-0.26-1.14-1.13-4.22-1.8-5.79c2.05-0.32,4.01-1.14,7.14-2.76c1.59-0.7,4.57-2.27,8.12-4.49c-8.22,0.59-9.96,0.87-11.15,1.41
				c-0.31-1.24-1.18-4.27-1.8-5.95c1.39-0.22,2.57-0.81,4.31-1.78c1.39-0.7,4.83-2.76,8.22-5.46c-4.93,1.03-9.91,1.84-14.64,2.49
				c-0.21-1.62-1.03-4.11-1.7-5.46c11.81-1.68,24.76-4.49,32.61-8l4.52,5.08c-4.26,1.78-9.35,3.3-14.74,4.54l2.77,1.89
				c-2.77,2.16-5.7,4.22-8.73,6.06l8.89-0.49c1.9-1.41,3.7-2.81,5.44-4.33l4.52,4.27c-5.44,4.33-11.4,8.06-17.36,11.14l14.48-1.03
				c-1.08-1.35-2.21-2.65-3.29-3.84l5.08-2.7c3.65,3.84,7.86,8.87,10.02,12.17l-5.19,3.3c-0.67-1.08-1.54-2.38-2.62-3.79
				L546.89,38.14z M554.59,39.44c3.95,2.76,9.04,6.92,11.5,9.9l-5.39,3.79c-2.21-2.87-7.14-7.25-11.09-10.27L554.59,39.44z"/>
			<path class="st0" d="M578.84,7.7h26.71v6.16h-13.76c-0.46,2-0.92,3.89-1.49,5.84h9.5l1.03-0.22l3.85,1.19
				c-2.47,18.87-9.81,29.8-21.57,35.53c-0.82-1.62-2.41-4.16-3.65-5.46c4.73-1.95,8.68-5.08,11.81-9.35
				c-1.95-2.16-4.83-4.7-7.19-6.92c-0.82,1.3-1.64,2.49-2.57,3.52c-0.67-1.35-2.52-4.38-3.7-5.68c3.75-4.38,6.32-11.14,7.86-18.44
				h-6.83V7.7z M588.39,25.59c-0.46,1.19-0.92,2.33-1.44,3.35c2.47,2.11,5.5,4.6,7.7,6.71c1.39-2.97,2.47-6.38,3.29-10.06H588.39z
				 M613.92,41.98h-6.01V10.99h6.01V41.98z M624.6,5.75V48.2c0,3.52-0.67,5.14-2.62,6.17c-1.95,0.97-4.83,1.19-8.99,1.14
				c-0.26-1.73-1.13-4.43-1.95-6.16c2.62,0.11,5.34,0.11,6.21,0.05c0.87,0,1.18-0.27,1.18-1.19V5.75H624.6z"/>
		</g>
	</g>
	<g>
		<g>
			<g>
				<path class="st0" d="M93.68,20.08c-2.93-3.55-7.73-5.71-13.1-5.71c-10.32,0-20.22,7.74-20.22,21.26
					c0,13.31,10.25,21.19,20.08,21.19c5.36,0,10.25-2.37,13.24-6.2v5.37h9.41V15.21h-9.41V20.08z M81.97,48.18
					c-6.97,0-12.34-5.58-12.34-12.69c0-7.04,5.37-12.55,12.34-12.55c6.97,0,12.2,5.65,12.2,12.55
					C94.17,42.53,88.94,48.18,81.97,48.18z"/>
				<path class="st0" d="M157.25,20.08c-2.93-3.55-7.74-5.71-13.1-5.71c-10.32,0-20.21,7.74-20.21,21.26
					c0,13.31,10.24,21.19,20.07,21.19c5.37,0,10.25-2.37,13.24-6.2v5.37h9.41V15.21h-9.41V20.08z M145.53,48.18
					c-6.97,0-12.33-5.58-12.33-12.69c0-7.04,5.37-12.55,12.33-12.55c6.97,0,12.2,5.65,12.2,12.55
					C157.73,42.53,152.5,48.18,145.53,48.18z"/>
				<polygon class="st0" points="233.36,42.67 222,15.21 211.96,15.21 228.69,53.82 221.37,71.39 231.06,71.39 253.99,15.21 
					244.09,15.21 				"/>
				<polygon class="st0" points="210.91,15.21 199.77,15.21 190.56,28.1 181.29,15.21 169.79,15.21 184.57,35.21 169.23,55.98 
					180.73,55.98 190.42,42.39 200.39,55.98 211.89,55.98 196.28,35.28 				"/>
				<rect x="109.57" y="4.4" class="st0" width="9.47" height="51.58"/>
				<path class="st0" d="M29.86,36.57H46.1c-1.81,6.7-7.11,11.01-14.71,11.01c-9.9,0-17-7.52-17-16.93
					c0-9.27,7.18-16.94,16.66-16.94c6.69,0,11.57,3.06,14.7,8.85l8.36-5.02C49.79,9.88,41.5,4.51,30.97,4.51
					c-15.05,0-26,11.64-26,26.14c0,14.08,10.53,26.14,26.42,26.14c15.19,0,24.88-11.78,24.88-25.51v-3.76H29.86V36.57z"/>
			</g>
		</g>
		<g>
			<path class="st0" d="M266.71,47.65l8.64-6.83c2.58,4.39,6.55,6.9,11.15,6.9c5.02,0,7.74-3.28,7.74-6.83
				c0-4.32-5.16-5.64-10.59-7.32c-6.83-2.16-14.43-4.81-14.43-14.5c0-8.15,7.11-14.57,16.87-14.57c8.22,0,12.96,3.14,17.08,7.39
				l-7.8,5.92c-2.16-3.21-5.16-4.88-9.2-4.88c-4.6,0-7.11,2.51-7.11,5.78c0,4.04,4.88,5.37,10.38,7.18
				c6.9,2.23,14.71,5.3,14.71,15.05c0,8.01-6.41,15.82-17.56,15.82C277.38,56.78,271.31,52.88,266.71,47.65z"/>
			<path class="st0" d="M308.25,47.17c0-8.71,7.04-13.94,13.38-18.19c5.02-3.49,9.62-6.34,9.62-10.25c0-3.35-2.44-6.06-6.97-6.06
				c-4.39,0-7.18,3-8.92,7.25l-8.15-4.11c3.14-6.9,8.92-11.29,17.14-11.29c10.31,0,16.52,6.27,16.52,14.29
				c0,8.08-6.62,12.54-12.68,16.66c-5.3,3.55-10.39,6.76-10.45,11.57h22.93v9.06h-32.41V47.17z"/>
			<path class="st0" d="M345.6,47.17c0-8.71,7.04-13.94,13.38-18.19c5.02-3.49,9.62-6.34,9.62-10.25c0-3.35-2.44-6.06-6.97-6.06
				c-4.39,0-7.18,3-8.92,7.25l-8.15-4.11c3.14-6.9,8.92-11.29,17.14-11.29c10.31,0,16.52,6.27,16.52,14.29
				c0,8.08-6.62,12.54-12.68,16.66c-5.3,3.55-10.39,6.76-10.45,11.57h22.93v9.06H345.6V47.17z"/>
		</g>
	</g>
</g>
</svg>
