<?xml version="1.0" encoding="utf-8"?>
<!-- Generator: Adobe Illustrator 25.4.1, SVG Export Plug-In . SVG Version: 6.00 Build 0)  -->
<svg version="1.1" xmlns="http://www.w3.org/2000/svg" xmlns:xlink="http://www.w3.org/1999/xlink" x="0px" y="0px"
	 viewBox="0 0 707.3 68.31" style="enable-background:new 0 0 707.3 68.31;" xml:space="preserve">
<style type="text/css">
	.st0{display:none;}
	.st1{display:inline;}
</style>
<g id="logo" class="st0">
	<g class="st1">
		<g>
			<g>
				<path d="M79.97,25.45c-2.28-2.76-6.01-4.44-10.18-4.44c-8.02,0-15.71,6.01-15.71,16.52c0,10.34,7.96,16.46,15.6,16.46
					c4.17,0,7.96-1.84,10.29-4.82v4.17h7.31V21.66h-7.31V25.45z M70.87,47.28c-5.42,0-9.59-4.33-9.59-9.86
					c0-5.47,4.17-9.75,9.59-9.75c5.41,0,9.48,4.39,9.48,9.75C80.35,42.89,76.28,47.28,70.87,47.28z"/>
				<path d="M129.36,25.45c-2.28-2.76-6.01-4.44-10.18-4.44c-8.02,0-15.7,6.01-15.7,16.52c0,10.34,7.96,16.46,15.6,16.46
					c4.17,0,7.96-1.84,10.29-4.82v4.17h7.31V21.66h-7.31V25.45z M120.26,47.28c-5.41,0-9.58-4.33-9.58-9.86
					c0-5.47,4.17-9.75,9.58-9.75c5.42,0,9.48,4.39,9.48,9.75C129.74,42.89,125.67,47.28,120.26,47.28z"/>
				<polygon points="188.5,43 179.67,21.66 171.87,21.66 184.87,51.67 179.18,65.31 186.71,65.31 204.53,21.66 196.84,21.66 				"/>
				<polygon points="171.06,21.66 162.4,21.66 155.25,31.68 148.04,21.66 139.11,21.66 150.59,37.21 138.67,53.35 147.61,53.35 
					155.14,42.78 162.88,53.35 171.82,53.35 159.69,37.26 				"/>
				<rect x="92.32" y="13.27" width="7.36" height="40.08"/>
				<path d="M30.38,38.26H43c-1.41,5.2-5.52,8.56-11.43,8.56c-7.69,0-13.21-5.85-13.21-13.16c0-7.21,5.58-13.16,12.94-13.16
					c5.2,0,8.99,2.38,11.43,6.88l6.5-3.9c-3.36-5.96-9.8-10.13-17.98-10.13c-11.7,0-20.2,9.04-20.2,20.31
					c0,10.94,8.18,20.31,20.53,20.31c11.8,0,19.33-9.15,19.33-19.82v-2.92H30.38V38.26z"/>
			</g>
		</g>
		<g>
			<path d="M214.42,46.87l6.72-5.31c2,3.41,5.09,5.36,8.66,5.36c3.9,0,6.01-2.55,6.01-5.31c0-3.36-4.01-4.39-8.23-5.69
				c-5.31-1.68-11.21-3.74-11.21-11.26c0-6.34,5.52-11.32,13.1-11.32c6.39,0,10.07,2.44,13.27,5.74l-6.06,4.6
				c-1.68-2.49-4.01-3.79-7.15-3.79c-3.57,0-5.52,1.95-5.52,4.49c0,3.14,3.79,4.17,8.07,5.58c5.36,1.73,11.43,4.12,11.43,11.7
				c0,6.23-4.98,12.29-13.65,12.29C222.7,53.97,217.99,50.93,214.42,46.87z"/>
			<path d="M246.69,46.49c0-6.77,5.47-10.83,10.4-14.13c3.9-2.71,7.47-4.93,7.47-7.96c0-2.6-1.9-4.71-5.42-4.71
				c-3.41,0-5.58,2.33-6.93,5.63l-6.34-3.2c2.44-5.36,6.93-8.77,13.32-8.77c8.01,0,12.83,4.87,12.83,11.1
				c0,6.28-5.14,9.75-9.86,12.94c-4.12,2.76-8.07,5.25-8.12,8.99h17.82v7.04h-25.18V46.49z"/>
			<path d="M275.71,46.49c0-6.77,5.47-10.83,10.4-14.13c3.9-2.71,7.47-4.93,7.47-7.96c0-2.6-1.9-4.71-5.42-4.71
				c-3.41,0-5.58,2.33-6.93,5.63l-6.34-3.2c2.44-5.36,6.93-8.77,13.32-8.77c8.01,0,12.83,4.87,12.83,11.1
				c0,6.28-5.14,9.75-9.86,12.94c-4.12,2.76-8.07,5.25-8.12,8.99h17.82v7.04h-25.18V46.49z"/>
		</g>
		<g>
			<rect x="316.9" y="5.97" width="1.98" height="55.37"/>
		</g>
		<g>
			<rect x="460.91" y="5.97" width="1.98" height="55.37"/>
		</g>
		<g>
			<path d="M334.72,46.87l6.72-5.31c2,3.41,5.09,5.36,8.66,5.36c3.9,0,6.01-2.55,6.01-5.31c0-3.36-4.01-4.39-8.23-5.69
				c-5.31-1.68-11.21-3.74-11.21-11.26c0-6.34,5.52-11.32,13.1-11.32c6.39,0,10.07,2.44,13.27,5.74l-6.06,4.6
				c-1.68-2.49-4.01-3.79-7.15-3.79c-3.57,0-5.52,1.95-5.52,4.49c0,3.14,3.79,4.17,8.07,5.58c5.36,1.73,11.43,4.12,11.43,11.7
				c0,6.23-4.98,12.29-13.65,12.29C343,53.97,338.29,50.93,334.72,46.87z"/>
			<path d="M366.99,46.49c0-6.77,5.47-10.83,10.4-14.13c3.9-2.71,7.47-4.93,7.47-7.96c0-2.6-1.9-4.71-5.42-4.71
				c-3.41,0-5.58,2.33-6.93,5.63l-6.34-3.2c2.44-5.36,6.93-8.77,13.32-8.77c8.01,0,12.83,4.87,12.83,11.1
				c0,6.28-5.14,9.75-9.86,12.94c-4.12,2.76-8.07,5.25-8.12,8.99h17.82v7.04h-25.18V46.49z"/>
			<path d="M396.01,46.49c0-6.77,5.47-10.83,10.4-14.13c3.9-2.71,7.47-4.93,7.47-7.96c0-2.6-1.9-4.71-5.42-4.71
				c-3.41,0-5.58,2.33-6.93,5.63l-6.34-3.2c2.44-5.36,6.93-8.77,13.32-8.77c8.01,0,12.83,4.87,12.83,11.1
				c0,6.28-5.14,9.75-9.86,12.94c-4.12,2.76-8.07,5.25-8.12,8.99h17.82v7.04h-25.18V46.49z"/>
			<path d="M425.04,30.57h6.99V23.7h6.12v6.88h6.93v6.23h-6.93v6.93h-6.12V36.8h-6.99V30.57z"/>
		</g>
		<g>
			<path d="M478.73,46.87l6.72-5.31c2,3.41,5.09,5.36,8.66,5.36c3.9,0,6.01-2.55,6.01-5.31c0-3.36-4.01-4.39-8.23-5.69
				c-5.31-1.68-11.21-3.74-11.21-11.26c0-6.34,5.52-11.32,13.1-11.32c6.39,0,10.07,2.44,13.27,5.74l-6.06,4.6
				c-1.68-2.49-4.01-3.79-7.15-3.79c-3.57,0-5.52,1.95-5.52,4.49c0,3.14,3.79,4.17,8.07,5.58c5.36,1.73,11.43,4.12,11.43,11.7
				c0,6.23-4.98,12.29-13.65,12.29C487.02,53.97,482.31,50.93,478.73,46.87z"/>
			<path d="M511,46.49c0-6.77,5.47-10.83,10.4-14.13c3.9-2.71,7.47-4.93,7.47-7.96c0-2.6-1.9-4.71-5.42-4.71
				c-3.41,0-5.58,2.33-6.93,5.63l-6.34-3.2c2.44-5.36,6.93-8.77,13.32-8.77c8.01,0,12.83,4.87,12.83,11.1
				c0,6.28-5.14,9.75-9.86,12.94c-4.12,2.76-8.07,5.25-8.12,8.99h17.82v7.04H511V46.49z"/>
			<path d="M540.03,46.49c0-6.77,5.47-10.83,10.4-14.13c3.9-2.71,7.47-4.93,7.47-7.96c0-2.6-1.9-4.71-5.42-4.71
				c-3.41,0-5.58,2.33-6.93,5.63l-6.34-3.2c2.44-5.36,6.93-8.77,13.32-8.77c8.01,0,12.83,4.87,12.83,11.1
				c0,6.28-5.14,9.75-9.86,12.94c-4.12,2.76-8.07,5.25-8.12,8.99h17.82v7.04h-25.18V46.49z"/>
		</g>
		<g>
			<g>
				<path d="M598.88,40.21c0,3.9-3.09,6.93-6.93,6.93c-3.9,0-6.82-3.03-6.82-6.93V13.89h-7.36v25.89c0,9.26,6.01,14.19,14.24,14.19
					c8.18,0,14.24-4.93,14.24-14.19V13.89h-7.37V40.21z"/>
				<rect x="612.6" y="13.35" width="7.36" height="40.07"/>
				<path d="M635.43,11.89l-7.37,5.04v4.82h-5.41v6.55h5.41v11.91c0,10.07,2.98,13.21,12.78,13.21h1.03v-6.88
					c-5.63,0-6.44-0.87-6.44-6.39V28.3h6.44v-6.55h-6.44V11.89z"/>
				<path d="M653.86,26.46v-4.71h-7.26v31.68h7.31v-16.9c0-5.47,2.22-7.74,6.5-7.74c2.11,0,3.3,0.54,4.39,1.25l2.76-6.93
					c-1.46-0.81-3.25-1.35-5.58-1.35C658.03,21.74,655.32,23.32,653.86,26.46z"/>
				<path d="M690.48,21.74v3.79c-2.33-2.76-6.01-4.44-10.18-4.44c-8.01,0-15.7,6.01-15.7,16.52c0,10.4,7.96,16.46,15.6,16.46
					c4.17,0,7.96-1.79,10.29-4.76v4.12h7.31V21.74H690.48z M681.38,47.36c-5.42,0-9.59-4.33-9.59-9.86c0-5.47,4.17-9.75,9.59-9.75
					c5.47,0,9.48,4.33,9.48,9.75C690.86,42.97,686.85,47.36,681.38,47.36z"/>
			</g>
		</g>
	</g>
</g>
<g id="圖層_2">
	<g>
		<g>
			<g>
				<polygon points="238.6,14.64 210.39,14.64 210.39,21.59 220.83,21.59 220.83,53.71 228.11,53.71 228.11,21.59 238.6,21.59 				
					"/>
				<path d="M260.22,26.14c-2.25-2.68-5.94-4.39-10.06-4.39c-7.92,0-15.52,5.94-15.52,16.33c0,10.22,7.87,16.27,15.42,16.27
					c4.12,0,7.87-1.82,10.17-4.71v4.07h7.23V22.4h-7.23V26.14z M251.23,47.71c-5.35,0-9.47-4.28-9.47-9.74
					c0-5.41,4.12-9.64,9.47-9.64c5.35,0,9.37,4.34,9.37,9.64C260.6,43.38,256.58,47.71,251.23,47.71"/>
				<path d="M288.91,21.75c-4.17,0-7.92,1.82-10.12,4.6V14.1h-7.23v39.61h7.17v-4.07c2.25,2.94,6.05,4.71,10.28,4.71
					c7.55,0,15.31-6.05,15.31-16.27C304.32,27.7,296.78,21.75,288.91,21.75 M287.79,47.71c-5.35,0-9.31-4.34-9.31-9.74
					c0-5.3,3.96-9.64,9.31-9.64c5.3,0,9.42,4.23,9.42,9.64C297.21,43.43,293.08,47.71,287.79,47.71"/>
			</g>
			<g>
				<path d="M79.96,26.06c-2.25-2.73-5.94-4.39-10.06-4.39c-7.92,0-15.53,5.94-15.53,16.33c0,10.22,7.87,16.27,15.42,16.27
					c4.12,0,7.87-1.82,10.17-4.76v4.12h7.23V22.31h-7.23V26.06z M70.97,47.64c-5.35,0-9.47-4.28-9.47-9.75
					c0-5.4,4.12-9.63,9.47-9.63c5.35,0,9.37,4.34,9.37,9.63C80.34,43.3,76.32,47.64,70.97,47.64"/>
				<path d="M128.78,26.06c-2.25-2.73-5.94-4.39-10.06-4.39c-7.92,0-15.52,5.94-15.52,16.33c0,10.22,7.87,16.27,15.42,16.27
					c4.12,0,7.87-1.82,10.17-4.76v4.12h7.22V22.31h-7.22V26.06z M119.79,47.64c-5.35,0-9.47-4.28-9.47-9.75
					c0-5.4,4.12-9.63,9.47-9.63c5.35,0,9.37,4.34,9.37,9.63C129.15,43.3,125.14,47.64,119.79,47.64"/>
				<polygon points="187.23,43.41 178.51,22.31 170.8,22.31 183.65,51.97 178.02,65.46 185.47,65.46 203.08,22.31 195.48,22.31 				
					"/>
				<polygon points="170,22.31 161.44,22.31 154.37,32.22 147.25,22.31 138.41,22.31 149.77,37.68 137.99,53.63 146.82,53.63 
					154.26,43.19 161.92,53.63 170.75,53.63 158.76,37.73 				"/>
				<rect x="92.17" y="14.02" width="7.28" height="39.61"/>
				<path d="M30.95,38.72h12.47c-1.39,5.14-5.46,8.46-11.3,8.46c-7.6,0-13.06-5.78-13.06-13.01c0-7.12,5.51-13.01,12.79-13.01
					c5.14,0,8.88,2.35,11.29,6.8l6.42-3.85c-3.32-5.89-9.69-10.01-17.77-10.01c-11.56,0-19.97,8.94-19.97,20.07
					c0,10.81,8.08,20.07,20.29,20.07c11.67,0,19.11-9.04,19.11-19.59v-2.89H30.95V38.72z"/>
			</g>
		</g>
		<g>
			<path d="M314.1,47.23l6.64-5.25c1.98,3.37,5.03,5.3,8.56,5.3c3.85,0,5.94-2.52,5.94-5.25c0-3.32-3.96-4.33-8.14-5.62
				c-5.25-1.66-11.08-3.69-11.08-11.13c0-6.26,5.46-11.19,12.95-11.19c6.32,0,9.96,2.41,13.11,5.67l-5.99,4.55
				c-1.66-2.46-3.96-3.75-7.07-3.75c-3.53,0-5.46,1.93-5.46,4.44c0,3.1,3.75,4.12,7.97,5.51c5.3,1.71,11.29,4.07,11.29,11.56
				c0,6.16-4.92,12.15-13.49,12.15C322.29,54.24,317.63,51.25,314.1,47.23z"/>
			<path d="M346.43,42.04c0-4.01,1.77-7.12,4.82-9.15c-2.19-1.82-3.48-4.39-3.48-7.65c0-6.74,5.08-11.13,12.79-11.13
				c7.55,0,12.68,4.39,12.68,11.13c0,3.32-1.44,5.89-3.69,7.71c2.94,2.03,4.71,5.14,4.71,9.1c0,7.49-5.19,12.2-13.97,12.2
				C351.46,54.24,346.43,49.53,346.43,42.04z M367.3,42.04c0-3.21-2.36-5.78-6.85-5.78c-4.55,0-7.01,2.62-7.01,5.78
				c0,3.21,2.19,5.78,6.85,5.78C364.89,47.82,367.3,45.25,367.3,42.04z M366.6,25.23c0-2.73-2.19-4.98-5.99-4.98
				c-3.91,0-6.21,2.25-6.21,4.98c0,2.78,1.98,4.92,5.99,4.92C364.46,30.16,366.6,27.96,366.6,25.23z"/>
		</g>
		<g>
			<path d="M407.38,40.65c0,3.85-3.05,6.85-6.85,6.85c-3.85,0-6.74-3-6.74-6.85V14.63h-7.28v25.58c0,9.15,5.94,14.02,14.08,14.02
				c8.08,0,14.08-4.87,14.08-14.02V14.63h-7.28V40.65z"/>
			<rect x="420.94" y="14.1" width="7.28" height="39.61"/>
			<path d="M443.5,12.65l-7.28,4.98v4.76h-5.35v6.48h5.35v11.77c0,9.96,2.94,13.06,12.63,13.06h1.02v-6.8
				c-5.57,0-6.37-0.86-6.37-6.32V28.87h6.37V22.4h-6.37V12.65z"/>
			<path d="M461.72,27.05V22.4h-7.17v31.31h7.23v-16.7c0-5.41,2.19-7.65,6.42-7.65c2.09,0,3.27,0.53,4.34,1.23l2.73-6.85
				c-1.44-0.8-3.21-1.34-5.51-1.34C465.84,22.4,463.17,23.95,461.72,27.05z"/>
			<path d="M497.91,22.4v3.75c-2.3-2.73-5.94-4.39-10.06-4.39c-7.92,0-15.52,5.94-15.52,16.33c0,10.28,7.87,16.27,15.42,16.27
				c4.12,0,7.87-1.77,10.17-4.71v4.07h7.23V22.4H497.91z M488.92,47.71c-5.35,0-9.47-4.28-9.47-9.74c0-5.41,4.12-9.63,9.47-9.63
				c5.41,0,9.37,4.28,9.37,9.63C498.29,43.38,494.33,47.71,488.92,47.71z"/>
		</g>
	</g>
	<g>
		<g>
			<rect x="520.79" y="6.81" width="1.96" height="54.73"/>
		</g>
		<g>
			<path d="M538.4,47.23l6.64-5.25c1.98,3.37,5.03,5.3,8.56,5.3c3.85,0,5.94-2.52,5.94-5.25c0-3.32-3.96-4.33-8.14-5.62
				c-5.24-1.66-11.08-3.69-11.08-11.13c0-6.26,5.46-11.19,12.95-11.19c6.32,0,9.96,2.41,13.11,5.67l-5.99,4.55
				c-1.66-2.46-3.96-3.75-7.07-3.75c-3.53,0-5.46,1.93-5.46,4.44c0,3.1,3.75,4.12,7.97,5.51c5.3,1.71,11.29,4.07,11.29,11.56
				c0,6.16-4.92,12.15-13.49,12.15C546.59,54.24,541.94,51.25,538.4,47.23z"/>
			<path d="M570.73,42.04c0-4.01,1.77-7.12,4.82-9.15c-2.19-1.82-3.48-4.39-3.48-7.65c0-6.74,5.08-11.13,12.79-11.13
				c7.55,0,12.68,4.39,12.68,11.13c0,3.32-1.44,5.89-3.69,7.71c2.94,2.03,4.71,5.14,4.71,9.1c0,7.49-5.19,12.2-13.97,12.2
				C575.76,54.24,570.73,49.53,570.73,42.04z M591.61,42.04c0-3.21-2.36-5.78-6.85-5.78c-4.55,0-7.01,2.62-7.01,5.78
				c0,3.21,2.19,5.78,6.85,5.78C589.2,47.82,591.61,45.25,591.61,42.04z M590.91,25.23c0-2.73-2.19-4.98-5.99-4.98
				c-3.91,0-6.21,2.25-6.21,4.98c0,2.78,1.98,4.92,5.99,4.92C588.77,30.16,590.91,27.96,590.91,25.23z"/>
			<path d="M602.84,31.12h6.91v-6.8h6.05v6.8h6.85v6.16h-6.85v6.85h-6.05v-6.85h-6.91V31.12z"/>
		</g>
	</g>
</g>
</svg>
