<svg id="圖層_1" data-name="圖層 1" xmlns="http://www.w3.org/2000/svg" viewBox="0 0 619.63 66.98"><defs><style>.cls-1{fill:#fff;}</style></defs><path class="cls-1" d="M445.65,40.93h-8a58.05,58.05,0,0,1,7.3,7.19l-4.52,3.41a58.22,58.22,0,0,0-7.71-8.11l3.5-2.49H425.51l4.58,1.68a44.16,44.16,0,0,1-8.63,9,39.23,39.23,0,0,0-4.37-3.79,30.44,30.44,0,0,0,7.5-6.92h-7.4V35.74h5.24V20.6h-3.29V16.27a20.82,20.82,0,0,1-1.69,2,33.85,33.85,0,0,0-3.6-3.35h-6.11c0,2-.05,3.89-.1,5.84H416v2.49c-.26,16.87-.51,23.2-1.75,25a4.25,4.25,0,0,1-3,2.28,19.93,19.93,0,0,1-4.67.21,17.19,17.19,0,0,0-1.39-5.62c1.34.11,2.47.16,3.14.16a1.27,1.27,0,0,0,1.33-.81c.62-1.14.87-5.57,1.08-17.9h-3.34c-.61,9.73-2.05,18.55-5.8,24.82a14.86,14.86,0,0,0-4.06-4.22c4.42-7.51,4.88-19.63,5-32.28H398V9.24h8a60.42,60.42,0,0,0-2.83-7L408.31.75a62.14,62.14,0,0,1,3.28,7.3L408.1,9.24h7.66v2.33a35.55,35.55,0,0,0,5-11.09l5.34,1.3c-.36,1.3-.82,2.59-1.23,3.89h20.23v5.19H422.59a35.48,35.48,0,0,1-2.83,4.55h2.67v-3h5.34v3h7.91v-3H441v3h3.4V20.6H441V35.74h4.63ZM427.77,20.6v2.27h7.91V20.6Zm0,8.65h7.91V26.87h-7.91Zm0,6.49h7.91V33.25h-7.91Z"/><path class="cls-1" d="M473.34,27.73V45.36c0,2.44-.46,3.79-1.85,4.6s-3.34,1-6.27.92a16.81,16.81,0,0,0-1.44-4.7c1.8,0,3.55,0,4.16,0s.77-.22.77-.82v-7l-2.77,1.25a70.55,70.55,0,0,0-2.21-7c-.25,6.49-1.18,13.85-4,18.82a18.07,18.07,0,0,0-4.06-2.76c2.82-5.13,3.39-12.33,3.49-18.6l-2.57.43-.66-5.3c1-.1,2.05-.27,3.23-.38V7.4h4.32c.41-2.16.87-4.65,1.07-6.54l5.5,1c-.56,1.9-1.23,3.84-1.8,5.57h5.09V22.81l1.49-.21.41,4.81Zm-4.63.76-4.87.81c0,.71-.06,1.41-.06,2.17l2.78-1.09c.72,1.79,1.54,4,2.15,5.79Zm0-16.11h-4.87V15l2.92-1.08c.67,1.62,1.44,3.73,1.95,5.41Zm-4.87,11.79,4.87-.65V21.3l-2.87,1.19a56.1,56.1,0,0,0-2-6.65Zm40.67,20.55v5.4H473.8v-5.4H477V30.49H502.2V44.72ZM475.91,2.26h14.84V6.92h-3.54v3h3.13v5.41A51.64,51.64,0,0,0,494,1l4.94,1c-.31,2.11-.67,4.11-1.08,6.16h6.26v5.41h-7.75a32.71,32.71,0,0,1-2.47,6.11,38.41,38.41,0,0,0-3.54-2.38v3.84h-3.13v3.14h4.05v4.65H475.91Zm4.36,4.66v3h2.83v-3Zm0,6.92v3.35h6.22V13.84Zm2.83,7.24h-2.83v3.14h2.83Zm-1.29,23.64h2.57V35.58h-2.57Zm6.32-9.14v9.14h2.62V35.58Zm4.11-14.33h11.19V26.6H492.24Zm2.21,14.33v9.14h2.72V35.58Z"/><path class="cls-1" d="M531.64,38.06a56.18,56.18,0,0,1-11.3,11.2A52.47,52.47,0,0,0,515,45a36.19,36.19,0,0,0,10.42-9.3Zm10.27-4.32v10.7c0,3.2-.61,4.82-2.87,5.84s-5.09,1-8.89,1A24.75,24.75,0,0,0,527.94,45c2.62.11,5.75.11,6.63.11s1.13-.22,1.13-.87v-10c-11.66,1-14,1.35-15.77,2a46.71,46.71,0,0,0-1.8-5.78,23.56,23.56,0,0,0,7.14-2.76,72.31,72.31,0,0,0,8.12-4.49c-8.22.6-10,.87-11.15,1.41-.31-1.25-1.18-4.28-1.8-5.95A12.9,12.9,0,0,0,524.76,17,54.8,54.8,0,0,0,533,11.51c-4.93,1-9.91,1.84-14.63,2.49a21.08,21.08,0,0,0-1.7-5.46c11.82-1.68,24.76-4.49,32.62-8l4.52,5.09A93.73,93.73,0,0,1,539,10.16l2.77,1.89a89.85,89.85,0,0,1-8.73,6.06l8.88-.49c1.9-1.4,3.7-2.81,5.45-4.32l4.52,4.27a108.2,108.2,0,0,1-17.36,11.14l14.48-1c-1.08-1.35-2.21-2.65-3.29-3.84l5.09-2.7a101.23,101.23,0,0,1,10,12.17l-5.18,3.29a45.31,45.31,0,0,0-2.62-3.78Zm7.71,1.3c4,2.75,9,6.92,11.5,9.89l-5.39,3.79c-2.21-2.87-7.14-7.25-11.1-10.28Z"/><path class="cls-1" d="M573.86,3.29h26.71V9.46H586.81c-.46,2-.93,3.89-1.49,5.84h9.5l1-.22,3.85,1.19c-2.47,18.87-9.81,29.8-21.57,35.53a27.82,27.82,0,0,0-3.65-5.46A27.44,27.44,0,0,0,586.29,37c-1.95-2.16-4.82-4.7-7.19-6.92a26.37,26.37,0,0,1-2.56,3.52,33.36,33.36,0,0,0-3.7-5.68c3.75-4.38,6.31-11.14,7.86-18.44h-6.84Zm9.56,17.9c-.46,1.19-.93,2.33-1.44,3.35,2.47,2.11,5.5,4.6,7.7,6.71A49.06,49.06,0,0,0,593,21.19Zm25.52,16.39h-6v-31h6ZM619.63,1.35V43.8c0,3.51-.67,5.13-2.62,6.16s-4.83,1.19-9,1.14a26.23,26.23,0,0,0-1.95-6.17c2.62.11,5.34.11,6.21.06s1.18-.27,1.18-1.19V1.35Z"/><path class="cls-1" d="M88.7,15.68A16.85,16.85,0,0,0,75.6,10c-10.32,0-20.22,7.74-20.22,21.26,0,13.31,10.26,21.18,20.08,21.18a16.71,16.71,0,0,0,13.24-6.2v5.37h9.41V10.8H88.7ZM77,43.78A12.36,12.36,0,0,1,64.66,31.09a12.27,12.27,0,1,1,24.53,0C89.19,38.13,84,43.78,77,43.78Z"/><path class="cls-1" d="M152.27,15.68A16.88,16.88,0,0,0,139.17,10C128.85,10,119,17.71,119,31.23,119,44.54,129.2,52.41,139,52.41a16.72,16.72,0,0,0,13.24-6.2v5.37h9.41V10.8h-9.41Zm-11.71,28.1a12.36,12.36,0,0,1-12.34-12.69,12.27,12.27,0,1,1,24.54,0C152.76,38.13,147.53,43.78,140.56,43.78Z"/><polygon class="cls-1" points="228.38 38.27 217.02 10.8 206.98 10.8 223.72 49.42 216.39 66.98 226.08 66.98 249.01 10.8 239.12 10.8 228.38 38.27"/><polygon class="cls-1" points="205.94 10.8 194.79 10.8 185.59 23.7 176.31 10.8 164.81 10.8 179.6 30.81 164.26 51.58 175.76 51.58 185.45 37.99 195.42 51.58 206.92 51.58 191.3 30.88 205.94 10.8"/><rect class="cls-1" x="104.6" width="9.47" height="51.58"/><path class="cls-1" d="M24.88,32.17H41.12c-1.81,6.69-7.11,11-14.7,11a16.62,16.62,0,0,1-17-16.94A16.67,16.67,0,0,1,26.07,9.31c6.69,0,11.57,3.06,14.7,8.85l8.37-5C44.81,5.47,36.52.11,26,.11,10.94.11,0,11.74,0,26.24,0,40.32,10.53,52.38,26.42,52.38c15.19,0,24.88-11.78,24.88-25.51V23.11H24.88Z"/><path class="cls-1" d="M261.74,43.25l8.64-6.83c2.58,4.39,6.55,6.9,11.15,6.9,5,0,7.74-3.28,7.74-6.83,0-4.32-5.16-5.64-10.6-7.32-6.82-2.16-14.42-4.81-14.42-14.49,0-8.16,7.11-14.57,16.86-14.57,8.23,0,13,3.14,17.08,7.39l-7.81,5.92a10.41,10.41,0,0,0-9.2-4.88c-4.6,0-7.1,2.51-7.1,5.79,0,4,4.87,5.36,10.38,7.18,6.9,2.23,14.71,5.29,14.71,15.05,0,8-6.42,15.82-17.57,15.82C272.4,52.38,266.34,48.48,261.74,43.25Z"/><path class="cls-1" d="M303.27,42.76c0-8.71,7-13.94,13.38-18.19,5-3.48,9.62-6.34,9.62-10.24,0-3.35-2.44-6.07-7-6.07s-7.17,3-8.92,7.25l-8.15-4.11C305.36,4.5,311.15.11,319.37.11c10.32,0,16.52,6.27,16.52,14.29s-6.62,12.54-12.68,16.65c-5.3,3.56-10.39,6.76-10.46,11.57h22.93v9.06H303.27Z"/><path class="cls-1" d="M340.63,42.76c0-8.71,7-13.94,13.38-18.19,5-3.48,9.62-6.34,9.62-10.24,0-3.35-2.44-6.07-7-6.07s-7.18,3-8.92,7.25l-8.16-4.11C342.72,4.5,348.5.11,356.73.11c10.31,0,16.52,6.27,16.52,14.29s-6.63,12.54-12.69,16.65c-5.3,3.56-10.38,6.76-10.45,11.57H373v9.06H340.63Z"/></svg>