<?xml version="1.0" encoding="utf-8"?>
<!-- Generator: Adobe Illustrator 25.4.1, SVG Export Plug-In . SVG Version: 6.00 Build 0)  -->
<svg version="1.1" id="logo" xmlns="http://www.w3.org/2000/svg" xmlns:xlink="http://www.w3.org/1999/xlink" x="0px" y="0px"
	 viewBox="0 0 438.7 41.54" style="enable-background:new 0 0 438.7 41.54;" xml:space="preserve">
<g>
	<g>
		<g>
			<polygon points="166.71,5.54 146.73,5.54 146.73,10.47 154.12,10.47 154.12,33.22 159.28,33.22 159.28,10.47 166.71,10.47 			"/>
			<path d="M182.02,13.7c-1.59-1.9-4.21-3.11-7.13-3.11c-5.61,0-10.99,4.21-10.99,11.56c0,7.24,5.57,11.52,10.92,11.52
				c2.92,0,5.57-1.29,7.2-3.34v2.88h5.12V11.04h-5.12V13.7z M175.65,28.97c-3.79,0-6.71-3.03-6.71-6.9c0-3.83,2.92-6.82,6.71-6.82
				c3.79,0,6.63,3.07,6.63,6.82C182.29,25.9,179.44,28.97,175.65,28.97"/>
			<path d="M202.34,10.59c-2.96,0-5.61,1.29-7.16,3.26V5.17h-5.12v28.05h5.08v-2.88c1.59,2.08,4.28,3.34,7.28,3.34
				c5.35,0,10.84-4.28,10.84-11.52C213.26,14.79,207.91,10.59,202.34,10.59 M201.54,28.97c-3.79,0-6.6-3.07-6.6-6.9
				c0-3.75,2.81-6.82,6.6-6.82c3.75,0,6.67,3,6.67,6.82C208.21,25.94,205.29,28.97,201.54,28.97"/>
		</g>
		<g>
			<path d="M54.36,13.63c-1.59-1.93-4.21-3.11-7.13-3.11c-5.61,0-11,4.21-11,11.56c0,7.24,5.58,11.52,10.92,11.52
				c2.92,0,5.57-1.29,7.2-3.37v2.92h5.12V10.98h-5.12V13.63z M47.99,28.92c-3.79,0-6.71-3.03-6.71-6.9c0-3.83,2.92-6.82,6.71-6.82
				c3.79,0,6.63,3.07,6.63,6.82C54.62,25.84,51.78,28.92,47.99,28.92"/>
			<path d="M88.93,13.63c-1.6-1.93-4.21-3.11-7.13-3.11c-5.61,0-10.99,4.21-10.99,11.56c0,7.24,5.57,11.52,10.92,11.52
				c2.92,0,5.57-1.29,7.2-3.37v2.92h5.12V10.98h-5.12V13.63z M82.56,28.92c-3.79,0-6.71-3.03-6.71-6.9c0-3.83,2.92-6.82,6.71-6.82
				c3.79,0,6.64,3.07,6.64,6.82C89.2,25.84,86.35,28.92,82.56,28.92"/>
			<polygon points="130.33,25.92 124.15,10.98 118.69,10.98 127.79,31.99 123.81,41.54 129.08,41.54 141.55,10.98 136.17,10.98 			
				"/>
			<polygon points="118.12,10.98 112.06,10.98 107.05,18 102.01,10.98 95.75,10.98 103.79,21.86 95.45,33.16 101.71,33.16 
				106.98,25.77 112.4,33.16 118.65,33.16 110.16,21.9 			"/>
			<rect x="63" y="5.11" width="5.15" height="28.06"/>
			<path d="M19.65,22.6h8.83c-0.99,3.64-3.87,5.99-8,5.99c-5.38,0-9.25-4.09-9.25-9.21c0-5.04,3.9-9.21,9.06-9.21
				c3.64,0,6.29,1.67,8,4.81l4.55-2.73c-2.35-4.17-6.86-7.09-12.59-7.09c-8.19,0-14.14,6.33-14.14,14.22
				c0,7.66,5.73,14.22,14.37,14.22c8.26,0,13.53-6.4,13.53-13.88v-2.05H19.65V22.6z"/>
		</g>
	</g>
	<g>
		<path d="M220.18,28.63l4.7-3.71c1.4,2.39,3.56,3.75,6.06,3.75c2.73,0,4.21-1.78,4.21-3.72c0-2.35-2.8-3.07-5.76-3.98
			c-3.71-1.18-7.85-2.62-7.85-7.89c0-4.44,3.87-7.92,9.17-7.92c4.47,0,7.05,1.71,9.29,4.02l-4.25,3.22c-1.18-1.74-2.81-2.65-5-2.65
			c-2.5,0-3.87,1.36-3.87,3.15c0,2.2,2.65,2.92,5.65,3.9c3.75,1.21,8,2.88,8,8.19c0,4.36-3.49,8.61-9.55,8.61
			C225.98,33.6,222.68,31.47,220.18,28.63z"/>
		<path d="M243.07,24.95c0-2.84,1.25-5.04,3.41-6.48c-1.55-1.29-2.46-3.11-2.46-5.42c0-4.78,3.6-7.88,9.06-7.88
			c5.35,0,8.98,3.11,8.98,7.88c0,2.35-1.02,4.17-2.62,5.46c2.08,1.44,3.34,3.64,3.34,6.44c0,5.31-3.68,8.64-9.89,8.64
			C246.64,33.6,243.07,30.26,243.07,24.95z M257.86,24.95c0-2.27-1.67-4.09-4.85-4.09c-3.22,0-4.97,1.86-4.97,4.09
			c0,2.27,1.55,4.09,4.85,4.09C256.15,29.05,257.86,27.23,257.86,24.95z M257.36,13.05c0-1.93-1.55-3.53-4.25-3.53
			c-2.77,0-4.4,1.59-4.4,3.53c0,1.97,1.4,3.49,4.25,3.49C255.85,16.54,257.36,14.98,257.36,13.05z"/>
	</g>
	<g>
		<path d="M286.24,23.97c0,2.73-2.16,4.85-4.85,4.85c-2.73,0-4.78-2.12-4.78-4.85V5.54h-5.15v18.12c0,6.48,4.21,9.93,9.97,9.93
			c5.72,0,9.97-3.45,9.97-9.93V5.54h-5.16V23.97z"/>
		<rect x="295.85" y="5.17" width="5.15" height="28.05"/>
		<path d="M311.82,4.14l-5.16,3.53v3.37h-3.79v4.59h3.79v8.34c0,7.05,2.08,9.25,8.95,9.25h0.72V28.4c-3.94,0-4.51-0.61-4.51-4.47
			v-8.3h4.51v-4.59h-4.51V4.14z"/>
		<path d="M324.73,14.34v-3.3h-5.08v22.18h5.12V21.39c0-3.83,1.55-5.42,4.55-5.42c1.48,0,2.31,0.38,3.07,0.87l1.93-4.85
			c-1.02-0.57-2.27-0.95-3.9-0.95C327.65,11.04,325.75,12.14,324.73,14.34z"/>
		<path d="M350.36,11.04v2.65c-1.63-1.93-4.21-3.11-7.13-3.11c-5.61,0-10.99,4.21-10.99,11.56c0,7.28,5.57,11.52,10.92,11.52
			c2.92,0,5.57-1.25,7.2-3.34v2.88h5.12V11.04H350.36z M343.99,28.97c-3.79,0-6.71-3.03-6.71-6.9c0-3.83,2.92-6.82,6.71-6.82
			c3.83,0,6.63,3.03,6.63,6.82C350.62,25.9,347.82,28.97,343.99,28.97z"/>
	</g>
</g>
<g>
	<g>
		<rect x="366.56" width="1.39" height="38.76"/>
	</g>
	<g>
		<path d="M379.04,28.63l4.7-3.71c1.4,2.39,3.56,3.75,6.06,3.75c2.73,0,4.21-1.78,4.21-3.72c0-2.35-2.8-3.07-5.76-3.98
			c-3.71-1.18-7.85-2.62-7.85-7.89c0-4.44,3.87-7.92,9.17-7.92c4.47,0,7.05,1.71,9.29,4.02l-4.25,3.22c-1.18-1.74-2.81-2.65-5-2.65
			c-2.5,0-3.87,1.36-3.87,3.15c0,2.2,2.65,2.92,5.65,3.9c3.75,1.21,8,2.88,8,8.19c0,4.36-3.49,8.61-9.55,8.61
			C384.84,33.6,381.54,31.47,379.04,28.63z"/>
		<path d="M401.93,24.95c0-2.84,1.25-5.04,3.41-6.48c-1.55-1.29-2.46-3.11-2.46-5.42c0-4.78,3.6-7.88,9.06-7.88
			c5.35,0,8.98,3.11,8.98,7.88c0,2.35-1.02,4.17-2.62,5.46c2.08,1.44,3.34,3.64,3.34,6.44c0,5.31-3.68,8.64-9.89,8.64
			C405.49,33.6,401.93,30.26,401.93,24.95z M416.71,24.95c0-2.27-1.67-4.09-4.85-4.09c-3.22,0-4.97,1.86-4.97,4.09
			c0,2.27,1.55,4.09,4.85,4.09C415.01,29.05,416.71,27.23,416.71,24.95z M416.22,13.05c0-1.93-1.55-3.53-4.25-3.53
			c-2.77,0-4.4,1.59-4.4,3.53c0,1.97,1.4,3.49,4.25,3.49C414.71,16.54,416.22,14.98,416.22,13.05z"/>
		<path d="M424.67,17.22h4.89v-4.81h4.28v4.81h4.85v4.36h-4.85v4.85h-4.28v-4.85h-4.89V17.22z"/>
	</g>
</g>
</svg>
