<svg id="圖層_1" data-name="圖層 1" xmlns="http://www.w3.org/2000/svg" viewBox="0 0 32 32"><defs><style>.cls-1{fill:#58c345;}.cls-2{fill:#fff;}</style></defs><g id="Button_social_line" data-name="Button social line"><g id="Button_social_line-2" data-name="Button social line-2"><circle id="Oval_90" data-name="Oval 90" class="cls-1" cx="16" cy="16" r="16"/><path id="Share-Line" class="cls-2" d="M222.65,86.93a.24.24,0,0,1-.21-.08.54.54,0,0,1,0-.41v0l.11-.63a1.34,1.34,0,0,0,0-.66c-.08-.2-.41-.31-.67-.36-3.67-.47-6.34-3-6.34-5.88,0-3.29,3.4-6,7.58-6s7.58,2.68,7.58,6A5.25,5.25,0,0,1,229,82.58a24.34,24.34,0,0,1-6,4.25A1.17,1.17,0,0,1,222.65,86.93Zm3.56-9.68c-.23,0-.47.08-.47.29v2.91a.54.54,0,0,0,.47.47h1.51a.42.42,0,0,0,0-.83H226.6v-.71h1.12a.36.36,0,0,0,.07-.71H226.6V78h1.12a.37.37,0,0,0,.4-.33v0a.37.37,0,0,0-.38-.35h-1.53Zm-7.68-.1a.37.37,0,0,0-.36.37v2.93a.48.48,0,0,0,.42.47h1.5a.42.42,0,0,0,.4-.44.41.41,0,0,0-.4-.39H218.9V77.53a.37.37,0,0,0-.35-.38Zm4.4,1.5h0l1.59,2a.48.48,0,0,0,.36.15l.12,0a.39.39,0,0,0,.26-.37V77.53a.44.44,0,0,0-.48-.38.43.43,0,0,0-.38.38v1.81l-1.51-2a.32.32,0,0,0-.27-.16l-.14,0a.41.41,0,0,0-.28.37v2.91a.37.37,0,0,0,.37.37.36.36,0,0,0,.36-.37v-1.8Zm-1.71-1.5a.38.38,0,0,0-.37.37v2.93a.37.37,0,0,0,.74,0V77.53a.37.37,0,0,0-.36-.38Z" transform="translate(-206.92 -63.93)"/></g></g></svg>