<svg id="圖層_1" data-name="圖層 1" xmlns="http://www.w3.org/2000/svg" xmlns:xlink="http://www.w3.org/1999/xlink" viewBox="0 0 33.53 30.28"><defs><style>.cls-1,.cls-3{fill:none;}.cls-2{clip-path:url(#clip-path);}.cls-3{stroke:#fff;stroke-linecap:round;stroke-linejoin:round;stroke-width:3px;}.cls-4{fill:#fff;}</style><clipPath id="clip-path" transform="translate(0 0)"><rect class="cls-1" width="33.53" height="30.28"/></clipPath></defs><g class="cls-2"><path class="cls-3" d="M32,13.08,18.57,2.14a2.87,2.87,0,0,0-3.61,0L1.5,13.08" transform="translate(0 0)"/><path class="cls-4" d="M17.55,6.1A1.25,1.25,0,0,0,16,6.1L3.25,16.44V28.15a2.13,2.13,0,0,0,2.13,2.13H9.94V21.42h3.68v8.86h1.31V18.51H18.6V30.28h1.31V23.93h3.68v6.35h4.55a2.13,2.13,0,0,0,2.14-2.13V16.44Z" transform="translate(0 0)"/></g></svg>