<svg id="圖層_1" data-name="圖層 1" xmlns="http://www.w3.org/2000/svg" xmlns:xlink="http://www.w3.org/1999/xlink" viewBox="0 0 39.41 34.27"><defs><style>.cls-1{fill:none;}.cls-2{clip-path:url(#clip-path);}.cls-3{fill:#fff;}</style><clipPath id="clip-path" transform="translate(0 0)"><rect class="cls-1" width="39.41" height="34.27"/></clipPath></defs><g class="cls-2"><path class="cls-3" d="M12.51,3A4.13,4.13,0,0,1,9.85.3.49.49,0,0,0,9,.3,4.12,4.12,0,0,1,6.3,3a.5.5,0,0,0,0,.91A4.1,4.1,0,0,1,9,6.51a.49.49,0,0,0,.9,0,4.11,4.11,0,0,1,2.66-2.65.5.5,0,0,0,0-.91" transform="translate(0 0)"/><path class="cls-3" d="M30.26,4.79a3.54,3.54,0,0,1,2.26,2.26.42.42,0,0,0,.77,0,3.54,3.54,0,0,1,2.26-2.26.42.42,0,0,0,0-.77,3.54,3.54,0,0,1-2.26-2.26.41.41,0,0,0-.77,0A3.54,3.54,0,0,1,30.26,4a.41.41,0,0,0,0,.77M5.55,25a3.54,3.54,0,0,1-2.26-2.26.41.41,0,0,0-.77,0A3.54,3.54,0,0,1,.26,25a.41.41,0,0,0,0,.77,3.54,3.54,0,0,1,2.26,2.26.42.42,0,0,0,.77,0,3.54,3.54,0,0,1,2.26-2.26.42.42,0,0,0,0-.77M37.79,12.09,28.7,10.33a2,2,0,0,1-1.35-1L22.54,1.12a2,2,0,0,0-3.46,0L14.27,9.37a2,2,0,0,1-1.35,1L4.19,12a2,2,0,0,0-1.14,3.26l6.2,7.22A2,2,0,0,1,9.72,24L8.9,31.84A2,2,0,0,0,12,33.7a1.83,1.83,0,0,0,.79-1.5V30.59a6.44,6.44,0,0,1,6.43-6.44h3.13a6.44,6.44,0,0,1,6.44,6.44V32.2a1.82,1.82,0,0,0,.78,1.5l.33.22a2,2,0,0,0,3.13-1.71l-.22-7.39a2,2,0,0,1,.36-1.21l5.86-8.42a2,2,0,0,0-1.26-3.1m-17,9.06a5,5,0,1,1,5-5,5,5,0,0,1-5,5" transform="translate(0 0)"/></g></svg>