<svg id="圖層_1" data-name="圖層 1" xmlns="http://www.w3.org/2000/svg" xmlns:xlink="http://www.w3.org/1999/xlink" viewBox="0 0 42 37"><defs><style>.cls-1{fill:none;}.cls-2{clip-path:url(#clip-path);}.cls-3{fill:#fff;}</style><clipPath id="clip-path" transform="translate(0 0)"><rect class="cls-1" width="42" height="37"/></clipPath></defs><g class="cls-2"><path class="cls-3" d="M26.37.28a1.5,1.5,0,0,0-2.09.35L19.94,6.74,16.68,2.58a1.5,1.5,0,0,0-2.36,1.84l4.5,5.75a1.48,1.48,0,0,0,1.18.58h0a1.5,1.5,0,0,0,1.18-.63l5.5-7.75A1.5,1.5,0,0,0,26.37.28" transform="translate(0 0)"/><path class="cls-3" d="M38,8H4a4,4,0,0,0-4,4V33a4,4,0,0,0,4,4H38a4,4,0,0,0,4-4V12a4,4,0,0,0-4-4M29,29a4,4,0,0,1-4,4H8a4,4,0,0,1-4-4V16a4,4,0,0,1,4-4H25a4,4,0,0,1,4,4Zm6,.3A2.3,2.3,0,1,1,37.3,27,2.3,2.3,0,0,1,35,29.3m0-9A2.3,2.3,0,1,1,37.3,18,2.3,2.3,0,0,1,35,20.3" transform="translate(0 0)"/></g></svg>