<svg id="icons" xmlns="http://www.w3.org/2000/svg" viewBox="0 0 44.34 46.6"><defs><style>.cls-1{fill:#fff;}</style></defs><path class="cls-1" d="M490.61,235.13a14.56,14.56,0,0,1-3.33,7.81c-.91,1.16.19,1.76,1.11,1.77,7.09,0,12.27-9.58,12.27-9.58Z" transform="translate(-478.79 -220.28)"/><path class="cls-1" d="M507.91,220.28H494a10.74,10.74,0,1,0,0,21.47h13.9a10.74,10.74,0,0,0,0-21.47Zm-16.44,14.19a3.45,3.45,0,1,1,3.45-3.45A3.45,3.45,0,0,1,491.47,234.47Zm9.49,0a3.45,3.45,0,1,1,3.45-3.45A3.45,3.45,0,0,1,501,234.47Zm9.49,0A3.45,3.45,0,1,1,513.9,231,3.45,3.45,0,0,1,510.45,234.47Z" transform="translate(-478.79 -220.28)"/><path class="cls-1" d="M19.08,25.16h6.19a3.17,3.17,0,0,1,3.17,3.17V46.6a0,0,0,0,1,0,0H15.91a0,0,0,0,1,0,0V28.32A3.17,3.17,0,0,1,19.08,25.16Z"/><path class="cls-1" d="M35,28h6.19a3.17,3.17,0,0,1,3.17,3.17V46.6a0,0,0,0,1,0,0H31.81a0,0,0,0,1,0,0V31.13A3.17,3.17,0,0,1,35,28Z"/><path class="cls-1" d="M3.17,34.07H9.36a3.17,3.17,0,0,1,3.17,3.17V46.6a0,0,0,0,1,0,0H0a0,0,0,0,1,0,0V37.24A3.17,3.17,0,0,1,3.17,34.07Z"/></svg>