<svg id="圖層_1" data-name="圖層 1" xmlns="http://www.w3.org/2000/svg" xmlns:xlink="http://www.w3.org/1999/xlink" viewBox="0 0 46.61 46.61"><defs><style>.cls-1{fill:none;}.cls-2{clip-path:url(#clip-path);}.cls-3{fill:#fff;}</style><clipPath id="clip-path" transform="translate(0 0)"><rect class="cls-1" width="46.61" height="46.61"/></clipPath></defs><g class="cls-2"><path class="cls-3" d="M33.66,15.77A18.14,18.14,0,0,1,15.77,33.66,15.53,15.53,0,1,0,33.66,15.77m4,23.25a1.35,1.35,0,0,1-.44.07A1.49,1.49,0,0,1,35.78,38c-.53-1.75-2.77-2.67-4.71-2.67s-4.27.89-4.68,2.59a1.5,1.5,0,0,1-2.92-.7c.81-3.36,4.51-4.89,7.6-4.89s6.59,1.5,7.58,4.81a1.49,1.49,0,0,1-1,1.86m-.43-8.73a1.87,1.87,0,1,1,1.86-1.87,1.87,1.87,0,0,1-1.86,1.87" transform="translate(0 0)"/><path class="cls-3" d="M15.54,0A15.54,15.54,0,1,0,31.07,15.54,15.54,15.54,0,0,0,15.54,0M9.39,11a1.87,1.87,0,1,1-1.86,1.87A1.87,1.87,0,0,1,9.39,11m13.73,7.73c-1,3.3-4.63,4.8-7.58,4.8-3.1,0-6.8-1.53-7.6-4.89a1.5,1.5,0,0,1,2.91-.7c.41,1.7,2.67,2.59,4.69,2.59s4.18-.92,4.7-2.67a1.5,1.5,0,0,1,2.88.87m-1.44-4a1.87,1.87,0,1,1,1.86-1.86,1.86,1.86,0,0,1-1.86,1.86" transform="translate(0 0)"/></g></svg>